<svg width="22" height="15" viewBox="0 0 22 15" fill="none" xmlns="http://www.w3.org/2000/svg">
<g clip-path="url(#clip0_33_879)">
<path d="M11.3909 14.5C11.0558 14.5 10.8325 14.3667 10.6091 14.1L5.91877 8.5C5.47207 7.96667 5.47207 7.16667 5.91877 6.63333C6.36547 6.1 7.03552 6.1 7.48222 6.63333L11.3909 11.3L20.1015 0.9C20.5482 0.366667 21.2183 0.366667 21.665 0.9C22.1117 1.43333 22.1117 2.23333 21.665 2.76667L12.1726 14.1C12.0609 14.3667 11.7259 14.5 11.3909 14.5Z" fill="#726F6F"/>
<path d="M5.80711 14.5C5.47208 14.5 5.24873 14.3667 5.02538 14.1L0.335025 8.5C-0.111675 7.96667 -0.111675 7.16667 0.335025 6.63333C0.781726 6.1 1.45178 6.1 1.89848 6.63333L6.58883 12.2333C7.03553 12.7667 7.03553 13.5667 6.58883 14.1C6.47716 14.3667 6.14213 14.5 5.80711 14.5ZM11.7259 7.56667C11.3909 7.56667 11.1675 7.43333 10.9442 7.16667C10.4975 6.63333 10.4975 5.83333 10.9442 5.3L14.5178 0.9C14.9645 0.366667 15.6345 0.366667 16.0812 0.9C16.5279 1.43333 16.5279 2.23333 16.0812 2.76667L12.5076 7.16667C12.2843 7.43333 12.0609 7.56667 11.7259 7.56667Z" fill="#726F6F"/>
</g>
<defs>
<clipPath id="clip0_33_879">
<rect width="22" height="14" fill="white" transform="translate(0 0.5)"/>
</clipPath>
</defs>
</svg>
