<svg width="24" height="25" viewBox="0 0 24 25" fill="none" xmlns="http://www.w3.org/2000/svg">
<path d="M16 13.6131V17.8131C16 21.3131 14.6 22.7131 11.1 22.7131H6.9C3.4 22.7131 2 21.3131 2 17.8131V13.6131C2 10.1131 3.4 8.71307 6.9 8.71307H11.1C14.6 8.71307 16 10.1131 16 13.6131Z" fill="white"/>
<path d="M17.1 2.71307H12.9C9.81693 2.71307 8.37099 3.80716 8.06975 6.45209C8.00673 7.00542 8.465 7.46307 9.02191 7.46307H11.1C15.3 7.46307 17.25 9.41307 17.25 13.6131V15.6912C17.25 16.2481 17.7077 16.7064 18.261 16.6433C20.9059 16.3421 22 14.8962 22 11.8131V7.61307C22 4.11307 20.6 2.71307 17.1 2.71307Z" fill="white"/>
</svg>
