<svg width="59" height="57" viewBox="0 0 59 57" fill="none" xmlns="http://www.w3.org/2000/svg">
<path d="M40.2155 45.1938C39.953 45.1563 39.728 45.1187 39.4937 45.0719C39.3999 45.0531 39.3062 45.0437 39.2124 45.025C39.0624 44.9969 38.9405 44.9594 38.7999 44.9219C38.6499 44.8844 38.4812 44.8469 38.3499 44.8C38.3141 44.7917 38.2795 44.7791 38.2468 44.7625C37.5812 44.5469 37.1499 44.3031 36.9718 44.1156C36.9155 44.05 36.878 43.9844 36.878 43.9281C36.878 43.6656 36.6718 43.4594 36.4093 43.4594C36.1468 43.4594 35.9405 43.6656 35.9405 43.9281C35.9405 44.0313 35.9593 44.125 35.9874 44.2187C36.3812 45.625 39.6062 46.2719 42.6155 46.2719C45.6249 46.2719 48.8593 45.625 49.2437 44.2187C49.2718 44.125 49.2905 44.0313 49.2905 43.9281C49.2905 43.6656 49.0843 43.4594 48.8218 43.4594C48.5593 43.4594 48.353 43.6656 48.353 43.9281C48.353 43.9844 48.3155 44.05 48.2593 44.1156C48.0812 44.3125 47.6499 44.5469 46.9843 44.7625C46.9468 44.7719 46.9187 44.7812 46.8812 44.8C46.7499 44.8375 46.5812 44.875 46.4312 44.9219C46.2905 44.9594 46.1687 44.9875 46.0187 45.025C45.9343 45.0437 45.8312 45.0531 45.7374 45.0719C45.503 45.1187 45.278 45.1563 45.0155 45.1938C44.9499 45.1938 44.8655 45.2031 44.7905 45.2125C44.4999 45.25 44.2093 45.2781 43.8905 45.2969C43.4874 45.325 43.0655 45.3344 42.6062 45.3344C42.1468 45.3344 41.7249 45.3156 41.3218 45.2969C41.003 45.2781 40.7124 45.2406 40.4218 45.2125C40.3468 45.2125 40.2718 45.2031 40.1968 45.1938H40.2155ZM16.3749 38.7812C19.3843 38.7812 22.6187 38.1344 23.003 36.7281C23.0312 36.6344 23.0499 36.5406 23.0499 36.4375C23.0499 36.175 22.8437 35.9688 22.5812 35.9688C22.3187 35.9688 22.1124 36.175 22.1124 36.4375C22.1124 36.4937 22.0749 36.5594 22.0187 36.625C21.8405 36.8219 21.4093 37.0562 20.7437 37.2719C20.7062 37.2812 20.678 37.2906 20.6405 37.3094C20.5093 37.3469 20.3405 37.3844 20.1905 37.4313C20.0499 37.4688 19.928 37.4969 19.778 37.5344C19.6937 37.5531 19.5905 37.5625 19.4968 37.5813C19.2624 37.6281 19.0374 37.6656 18.7749 37.7031C18.7093 37.7031 18.6249 37.7125 18.5499 37.7219C18.2593 37.7594 17.9687 37.7875 17.6499 37.8062C17.2468 37.8344 16.8249 37.8438 16.3655 37.8438C15.9062 37.8438 15.4843 37.825 15.0812 37.8062C14.7624 37.7875 14.4718 37.75 14.1812 37.7219C14.1062 37.7219 14.0312 37.7125 13.9562 37.7031C13.6937 37.6656 13.4687 37.6281 13.2343 37.5813C13.1405 37.5625 13.0468 37.5531 12.953 37.5344C12.803 37.5062 12.6812 37.4688 12.5405 37.4313C12.3905 37.3938 12.2218 37.3563 12.0905 37.3094C12.0548 37.3011 12.0201 37.2885 11.9874 37.2719C11.3218 37.0562 10.8905 36.8125 10.7124 36.625C10.6562 36.5594 10.6187 36.4937 10.6187 36.4375C10.6187 36.175 10.4124 35.9688 10.1499 35.9688C9.8874 35.9688 9.68115 36.175 9.68115 36.4375C9.68115 36.5406 9.6999 36.6344 9.72803 36.7281C10.1218 38.1344 13.3468 38.7812 16.3562 38.7812H16.3749Z" fill="#EA6F37"/>
<path d="M57.625 40.1875H50.3594C48.5969 39.1 46.0656 38.4062 43.1781 38.3312V37.6187C43.8063 37.7312 44.6312 37.8344 45.55 37.8344C47.0781 37.8344 48.8406 37.5437 50.3031 36.5219C53.6125 34.2062 53.9125 29.1812 53.9313 28.9656C53.95 28.5344 53.6781 28.1406 53.2656 28.0187C53.0594 27.9531 48.2312 26.5281 44.9312 28.8437C43.6187 29.7625 42.7844 31.1125 42.2406 32.4156C41.7063 31.1125 40.8719 29.7625 39.5594 28.8437C36.2594 26.5281 31.4313 27.9625 31.225 28.0187C30.8125 28.1406 30.5406 28.5344 30.5594 28.9656C30.5688 29.1812 30.8781 34.1969 34.1687 36.5125C35.6312 37.5437 37.3937 37.8344 38.9219 37.8344C39.8406 37.8344 40.6656 37.7312 41.2938 37.6187V38.3687C38.6969 38.5375 36.4562 39.2031 34.8531 40.1969H26.6781V36.4469C26.6781 33.3906 22.4313 30.9906 16.9187 30.8406V30.1281C17.5469 30.2406 18.3719 30.3437 19.2906 30.3437C20.8188 30.3437 22.5813 30.0531 24.0438 29.0312C27.3531 26.7156 27.6531 21.6906 27.6719 21.475C27.6906 21.0437 27.4188 20.65 27.0063 20.5281C26.8 20.4625 21.9719 19.0375 18.6719 21.3531C17.3594 22.2719 16.525 23.6219 15.9812 24.925C15.4469 23.6219 14.6125 22.2719 13.3 21.3531C10 19.0375 5.17187 20.4719 4.96562 20.5281C4.55312 20.65 4.28125 21.0437 4.3 21.475C4.30937 21.6906 4.61875 26.7062 7.90938 29.0219C9.37188 30.0531 11.1344 30.3437 12.6625 30.3437C13.5812 30.3437 14.4062 30.2406 15.0344 30.1281V30.8781C9.85 31.2156 6.04375 33.5312 6.04375 36.4562V40.2062H1.375C0.859375 40.2062 0.4375 40.6281 0.4375 41.1437C0.4375 41.6594 0.859375 42.0812 1.375 42.0812H6.2125C6.40937 42.7562 6.80313 43.3844 7.39375 43.9562H3.25C2.73437 43.9562 2.3125 44.3781 2.3125 44.8937C2.3125 45.4094 2.73437 45.8312 3.25 45.8312H29.5C30.0156 45.8312 30.4375 45.4094 30.4375 44.8937C30.4375 44.3781 30.0156 43.9562 29.5 43.9562H25.3562C25.9562 43.375 26.3594 42.7375 26.5469 42.0531C26.5938 42.0531 26.6406 42.0812 26.6875 42.0812H32.8844C32.5188 42.6625 32.3125 43.2906 32.3125 43.9562V48.6437C32.3125 49.3 32.5 49.9281 32.8656 50.5187H29.5C28.9844 50.5187 28.5625 50.9406 28.5625 51.4562C28.5625 51.9719 28.9844 52.3937 29.5 52.3937H55.75C56.2656 52.3937 56.6875 51.9719 56.6875 51.4562C56.6875 50.9406 56.2656 50.5187 55.75 50.5187H52.3844C52.75 49.9281 52.9375 49.3 52.9375 48.6437V43.9562C52.9375 43.2906 52.7313 42.6625 52.3563 42.0812H57.625C58.1406 42.0812 58.5625 41.6594 58.5625 41.1437C58.5625 40.6281 58.1406 40.2062 57.625 40.2062V40.1875ZM19.75 22.8719C21.6438 21.5406 24.4 21.8687 25.7125 22.1312C25.5062 23.4531 24.8781 26.1437 22.975 27.475C21.0813 28.8062 18.325 28.4781 17.0125 28.2156C17.2188 26.8937 17.8563 24.1937 19.75 22.8719ZM8.99688 27.475C7.1125 26.1531 6.475 23.4531 6.26875 22.1219C7.58125 21.8594 10.3281 21.5312 12.2219 22.8625C14.1156 24.1844 14.7531 26.8844 14.9594 28.2156C13.6469 28.4781 10.9 28.8062 8.99688 27.475ZM15.0531 32.7437V35.5C15.0531 36.0156 15.475 36.4375 15.9906 36.4375C16.5063 36.4375 16.9281 36.0156 16.9281 35.5V32.6969C21.5969 32.8375 24.8125 34.7312 24.8125 36.4375C24.8125 38.1437 21.3438 40.1875 16.375 40.1875C11.4062 40.1875 7.9375 38.2094 7.9375 36.4375C7.9375 34.8625 10.7969 33.0719 15.0531 32.7437ZM10.9375 43.9375C9.08125 43.2062 7.9375 42.1375 7.9375 41.125V39.7C9.78438 41.1344 12.8406 42.0625 16.375 42.0625C19.9094 42.0625 22.9656 41.1344 24.8125 39.7V41.125C24.8125 42.1469 23.6594 43.2062 21.8125 43.9375H10.9375ZM46 30.3719C47.8937 29.0406 50.65 29.3687 51.9625 29.6312C51.7562 30.9531 51.1281 33.6437 49.225 34.975C47.3313 36.3062 44.575 35.9781 43.2625 35.7156C43.4688 34.3937 44.1062 31.6937 46 30.3719ZM35.2469 34.975C33.3625 33.6531 32.725 30.9531 32.5188 29.6219C33.8313 29.3594 36.5781 29.0312 38.4719 30.3625C40.3656 31.6844 41.0031 34.3844 41.2094 35.7156C39.8969 35.9781 37.15 36.3062 35.2469 34.975ZM42.2406 43.9375C42.7563 43.9375 43.1781 43.5156 43.1781 43V40.1969C47.8469 40.3375 51.0625 42.2312 51.0625 43.9375C51.0625 45.6437 47.5938 47.6875 42.625 47.6875C37.6562 47.6875 34.1875 45.7094 34.1875 43.9375C34.1875 42.3625 37.0469 40.5719 41.3031 40.2437V43C41.3031 43.5156 41.725 43.9375 42.2406 43.9375ZM35.425 50.5C34.8906 50.0969 34.1875 49.4312 34.1875 48.625V47.2C36.0344 48.6344 39.0906 49.5625 42.625 49.5625C46.1594 49.5625 49.2156 48.6344 51.0625 47.2V48.625C51.0625 49.4312 50.3688 50.0969 49.825 50.5H35.4156H35.425Z" fill="#EA6F37"/>
<path d="M25.75 47.6875H7C6.48438 47.6875 6.0625 48.1094 6.0625 48.625C6.0625 49.1406 6.48438 49.5625 7 49.5625H25.75C26.2656 49.5625 26.6875 49.1406 26.6875 48.625C26.6875 48.1094 26.2656 47.6875 25.75 47.6875ZM13.2344 11.9406C13.0433 12.0237 12.8867 12.1702 12.7911 12.3553C12.6955 12.5405 12.6668 12.753 12.7098 12.9569C12.7528 13.1608 12.8648 13.3436 13.027 13.4745C13.1892 13.6053 13.3916 13.6761 13.6 13.675H15.175V14.8C15.175 15.0531 15.3813 15.2593 15.625 15.2593C15.6906 15.2593 15.7469 15.25 15.8031 15.2219C15.9719 15.1562 16.0844 14.9875 16.0844 14.8V13.675H16.7312V14.8C16.7312 15.0531 16.9375 15.2593 17.1813 15.2593C17.2469 15.2593 17.3031 15.25 17.3594 15.2219C17.5281 15.1562 17.6406 14.9875 17.6406 14.8V13.675H18.25C18.4188 13.675 18.5875 13.6562 18.7469 13.6281C19.8625 13.3937 20.7156 12.4 20.7156 11.2094C20.7156 10.4875 20.3969 9.8406 19.9 9.3906C20.1344 9.0156 20.275 8.57498 20.275 8.10623C20.275 6.74685 19.1688 5.6406 17.8188 5.6406H17.65V4.26248C17.65 4.00935 17.4437 3.8031 17.2 3.8031C17.1344 3.8031 17.0781 3.81248 17.0219 3.8406C16.8531 3.90623 16.7406 4.07498 16.7406 4.26248V5.6406H16.0938V4.26248C16.0938 4.00935 15.8875 3.8031 15.6437 3.8031C15.5781 3.8031 15.5219 3.81248 15.4656 3.8406C15.2969 3.90623 15.1844 4.07498 15.1844 4.26248V5.6406H13.6188C13.4969 5.6406 13.375 5.66873 13.2625 5.7156C12.9344 5.85623 12.7094 6.17498 12.7094 6.54998C12.7094 7.04685 13.1031 7.4406 13.6 7.45935V11.8656C13.4781 11.8656 13.3656 11.8937 13.2531 11.9406H13.2344ZM17.8094 7.45935C18.1656 7.45935 18.4563 7.74998 18.4563 8.10623C18.4565 8.19001 18.4402 8.27302 18.4082 8.35048C18.3763 8.42794 18.3293 8.49831 18.2701 8.55756C18.2108 8.6168 18.1405 8.66375 18.063 8.6957C17.9855 8.72765 17.9025 8.74397 17.8188 8.74373H15.4V7.45935H17.8094ZM18.25 10.5719C18.6063 10.5719 18.8969 10.8625 18.8969 11.2187C18.8971 11.3025 18.8808 11.3855 18.8489 11.463C18.8169 11.5404 18.77 11.6108 18.7107 11.6701C18.6515 11.7293 18.5811 11.7763 18.5036 11.8082C18.4262 11.8402 18.3432 11.8565 18.2594 11.8562H15.4V10.5719H18.2594H18.25ZM33.4375 18.0344C33.4656 18.6062 33.5594 19.2062 33.7188 19.8437C34.1256 21.3844 34.9157 22.797 36.0156 23.95C36.3625 24.3062 36.7188 24.625 37.1125 24.925C37.6656 25.3468 38.2469 25.6937 38.8281 25.9656C40.075 26.5562 41.4063 26.8469 42.775 26.8469C46.2719 26.8469 49.45 24.9156 51.0719 21.8125C51.3813 21.2406 51.625 20.6125 51.8031 19.9562C51.9344 19.4875 52.0375 18.9906 52.0844 18.5031C52.1219 18.1562 52.15 17.8187 52.15 17.4719C52.15 16.225 51.9063 14.9968 51.4188 13.8343C51.1844 13.2812 50.8938 12.7469 50.5563 12.2312C50.2375 11.7625 49.8906 11.3406 49.5156 10.9562C49.1688 10.6 48.8125 10.2812 48.4094 9.98123C46.7594 8.7531 44.8188 8.09685 42.775 8.09685C38.5844 8.09685 34.8719 10.9187 33.7563 14.9406C33.625 15.3812 33.5313 15.8687 33.4656 16.4031C33.4281 16.75 33.4 17.1062 33.4 17.4719C33.4 17.6125 33.4 17.7437 33.4188 17.8843V18.0344H33.4375ZM35.3406 16.6375C35.3969 16.2156 35.4719 15.8219 35.575 15.4562C36.4656 12.2312 39.4375 9.97185 42.7938 9.97185C44.425 9.97185 45.9813 10.4969 47.2938 11.4719C47.6125 11.7156 47.9031 11.9781 48.1844 12.2594C48.4844 12.5687 48.7563 12.9062 49.0094 13.2812C49.2813 13.6937 49.5156 14.125 49.7031 14.5562C50.0875 15.4843 50.2844 16.4594 50.2844 17.4625C50.2844 17.7344 50.2656 17.9968 50.2375 18.2781C50.2 18.6718 50.125 19.0562 50.0125 19.4406C49.8719 19.975 49.675 20.4718 49.4313 20.9312C48.7998 22.1463 47.8469 23.1647 46.6765 23.8755C45.5061 24.5864 44.1631 24.9623 42.7938 24.9625C41.6969 24.9625 40.6375 24.7281 39.6344 24.25C39.1656 24.0344 38.7063 23.7531 38.2656 23.4156C37.9469 23.1719 37.6563 22.9094 37.3844 22.6281C36.5075 21.7064 35.8786 20.5775 35.5563 19.3469C35.425 18.85 35.35 18.3625 35.3313 17.9125V17.725C35.3125 17.6312 35.3031 17.5375 35.3031 17.4531C35.3031 17.1625 35.3219 16.8812 35.35 16.6094L35.3406 16.6375Z" fill="#EA6F37"/>
<path d="M39.2125 17.4625V17.4906H39.2219C39.2219 17.4906 39.2688 17.5844 39.3157 17.6125L42.6157 19.5531L45.9157 17.6125C46.0375 17.5375 46.0844 17.3687 46 17.2469L42.6063 11.7719L39.2125 17.2469C39.175 17.3031 39.175 17.3687 39.1844 17.425V17.4531L39.2125 17.4625Z" fill="#EA6F37"/>
<path d="M42.4281 22.9188C42.475 22.9844 42.55 23.0219 42.625 23.0219C42.7 23.0219 42.775 22.9844 42.8219 22.9188L46.2906 18.475C46.3656 18.3813 46.2531 18.2594 46.1594 18.325L42.625 20.5938L39.0906 18.325C38.9969 18.2594 38.8844 18.3907 38.9594 18.475L42.4281 22.9188ZM7.45937 10.1031C7.4875 10.675 7.58125 11.2844 7.74063 11.9125C8.14744 13.4532 8.9376 14.8658 10.0375 16.0188C10.3844 16.375 10.7406 16.6938 11.1344 16.9938C11.6875 17.4157 12.2687 17.7625 12.85 18.0344C14.0969 18.625 15.4281 18.9156 16.7969 18.9156C17.6688 18.9156 18.5219 18.7938 19.3375 18.5688C20.5656 18.2235 21.71 17.6303 22.7 16.8257C23.69 16.0211 24.5047 15.0222 25.0937 13.8907C25.4031 13.3188 25.6469 12.6906 25.825 12.025C25.9563 11.5563 26.0594 11.0688 26.1063 10.5719C26.1438 10.225 26.1719 9.88752 26.1719 9.54065C26.1719 8.29377 25.9281 7.06565 25.4406 5.90315C25.2063 5.35002 24.9156 4.81565 24.5781 4.30002C24.2594 3.83127 23.9125 3.4094 23.5375 3.02502C23.1906 2.66877 22.8344 2.35002 22.4312 2.05002C20.7812 0.8219 18.8406 0.165649 16.7969 0.165649C16.0094 0.165649 15.2406 0.268774 14.5 0.456274C14.3406 0.493774 14.1906 0.550024 14.0406 0.596899C13.9563 0.625024 13.8625 0.643774 13.7781 0.671899C10.9094 1.65627 8.6125 3.99065 7.77813 7.01877C7.54454 7.84234 7.42468 8.69398 7.42188 9.55002C7.42187 9.68127 7.42188 9.81252 7.44063 9.94377V10.1125L7.45937 10.1031ZM16.8062 2.04065C18.4375 2.04065 19.9938 2.56565 21.3063 3.55002C21.9762 4.05197 22.5563 4.66374 23.0219 5.3594C23.2937 5.7719 23.5281 6.20315 23.7156 6.6344C24.1 7.56252 24.2969 8.5469 24.2969 9.54065C24.2969 9.81252 24.2781 10.075 24.25 10.3656C24.25 10.3844 24.25 10.4125 24.2406 10.4313C24.2031 10.7782 24.1375 11.1157 24.0437 11.4438C24.0437 11.4719 24.0344 11.4906 24.025 11.5188C23.8844 12.0625 23.6875 12.5594 23.4438 13.0094C22.9721 13.9148 22.3206 14.7145 21.5291 15.3593C20.7376 16.0041 19.8227 16.4805 18.8406 16.7594C18.1937 16.9469 17.5094 17.0406 16.8062 17.0406C15.7094 17.0406 14.65 16.8063 13.6469 16.3281C13.1781 16.1125 12.7188 15.8313 12.2781 15.4938C11.9594 15.25 11.6687 14.9875 11.3969 14.7063C10.52 13.7846 9.89109 12.6557 9.56875 11.425C9.4375 10.9281 9.3625 10.4406 9.34375 9.99065V9.7844C9.325 9.70002 9.31563 9.61565 9.31563 9.5219C9.31563 9.23127 9.33438 8.95002 9.3625 8.68752C9.41875 8.26565 9.49375 7.8719 9.59688 7.50627C10.2625 5.08752 12.1 3.21252 14.3969 2.42502C15.1563 2.16252 15.9719 2.0219 16.8062 2.0219V2.04065ZM52 54.25H33.25C32.7344 54.25 32.3125 54.6719 32.3125 55.1875C32.3125 55.7031 32.7344 56.125 33.25 56.125H52C52.5156 56.125 52.9375 55.7031 52.9375 55.1875C52.9375 54.6719 52.5156 54.25 52 54.25Z" fill="#EA6F37"/>
</svg>
