<svg width="51" height="60" viewBox="0 0 51 60" fill="none" xmlns="http://www.w3.org/2000/svg">
<path d="M50.3257 23.7C50.4683 23.6177 50.5866 23.4994 50.6689 23.3569C50.7512 23.2143 50.7945 23.0527 50.7945 22.8881V15.9375C50.7945 15.7729 50.7512 15.6112 50.6689 15.4687C50.5866 15.3262 50.4683 15.2079 50.3257 15.1256L44.3064 11.6503C44.1639 11.568 44.0022 11.5247 43.8376 11.5247C43.6731 11.5247 43.5114 11.568 43.3689 11.6503L37.8182 14.855L32.457 11.7597V5.35029C32.457 5.18572 32.4137 5.02405 32.3314 4.88153C32.2491 4.73902 32.1308 4.62068 31.9882 4.53841L25.9688 1.0631C25.8263 0.980818 25.6646 0.9375 25.5 0.9375C25.3355 0.9375 25.1738 0.980818 25.0313 1.0631L19.0119 4.53841C18.8694 4.62068 18.751 4.73902 18.6688 4.88153C18.5865 5.02405 18.5432 5.18572 18.5432 5.35029V11.7596L13.1819 14.8549L7.63127 11.6503C7.48875 11.568 7.32708 11.5247 7.16252 11.5247C6.99795 11.5247 6.83629 11.568 6.69377 11.6503L0.674316 15.1256C0.531786 15.2079 0.413427 15.3262 0.331142 15.4687C0.248857 15.6112 0.205547 15.7729 0.205566 15.9375V22.8881C0.205547 23.0527 0.248857 23.2143 0.331142 23.3569C0.413427 23.4994 0.531786 23.6177 0.674316 23.7L6.22502 26.9047V33.0951L0.674316 36.3C0.531778 36.3822 0.413413 36.5006 0.331126 36.6431C0.24884 36.7856 0.205535 36.9473 0.205566 37.1118V44.0625C0.205547 44.227 0.248857 44.3887 0.331142 44.5312C0.413427 44.6737 0.531786 44.7921 0.674316 44.8744L6.69377 48.3497C6.83873 48.4335 7.00068 48.4753 7.16252 48.4753C7.32436 48.4753 7.48631 48.4335 7.63127 48.3497L13.182 45.1449L18.5432 48.2402V54.6495C18.5432 54.8141 18.5865 54.9758 18.6688 55.1183C18.751 55.2608 18.8694 55.3792 19.0119 55.4614L25.0313 58.9369C25.1762 59.0206 25.3382 59.0625 25.5 59.0625C25.6619 59.0625 25.8238 59.0206 25.9688 58.9369L31.9882 55.4615C32.1308 55.3793 32.2491 55.2609 32.3314 55.1184C32.4137 54.9759 32.457 54.8142 32.457 54.6497V48.2402L37.8181 45.1451L43.3688 48.3498C43.5137 48.4336 43.6757 48.4754 43.8375 48.4754C43.9994 48.4754 44.1613 48.4336 44.3063 48.3498L50.3256 44.8745C50.4681 44.7922 50.5865 44.6739 50.6688 44.5314C50.7511 44.3888 50.7944 44.2272 50.7944 44.0626V37.112C50.7944 36.9474 50.7511 36.7857 50.6688 36.6432C50.5865 36.5007 50.4681 36.3824 50.3256 36.3001L44.775 33.0954V26.9049L50.3257 23.7ZM43.8376 39.5046L39.6932 37.1117L43.8376 34.7189L47.9821 37.1117L43.8376 39.5046ZM31.5195 46.6165L26.4375 43.6826V37.4919L31.9882 34.2872C32.1308 34.2049 32.2491 34.0866 32.3314 33.9441C32.4137 33.8015 32.457 33.6399 32.457 33.4753V27.0658L37.8181 23.9706L42.9 26.9047V33.0951L37.3493 36.2999C37.2068 36.3821 37.0884 36.5005 37.0061 36.643C36.9238 36.7855 36.8805 36.9472 36.8806 37.1117V43.5212L31.5195 46.6165ZM25.5 50.0918L21.3557 47.699L25.5 45.3062L29.6445 47.699L25.5 50.0918ZM14.1195 43.5213V37.1118C14.1195 36.9473 14.0762 36.7856 13.9939 36.6431C13.9116 36.5006 13.7933 36.3822 13.6507 36.3L8.10002 33.0952V26.9048L13.182 23.9707L18.5432 27.066V33.4753C18.5432 33.6399 18.5865 33.8015 18.6688 33.944C18.751 34.0866 18.8694 34.2049 19.0119 34.2872L24.5625 37.4919V43.6826L19.4807 46.6166L14.1195 43.5213ZM7.16252 39.5046L3.01807 37.1117L7.16252 34.7189L11.307 37.1117L7.16252 39.5046ZM19.4807 13.3835L25.0313 16.5882C25.1738 16.6705 25.3355 16.7138 25.5 16.7138C25.6646 16.7138 25.8263 16.6705 25.9688 16.5882L31.5195 13.3835L36.8806 16.4788V22.3469L31.5194 25.4422L25.9688 22.2375C25.8263 22.1552 25.6646 22.1119 25.5 22.1119C25.3355 22.1119 25.1738 22.1552 25.0313 22.2375L19.4806 25.4422L14.1194 22.3469V16.4789L19.4807 13.3835ZM24.5625 9.36689V14.1525L20.4182 11.7597V6.97416L24.5625 9.36689ZM26.4375 9.36689L30.582 6.97404V11.7596L26.4375 14.1525V9.36689ZM42.9001 19.9541V24.7397L38.7557 22.3468V17.5612L42.9001 19.9541ZM20.4182 28.1484L24.5625 30.5413V35.3268L20.4182 32.934V28.1484ZM25.5 28.9174L21.3556 26.5247L25.5 24.1318L29.6445 26.5245L25.5 28.9174ZM26.4375 30.5413L30.582 28.1484V32.934L26.4375 35.3268V30.5413ZM12.2445 17.5612V22.3468L8.10002 24.7397V19.9541L12.2445 17.5612ZM44.7751 24.7397V19.9541L48.9195 17.5613V22.3468L44.7751 24.7397ZM43.8376 13.5447L47.982 15.9375L43.8376 18.3302L39.6932 15.9375L43.8376 13.5447ZM25.5 2.95755L29.6445 5.35029L25.5 7.74314L21.3556 5.35029L25.5 2.95755ZM7.16252 13.5447L11.307 15.9375L7.16252 18.3302L3.01807 15.9375L7.16252 13.5447ZM2.08057 17.5613L6.22502 19.9541V24.7397L2.08057 22.3468V17.5613ZM2.08057 38.7355L6.22502 41.1283V45.914L2.08057 43.5212V38.7355ZM8.10002 45.914V41.1283L12.2445 38.7355V43.5211L8.10002 45.914ZM20.4182 49.3228L24.5625 51.7155V56.5012L20.4182 54.1084V49.3228ZM30.5821 54.1083L26.4375 56.5012V51.7155L30.582 49.3227V54.1083H30.5821ZM38.7557 38.7355L42.9001 41.1283V45.914L38.7557 43.5212V38.7355ZM44.7751 45.914V41.1283L48.9195 38.7356V43.5212L44.7751 45.914Z" fill="#EA6F37"/>
</svg>
