<svg width="55" height="55" viewBox="0 0 55 55" fill="none" xmlns="http://www.w3.org/2000/svg">
<path d="M50.9 12.796C50.3678 12.656 49.802 12.7312 49.3248 13.0051C48.8476 13.2791 48.4974 13.7299 48.35 14.26C48.2677 14.5235 48.2408 14.8012 48.271 15.0756C48.3011 15.3501 48.3876 15.6153 48.525 15.8547C48.6625 16.0941 48.8479 16.3026 49.0697 16.467C49.2915 16.6313 49.5449 16.7481 49.814 16.81C50.0779 16.8843 50.3541 16.9053 50.6262 16.8716C50.8984 16.838 51.1611 16.7505 51.3991 16.6142C51.6371 16.4779 51.8455 16.2956 52.0122 16.0778C52.1789 15.8601 52.3005 15.6113 52.37 15.346C52.4927 14.8138 52.4093 14.255 52.1365 13.7818C51.8638 13.3087 51.422 12.9565 50.9 12.796ZM5.17997 39.124C4.64703 39.0015 4.0875 39.0858 3.61424 39.3597C3.14099 39.6336 2.78924 40.0769 2.62997 40.6C2.49203 41.1321 2.56887 41.6971 2.84389 42.1731C3.11891 42.649 3.57007 42.9978 4.09997 43.144C4.36391 43.2261 4.64201 43.2528 4.91677 43.2223C5.19152 43.1918 5.457 43.1048 5.69649 42.9667C5.93599 42.8287 6.14434 42.6425 6.30842 42.4201C6.47251 42.1976 6.5888 41.9436 6.64997 41.674C6.72421 41.4104 6.7451 41.1346 6.71142 40.8629C6.67774 40.5911 6.59017 40.3288 6.45382 40.0913C6.31748 39.8538 6.13511 39.646 5.9174 39.4799C5.6997 39.3137 5.45103 39.1928 5.18597 39.124H5.17997ZM5.74997 37.15C6.35606 37.2904 6.90965 37.6005 7.34597 38.044C7.44102 38.1002 7.54732 38.1347 7.65726 38.1451C7.7672 38.1554 7.87808 38.1414 7.98197 38.104L13.85 34.66C13.9681 34.6026 14.0603 34.5028 14.1081 34.3805C14.1559 34.2581 14.1559 34.1223 14.108 34C13.2566 32.1058 12.8164 30.0527 12.8164 27.976C12.8164 25.8993 13.2566 23.8461 14.108 21.952C14.1491 21.8327 14.1456 21.7025 14.0982 21.5856C14.0508 21.4687 13.9626 21.3729 13.85 21.316L8.81597 18.4C8.689 18.3436 8.54521 18.3384 8.41447 18.3853C8.28373 18.4322 8.17611 18.5277 8.11397 18.652C8.04797 18.784 7.98197 18.97 7.92197 19.102C7.84107 19.2851 7.71008 19.4416 7.5441 19.5534C7.37812 19.6653 7.1839 19.728 6.98385 19.7342C6.78379 19.7405 6.58603 19.6901 6.41337 19.5889C6.2407 19.4876 6.10017 19.3396 6.00797 19.162C5.96325 19.0691 5.88877 18.9938 5.79635 18.9482C5.70394 18.9025 5.5989 18.8891 5.49797 18.91C4.4634 19.0838 3.40091 18.8753 2.50883 18.3232C1.61674 17.7712 0.956011 16.9134 0.649966 15.91C0.493558 15.3426 0.458134 14.7487 0.545993 14.1668C0.633851 13.5848 0.84303 13.0279 1.15997 12.532C1.70431 11.7543 2.49606 11.1839 3.40611 10.9139C4.31617 10.6439 5.29086 10.6901 6.17127 11.0451C7.05168 11.4 7.78588 12.0428 8.25418 12.8685C8.72247 13.6942 8.89723 14.6542 8.74997 15.592C8.73059 15.6935 8.7454 15.7987 8.79207 15.8909C8.83875 15.9832 8.91466 16.0574 9.00797 16.102L14.936 19.546C14.9897 19.578 15.0494 19.5984 15.1115 19.606C15.1735 19.6136 15.2364 19.6082 15.2963 19.5902C15.3561 19.5721 15.4115 19.5418 15.459 19.5011C15.5065 19.4604 15.5449 19.4103 15.572 19.354C16.7962 17.6894 18.3524 16.2968 20.1421 15.2641C21.9318 14.2314 23.9162 13.581 25.97 13.354C26.0372 13.3548 26.1038 13.3421 26.1661 13.3168C26.2283 13.2915 26.2849 13.2539 26.3324 13.2064C26.3799 13.1589 26.4174 13.1023 26.4428 13.0401C26.4681 12.9779 26.4808 12.9112 26.48 12.844V9.54398C26.4765 9.43654 26.4366 9.33349 26.3668 9.25172C26.297 9.16995 26.2015 9.11433 26.096 9.09398C25.2898 8.79558 24.5947 8.25703 24.1043 7.55102C23.614 6.84502 23.3521 6.00556 23.354 5.14598C23.3328 4.58865 23.4242 4.03276 23.6229 3.5116C23.8215 2.99044 24.1233 2.51472 24.5101 2.11291C24.8969 1.71111 25.3608 1.39147 25.874 1.17314C26.3872 0.954817 26.9392 0.842285 27.497 0.842285C28.0547 0.842285 28.6067 0.954817 29.1199 1.17314C29.6332 1.39147 30.0971 1.71111 30.4839 2.11291C30.8707 2.51472 31.1724 2.99044 31.3711 3.5116C31.5697 4.03276 31.6612 4.58865 31.64 5.14598C31.6418 6.00556 31.3799 6.84502 30.8896 7.55102C30.3992 8.25703 29.7041 8.79558 28.898 9.09398C28.793 9.11452 28.6983 9.17037 28.6295 9.25225C28.5607 9.33412 28.5221 9.43707 28.52 9.54398V12.856C28.5192 12.9232 28.5318 12.9899 28.5571 13.0521C28.5825 13.1143 28.62 13.1709 28.6675 13.2184C28.7151 13.2659 28.7716 13.3035 28.8338 13.3288C28.8961 13.3541 28.9628 13.3668 29.03 13.366C31.0827 13.5938 33.0659 14.2446 34.8546 15.2773C36.6432 16.3099 38.1984 17.7021 39.422 19.366C39.449 19.4223 39.4875 19.4724 39.5349 19.5131C39.5824 19.5538 39.6378 19.5841 39.6976 19.6021C39.7575 19.6202 39.8204 19.6256 39.8825 19.618C39.9445 19.6104 40.0043 19.59 40.058 19.558L45.992 16.114C46.0848 16.0693 46.1601 15.9948 46.2058 15.9024C46.2514 15.8099 46.2649 15.7049 46.244 15.604C46.1388 14.99 46.1613 14.3609 46.31 13.756C46.5131 12.9778 46.9376 12.2753 47.532 11.7335C48.1263 11.1918 48.865 10.834 49.6586 10.7035C50.4522 10.5731 51.2666 10.6756 52.0031 10.9986C52.7396 11.3216 53.3666 11.8512 53.8082 12.5234C54.2498 13.1955 54.487 13.9813 54.491 14.7855C54.4951 15.5897 54.2658 16.3779 53.831 17.0544C53.3962 17.731 52.7746 18.2669 52.0413 18.5973C51.3081 18.9278 50.4948 19.0384 49.7 18.916C49.5805 18.9096 49.4616 18.9359 49.3559 18.9919C49.2502 19.0479 49.1618 19.1316 49.1 19.234C49.0364 19.4306 48.9153 19.6037 48.7523 19.7307C48.5893 19.8578 48.3919 19.9329 48.1857 19.9465C47.9795 19.9601 47.774 19.9114 47.5957 19.8069C47.4175 19.7023 47.2747 19.5466 47.186 19.36C47.12 19.108 46.928 18.916 46.868 18.658C46.7953 18.5268 46.6762 18.4275 46.5341 18.3798C46.3919 18.332 46.2371 18.3392 46.1 18.4L41.144 21.34C41.0259 21.3973 40.9341 21.4975 40.8873 21.6201C40.8405 21.7427 40.8422 21.8785 40.892 22C41.7404 23.8949 42.1789 25.9478 42.1789 28.024C42.1789 30.1002 41.7404 32.153 40.892 34.048C40.8491 34.1665 40.851 34.2966 40.8974 34.4137C40.9438 34.5309 41.0315 34.627 41.144 34.684L47.012 38.128C47.1159 38.1654 47.2267 38.1794 47.3367 38.1691C47.4466 38.1587 47.5529 38.1242 47.648 38.068C48.0843 37.6245 48.6379 37.3144 49.244 37.174C49.7715 37.0306 50.3221 36.9928 50.8643 37.0628C51.4065 37.1327 51.9295 37.3091 52.4034 37.5817C52.8772 37.8543 53.2926 38.2178 53.6256 38.6513C53.9586 39.0848 54.2027 39.5799 54.344 40.108C54.4888 40.6277 54.5294 41.1709 54.4635 41.7063C54.3976 42.2418 54.2265 42.7589 53.96 43.228C53.3964 44.1915 52.483 44.9006 51.41 45.208C50.4834 45.3889 49.5235 45.277 48.6634 44.8878C47.8033 44.4986 47.0857 43.8514 46.61 43.036C46.358 42.658 45.974 42.718 45.656 43.036C44.888 44.122 43.166 42.784 44.06 41.698C44.5144 41.2114 44.9166 40.6785 45.26 40.108C45.3007 40.0524 45.3291 39.9887 45.343 39.9213C45.357 39.8538 45.3563 39.7841 45.3409 39.7169C45.3255 39.6497 45.2959 39.5867 45.254 39.532C45.212 39.4773 45.1588 39.4323 45.098 39.4L40.058 36.466C39.9547 36.4063 39.8333 36.3862 39.7163 36.4094C39.5993 36.4326 39.4947 36.4975 39.422 36.592C38.211 38.2738 36.6602 39.6823 34.8699 40.7263C33.0797 41.7702 31.09 42.4263 29.03 42.652C28.9628 42.6512 28.8961 42.6638 28.8338 42.6892C28.7716 42.7145 28.7151 42.752 28.6675 42.7996C28.62 42.8471 28.5825 42.9036 28.5571 42.9659C28.5318 43.0281 28.5192 43.0948 28.52 43.162V46.474C28.5221 46.5809 28.5607 46.6838 28.6295 46.7657C28.6983 46.8476 28.793 46.9034 28.898 46.924C29.8404 47.2825 30.6292 47.9568 31.13 48.832C31.1518 48.8888 31.1847 48.9407 31.2269 48.9846C31.2691 49.0285 31.3196 49.0635 31.3756 49.0875C31.4315 49.1116 31.4916 49.1242 31.5525 49.1246C31.6134 49.125 31.6737 49.1132 31.73 49.09C32.0097 49.0779 32.2873 49.0356 32.558 48.964C32.8162 48.9066 33.0866 48.9517 33.3121 49.0899C33.5377 49.228 33.7007 49.4484 33.7669 49.7045C33.8331 49.9606 33.7972 50.2324 33.6668 50.4625C33.5364 50.6927 33.3217 50.8631 33.068 50.938C32.7364 51.0529 32.3949 51.1373 32.048 51.19C31.9416 51.1948 31.8399 51.2353 31.7594 51.305C31.6788 51.3746 31.6241 51.4694 31.604 51.574C31.4397 52.5401 30.9362 53.4159 30.1839 54.044C29.4316 54.672 28.4799 55.011 27.5 55C26.525 54.9894 25.5841 54.64 24.8386 54.0116C24.0931 53.3832 23.5894 52.5151 23.414 51.556C23.354 51.364 23.228 51.172 23.036 51.172C22.5805 51.1002 22.1313 50.9939 21.692 50.854C21.4302 50.7855 21.2063 50.6159 21.0696 50.3825C20.9329 50.149 20.8945 49.8707 20.963 49.609C21.0314 49.3472 21.201 49.1233 21.4345 48.9866C21.668 48.8499 21.9462 48.8115 22.208 48.88C22.5753 48.9287 22.937 49.0131 23.288 49.132C23.4091 49.1534 23.5339 49.1338 23.6426 49.0762C23.7514 49.0185 23.8377 48.9263 23.888 48.814C24.3887 47.9388 25.1776 47.2645 26.12 46.906C26.2255 46.8856 26.321 46.83 26.3908 46.7482C26.4606 46.6665 26.5005 46.5634 26.504 46.456V43.144C26.5048 43.0768 26.4921 43.0101 26.4668 42.9479C26.4414 42.8856 26.4039 42.8291 26.3564 42.7816C26.3089 42.734 26.2523 42.6965 26.1901 42.6712C26.1278 42.6458 26.0612 42.6332 25.994 42.634C23.9328 42.4091 21.942 41.7534 20.1507 40.7094C18.3594 39.6654 16.8076 38.2565 15.596 36.574C15.5232 36.4795 15.4186 36.4146 15.3017 36.3914C15.1847 36.3682 15.0632 36.3883 14.96 36.448L9.89597 39.4C9.83282 39.4288 9.77679 39.4712 9.73182 39.5241C9.68685 39.577 9.65405 39.6391 9.63574 39.7061C9.61742 39.773 9.61404 39.8432 9.62583 39.9116C9.63762 39.98 9.66429 40.045 9.70397 40.102C10.028 40.612 10.406 41.056 10.724 41.5C10.8162 41.6004 10.8877 41.7181 10.9344 41.8462C10.9811 41.9743 11.0021 42.1103 10.9963 42.2465C10.9904 42.3827 10.9578 42.5165 10.9003 42.6401C10.8427 42.7637 10.7614 42.8748 10.661 42.967C10.5605 43.0592 10.4429 43.1307 10.3148 43.1774C10.1867 43.2241 10.0506 43.2452 9.91442 43.2393C9.77819 43.2335 9.64446 43.2008 9.52084 43.1433C9.39723 43.0858 9.28615 43.0044 9.19397 42.904C9.13672 42.8455 9.0664 42.8015 8.98881 42.7756C8.91122 42.7497 8.82857 42.7426 8.74769 42.7549C8.66681 42.7672 8.59002 42.7986 8.52365 42.8464C8.45728 42.8942 8.40323 42.9571 8.36597 43.03C7.92138 43.8743 7.208 44.5462 6.33866 44.9396C5.46933 45.333 4.49366 45.4253 3.56597 45.202C2.50059 44.9147 1.59295 44.2161 1.04272 43.2596C0.49249 42.3032 0.344736 41.1673 0.631966 40.102C0.919195 39.0366 1.61788 38.129 2.57431 37.5787C3.53075 37.0285 4.66659 36.8807 5.73197 37.168L5.74997 37.15ZM36.35 19.552C35.5449 19.9792 34.6877 20.2999 33.8 20.506C33.6646 20.5414 33.5486 20.6284 33.4768 20.7485C33.405 20.8686 33.3831 21.012 33.416 21.148C33.827 22.8839 34.0622 24.6569 34.118 26.44C34.1172 26.5072 34.1298 26.5739 34.1551 26.6361C34.1805 26.6983 34.218 26.7549 34.2655 26.8024C34.3131 26.8499 34.3696 26.8874 34.4318 26.9128C34.4941 26.9381 34.5608 26.9508 34.628 26.95H39.5C39.5762 26.9547 39.6526 26.9415 39.7229 26.9116C39.7932 26.8817 39.8556 26.8358 39.905 26.7775C39.9545 26.7193 39.9898 26.6504 40.008 26.5762C40.0262 26.5019 40.0269 26.4245 40.01 26.35C39.6964 23.8698 38.6521 21.5389 37.01 19.654C36.9272 19.5743 36.8232 19.52 36.7104 19.4977C36.5977 19.4753 36.4809 19.4859 36.374 19.528L36.35 19.552ZM30.8 21.016C28.5979 21.2629 26.3765 21.285 24.17 21.082C24.0409 21.066 23.9103 21.0957 23.8007 21.1658C23.6912 21.2359 23.6095 21.3421 23.57 21.466C23.218 23.1031 23.0052 24.767 22.934 26.44C22.868 26.692 23.126 26.95 23.444 26.95H31.514C31.6587 26.9516 31.7991 26.9009 31.9093 26.8072C32.0196 26.7135 32.0923 26.583 32.114 26.44C31.9884 24.7452 31.7459 23.0612 31.388 21.4C31.3474 21.2767 31.2656 21.1712 31.1563 21.1013C31.047 21.0313 30.9169 21.0012 30.788 21.016H30.8ZM21.11 20.638C20.1872 20.4657 19.2873 20.1879 18.428 19.81C18.3258 19.7463 18.2032 19.7238 18.0851 19.7472C17.9669 19.7706 17.8621 19.8381 17.792 19.936C16.2508 21.7632 15.2769 24.0009 14.99 26.374C14.9717 26.4486 14.9714 26.5265 14.9891 26.6013C15.0068 26.6761 15.042 26.7457 15.0917 26.8042C15.1415 26.8628 15.2045 26.9087 15.2754 26.9382C15.3464 26.9677 15.4233 26.98 15.5 26.974H20.342C20.4092 26.9748 20.4758 26.9621 20.5381 26.9368C20.6003 26.9115 20.6569 26.8739 20.7044 26.8264C20.7519 26.7789 20.7894 26.7223 20.8148 26.6601C20.8401 26.5979 20.8528 26.5312 20.852 26.464C20.9237 24.719 21.1404 22.983 21.5 21.274C21.5227 21.207 21.5305 21.1358 21.5228 21.0655C21.5152 20.9951 21.4923 20.9273 21.4557 20.8668C21.4192 20.8062 21.3698 20.7543 21.3111 20.7148C21.2524 20.6753 21.1858 20.6491 21.116 20.638H21.11ZM20.672 18.4C21.056 18.46 21.44 18.592 21.824 18.652C21.884 18.6751 21.9484 18.6851 22.0126 18.6812C22.0769 18.6774 22.1395 18.6598 22.1964 18.6296C22.2533 18.5995 22.303 18.5575 22.3423 18.5065C22.3815 18.4555 22.4094 18.3967 22.424 18.334C22.556 17.95 22.748 17.572 22.874 17.254C22.931 17.1631 22.9568 17.0561 22.9474 16.9493C22.938 16.8424 22.8939 16.7416 22.8219 16.6621C22.7499 16.5826 22.6538 16.5288 22.5484 16.5089C22.443 16.489 22.334 16.5042 22.238 16.552C21.6636 16.8082 21.1082 17.105 20.576 17.44C20.4878 17.4929 20.4171 17.5705 20.3724 17.6631C20.3277 17.7557 20.311 17.8593 20.3244 17.9613C20.3378 18.0632 20.3806 18.159 20.4477 18.237C20.5148 18.3149 20.6031 18.3716 20.702 18.4H20.672ZM25.1 19.108C26.6999 19.1774 28.3025 19.1553 29.9 19.042C29.9814 19.0248 30.0584 18.9908 30.126 18.9423C30.1936 18.8938 30.2503 18.8317 30.2927 18.76C30.335 18.6883 30.3619 18.6087 30.3718 18.526C30.3817 18.4434 30.3742 18.3596 30.35 18.28C28.55 14.386 26.33 14.452 24.608 18.34C24.5829 18.4229 24.5761 18.5104 24.588 18.5962C24.5999 18.6821 24.6303 18.7643 24.6771 18.8373C24.7238 18.9103 24.7858 18.9723 24.8588 19.019C24.9318 19.0657 25.0141 19.0961 25.1 19.108ZM33.2 18.508C33.518 18.442 33.836 18.316 34.154 18.256C34.2528 18.2276 34.3411 18.1709 34.4082 18.093C34.4753 18.015 34.5181 17.9192 34.5315 17.8173C34.5449 17.7153 34.5282 17.6117 34.4835 17.5191C34.4388 17.4265 34.3681 17.3489 34.28 17.296C33.836 17.044 33.326 16.786 32.816 16.534C32.7199 16.4929 32.6134 16.4828 32.5113 16.5048C32.4092 16.5269 32.3165 16.5802 32.246 16.6573C32.1755 16.7344 32.1307 16.8315 32.1178 16.9352C32.1049 17.0388 32.1245 17.144 32.174 17.236L32.558 18.19C32.6116 18.3091 32.7049 18.406 32.822 18.464C32.9391 18.522 33.0727 18.5375 33.2 18.508ZM34.13 29.56C34.0695 31.3229 33.8343 33.0755 33.428 34.792C33.3953 34.9272 33.4173 35.0698 33.4892 35.1889C33.5611 35.308 33.6771 35.3939 33.812 35.428C34.7176 35.6165 35.5963 35.9168 36.428 36.322C36.5312 36.3837 36.6539 36.4043 36.7717 36.3799C36.8895 36.3554 36.9938 36.2877 37.064 36.19C38.6831 34.3489 39.706 32.0603 39.998 29.626C40.0149 29.5515 40.0142 29.474 39.996 29.3998C39.9778 29.3256 39.9425 29.2566 39.893 29.1984C39.8436 29.1402 39.7812 29.0943 39.7109 29.0644C39.6406 29.0344 39.5642 29.0213 39.488 29.026H34.64C34.5728 29.0252 34.5061 29.0378 34.4438 29.0632C34.3816 29.0885 34.3251 29.126 34.2775 29.1736C34.23 29.2211 34.1925 29.2776 34.1671 29.3399C34.1418 29.4021 34.1292 29.4688 34.13 29.536V29.56ZM32.6 37.72C32.474 38.044 32.282 38.422 32.15 38.74C32.1005 38.832 32.0809 38.9371 32.0938 39.0408C32.1067 39.1445 32.1515 39.2415 32.222 39.3186C32.2925 39.3957 32.3852 39.449 32.4873 39.4711C32.5894 39.4932 32.6959 39.483 32.792 39.442C33.3281 39.2174 33.8407 38.94 34.322 38.614C34.4082 38.5604 34.4772 38.483 34.5207 38.3912C34.5641 38.2994 34.5801 38.197 34.5668 38.0963C34.5535 37.9956 34.5115 37.9009 34.4457 37.8235C34.3799 37.7461 34.2932 37.6893 34.196 37.66C33.938 37.594 33.596 37.468 33.302 37.402C33.1667 37.3513 33.0169 37.3564 32.8853 37.416C32.7537 37.4756 32.6511 37.5849 32.6 37.72ZM22.844 38.74C22.718 38.422 22.526 38.044 22.394 37.66C22.3516 37.5417 22.2665 37.4436 22.1556 37.3848C22.0446 37.3259 21.9156 37.3107 21.794 37.342C21.4215 37.4084 21.0574 37.515 20.708 37.66C20.6114 37.6802 20.5234 37.7298 20.456 37.8019C20.3886 37.8739 20.345 37.965 20.3312 38.0628C20.3175 38.1605 20.3341 38.2601 20.379 38.348C20.4239 38.4359 20.4947 38.5078 20.582 38.554C21.0914 38.8888 21.6249 39.1856 22.178 39.442C22.274 39.4898 22.383 39.5049 22.4884 39.485C22.5938 39.4652 22.6899 39.4114 22.7619 39.3319C22.8339 39.2524 22.878 39.1515 22.8874 39.0447C22.8968 38.9378 22.871 38.8308 22.814 38.74H22.844ZM21.566 34.792C21.1596 33.0755 20.9244 31.3229 20.864 29.56C20.8648 29.4928 20.8521 29.4261 20.8268 29.3639C20.8014 29.3016 20.7639 29.2451 20.7164 29.1976C20.6689 29.15 20.6123 29.1125 20.5501 29.0872C20.4878 29.0618 20.4212 29.0492 20.354 29.05H15.5C15.4233 29.044 15.3464 29.0562 15.2754 29.0858C15.2045 29.1153 15.1415 29.1612 15.0917 29.2197C15.042 29.2783 15.0068 29.3478 14.9891 29.4226C14.9714 29.4974 14.9717 29.5753 14.99 29.65C15.306 32.0479 16.3177 34.3007 17.9 36.13C17.971 36.2267 18.0758 36.2933 18.1935 36.3166C18.3112 36.3399 18.4334 36.3183 18.536 36.256C19.3804 35.8826 20.2557 35.5835 21.152 35.362C21.2227 35.3568 21.2914 35.3365 21.3535 35.3023C21.4156 35.2681 21.4696 35.2209 21.5117 35.1639C21.5539 35.107 21.5833 35.0415 21.5978 34.9722C21.6123 34.9028 21.6117 34.8311 21.596 34.762L21.566 34.792ZM22.97 29.56C23.0412 31.233 23.254 32.8969 23.606 34.534C23.6455 34.6579 23.7272 34.7641 23.8367 34.8342C23.9463 34.9043 24.0769 34.9339 24.206 34.918C26.4102 34.693 28.6317 34.693 30.836 34.918C30.9006 34.933 30.9676 34.9349 31.033 34.9236C31.0984 34.9123 31.1609 34.888 31.2168 34.8523C31.2727 34.8165 31.3209 34.7699 31.3585 34.7153C31.3962 34.6606 31.4225 34.599 31.436 34.534C31.7864 32.8945 32.021 31.2324 32.138 29.56C32.1163 29.4169 32.0436 29.2865 31.9333 29.1928C31.8231 29.0991 31.6827 29.0483 31.538 29.05H23.48C23.162 29.05 22.88 29.308 22.97 29.56ZM24.626 37.66C26.426 41.548 28.58 41.614 30.368 37.66C30.4025 37.5831 30.417 37.4986 30.41 37.4146C30.4031 37.3306 30.3749 37.2497 30.3281 37.1795C30.2813 37.1094 30.2175 37.0523 30.1426 37.0135C30.0677 36.9747 29.9842 36.9556 29.9 36.958C28.3041 36.8122 26.6993 36.7901 25.1 36.892C25.0178 36.9091 24.9402 36.9432 24.8721 36.9921C24.804 37.041 24.7469 37.1037 24.7045 37.1761C24.6621 37.2484 24.6353 37.3289 24.6259 37.4122C24.6165 37.4956 24.6247 37.58 24.65 37.66H24.626ZM16.7 46.648C16.1 46.264 15.614 45.946 15.038 45.562C13.892 44.734 12.746 46.522 13.838 47.284C14.48 47.668 15.038 48.052 15.686 48.436C15.9247 48.572 16.2076 48.6077 16.4726 48.5351C16.7376 48.4625 16.9629 48.2877 17.099 48.049C17.235 47.8103 17.2707 47.5273 17.1981 47.2623C17.1255 46.9973 16.9507 46.772 16.712 46.636L16.7 46.648ZM5.02997 35.248C5.1159 35.5129 5.30356 35.7329 5.55167 35.8595C5.79978 35.9861 6.08801 36.0089 6.35297 35.923C6.61792 35.837 6.83788 35.6494 6.96447 35.4013C7.09106 35.1532 7.1139 34.8649 7.02797 34.6C6.83597 33.964 6.64397 33.322 6.51797 32.686C6.26597 31.408 4.21997 31.732 4.47797 33.07C4.60744 33.8097 4.80839 34.5351 5.07797 35.236L5.02997 35.248ZM3.96797 26.632C3.95126 26.9025 4.0427 27.1686 4.22217 27.3717C4.40164 27.5748 4.65444 27.6983 4.92497 27.715C5.19549 27.7317 5.46157 27.6402 5.66467 27.4608C5.86777 27.2813 5.99126 27.0285 6.00797 26.758C6.07397 26.122 6.13397 25.48 6.19997 24.778C6.22085 24.644 6.21514 24.5073 6.18317 24.3755C6.1512 24.2438 6.0936 24.1196 6.01364 24.0102C5.85218 23.7891 5.60949 23.6411 5.33897 23.599C5.20502 23.5781 5.06827 23.5838 4.93653 23.6158C4.80478 23.6477 4.68063 23.7053 4.57115 23.7853C4.35004 23.9468 4.20214 24.1895 4.15997 24.46C4.03642 25.1775 3.9722 25.9039 3.96797 26.632ZM10.982 11.2C9.96197 12.16 11.492 13.6 12.386 12.67C12.896 12.16 13.406 11.776 13.916 11.326C14.1268 11.1485 14.2585 10.8946 14.2822 10.6201C14.3058 10.3455 14.2194 10.0728 14.042 9.86198C13.8645 9.65113 13.6106 9.5194 13.3361 9.49577C13.0615 9.47214 12.7888 9.55855 12.578 9.73598C11.9993 10.1705 11.4647 10.6609 10.982 11.2ZM18.122 6.35798C17.8689 6.46778 17.6699 6.67359 17.5686 6.93014C17.4674 7.18669 17.4722 7.47296 17.582 7.72598C17.6918 7.97899 17.8976 8.17803 18.1541 8.2793C18.4107 8.38057 18.6969 8.37578 18.95 8.26598C19.5533 7.99502 20.1724 7.76059 20.804 7.56398C20.9354 7.52335 21.0575 7.457 21.1631 7.36877C21.2687 7.28053 21.3557 7.17219 21.419 7.05003C21.4823 6.92788 21.5208 6.79435 21.532 6.65721C21.5433 6.52007 21.5272 6.38206 21.4846 6.25121C21.4421 6.12036 21.3739 5.99927 21.2841 5.895C21.1944 5.79072 21.0847 5.70533 20.9617 5.6438C20.8386 5.58228 20.7045 5.54583 20.5672 5.53659C20.4299 5.52735 20.2922 5.5455 20.162 5.58998C19.4683 5.80796 18.7872 6.06436 18.122 6.35798ZM35.084 5.65598C34.8278 5.58413 34.5539 5.61223 34.3176 5.73459C34.0813 5.85696 33.9003 6.06446 33.8111 6.31516C33.722 6.56585 33.7313 6.84105 33.8373 7.08512C33.9433 7.32919 34.1379 7.52393 34.382 7.62998H34.448C35.063 7.82342 35.6644 8.05794 36.248 8.33198H36.308C36.4321 8.40572 36.5705 8.45211 36.714 8.46805C36.8575 8.48398 37.0027 8.4691 37.14 8.42438C37.2772 8.37967 37.4034 8.30616 37.5099 8.20878C37.6165 8.11139 37.7011 7.99237 37.7579 7.85968C37.8148 7.72698 37.8427 7.58368 37.8397 7.43934C37.8367 7.29501 37.803 7.15297 37.7407 7.02273C37.6784 6.8925 37.589 6.77706 37.4785 6.68415C37.368 6.59124 37.239 6.52299 37.1 6.48398V6.39998C36.404 6.14798 35.762 5.88998 35.06 5.63798L35.084 5.65598ZM42.608 9.92798C41.654 9.03398 40.25 10.564 41.27 11.458V11.518C41.7886 11.9098 42.2798 12.3368 42.74 12.796C42.8322 12.8921 42.9424 12.9691 43.0643 13.0227C43.1863 13.0762 43.3176 13.1052 43.4508 13.108C43.5839 13.1108 43.7163 13.0873 43.8404 13.0389C43.9645 12.9905 44.0778 12.9182 44.174 12.826C44.2701 12.7338 44.3471 12.6236 44.4007 12.5016C44.4542 12.3797 44.4832 12.2484 44.486 12.1152C44.4887 11.982 44.4653 11.8496 44.4169 11.7255C44.3685 11.6014 44.2961 11.4881 44.204 11.392C43.7212 10.8529 43.1866 10.3625 42.608 9.92798ZM50.834 24.718C50.7918 24.4475 50.6439 24.2048 50.4228 24.0433C50.2017 23.8818 49.9255 23.8148 49.655 23.857C49.3844 23.8991 49.1418 24.0471 48.9803 24.2682C48.8188 24.4893 48.7518 24.7655 48.794 25.036C48.8938 25.69 48.9579 26.349 48.986 27.01C49.0122 27.276 49.1383 27.5222 49.339 27.6988C49.5396 27.8755 49.7997 27.9695 50.0669 27.9619C50.3341 27.9543 50.5885 27.8456 50.7788 27.6578C50.969 27.47 51.0809 27.2171 51.092 26.95V26.884C51.026 26.182 50.966 25.48 50.9 24.778L50.834 24.718ZM50.456 33.4C50.4895 33.27 50.497 33.1346 50.4782 33.0017C50.4594 32.8688 50.4146 32.7409 50.3463 32.6253C50.2781 32.5096 50.1877 32.4086 50.0804 32.3279C49.9731 32.2472 49.851 32.1885 49.721 32.155C49.591 32.1215 49.4556 32.1139 49.3227 32.1328C49.1898 32.1516 49.0618 32.1964 48.9462 32.2646C48.8306 32.3329 48.7296 32.4232 48.6489 32.5305C48.5682 32.6378 48.5094 32.76 48.476 32.89C48.284 33.526 48.158 34.162 47.906 34.804C47.456 36.142 49.496 36.712 49.88 35.506C50.1384 34.822 50.3391 34.1175 50.48 33.4H50.456ZM40.892 47.416C41.0146 47.3447 41.1214 47.2491 41.2057 47.135C41.29 47.0209 41.35 46.8907 41.382 46.7525C41.414 46.6143 41.4173 46.471 41.3918 46.3314C41.3663 46.1919 41.3124 46.0591 41.2335 45.9412C41.1546 45.8232 41.0524 45.7227 40.9332 45.6459C40.8139 45.569 40.6802 45.5174 40.5402 45.4942C40.4003 45.4711 40.2571 45.4769 40.1194 45.5112C39.9818 45.5456 39.8526 45.6078 39.74 45.694C39.23 46.072 38.594 46.456 38.084 46.774C37.9658 46.8366 37.8611 46.9219 37.7759 47.025C37.6906 47.1281 37.6266 47.247 37.5873 47.3749C37.548 47.5027 37.5343 47.6371 37.5469 47.7703C37.5596 47.9034 37.5983 48.0328 37.661 48.151C37.7236 48.2692 37.8089 48.3739 37.912 48.4591C38.0151 48.5443 38.134 48.6084 38.2619 48.6477C38.3897 48.6869 38.5241 48.7006 38.6572 48.688C38.7904 48.6754 38.9198 48.6366 39.038 48.574C39.6898 48.2496 40.3104 47.866 40.892 47.428V47.416ZM27.5 48.754C26.9434 48.7571 26.4105 48.9792 26.0164 49.3722C25.6223 49.7651 25.3987 50.2974 25.394 50.854C25.434 51.3835 25.6727 51.8784 26.0621 52.2394C26.4515 52.6005 26.9629 52.8011 27.494 52.8011C28.025 52.8011 28.5365 52.6005 28.9259 52.2394C29.3153 51.8784 29.5539 51.3835 29.594 50.854C29.5893 50.2985 29.3665 49.7671 28.9737 49.3742C28.5809 48.9814 28.0495 48.7587 27.494 48.754H27.5ZM27.5 3.10598C27.2274 3.10041 26.9565 3.1489 26.7027 3.24863C26.449 3.34836 26.2176 3.49736 26.0218 3.68703C25.826 3.87671 25.6697 4.10329 25.5619 4.3537C25.4542 4.60411 25.3971 4.87338 25.394 5.14598C25.434 5.67551 25.6727 6.17036 26.0621 6.53143C26.4515 6.8925 26.9629 7.09312 27.494 7.09312C28.025 7.09312 28.5365 6.8925 28.9259 6.53143C29.3153 6.17036 29.5539 5.67551 29.594 5.14598C29.5908 4.87441 29.5341 4.60613 29.4271 4.35652C29.3201 4.10691 29.1649 3.88086 28.9704 3.69135C28.7759 3.50184 28.5458 3.35258 28.2935 3.25213C28.0412 3.15168 27.7715 3.10201 27.5 3.10598ZM49.814 39.106C49.5489 39.1748 49.3002 39.2957 49.0825 39.4619C48.8648 39.628 48.6824 39.8359 48.5461 40.0733C48.4098 40.3108 48.3222 40.5731 48.2885 40.8449C48.2548 41.1166 48.2757 41.3924 48.35 41.656C48.409 41.9272 48.5238 42.1832 48.687 42.4077C48.8502 42.6322 49.0583 42.8204 49.298 42.9603C49.5378 43.1002 49.8039 43.1887 50.0797 43.2203C50.3555 43.252 50.6348 43.226 50.9 43.144C51.429 42.9964 51.8792 42.6474 52.154 42.1719C52.4287 41.6963 52.5063 41.132 52.37 40.6C52.207 40.0783 51.8534 39.6373 51.3796 39.3648C50.9059 39.0923 50.3468 39.0085 49.814 39.13V39.106ZM4.09997 12.796C3.57827 12.9564 3.13695 13.309 2.86519 13.7823C2.59343 14.2557 2.5115 14.8145 2.63597 15.346C2.70401 15.6115 2.82455 15.8606 2.99048 16.0788C3.1564 16.2969 3.36434 16.4796 3.60203 16.6161C3.83972 16.7525 4.10233 16.84 4.37438 16.8733C4.64642 16.9066 4.92238 16.8851 5.18597 16.81C5.45502 16.7481 5.70839 16.6313 5.93019 16.467C6.15199 16.3026 6.33743 16.0941 6.47488 15.8547C6.61234 15.6153 6.69884 15.3501 6.72897 15.0756C6.7591 14.8012 6.7322 14.5235 6.64997 14.26C6.50252 13.7299 6.15233 13.2791 5.67515 13.0051C5.19796 12.7312 4.63211 12.656 4.09997 12.796Z" fill="#EA6F37"/>
</svg>
