<svg width="59" height="60" viewBox="0 0 59 60" fill="none" xmlns="http://www.w3.org/2000/svg">
<path d="M19.1125 36.923C19.2337 36.9735 19.3637 36.9997 19.495 37.0001C19.6264 37.0004 19.7565 36.9749 19.8779 36.9249C19.9994 36.875 20.1098 36.8016 20.2029 36.7089C20.296 36.6163 20.3699 36.5062 20.4205 36.385L21.8305 33H27.1645L28.5745 36.385C28.7871 36.8948 29.3728 37.1356 29.8825 36.9231C30.3923 36.7105 30.6331 36.1248 30.4206 35.6151L25.4206 23.6151C25.3446 23.4329 25.2164 23.2773 25.0522 23.1679C24.8879 23.0584 24.695 23 24.4976 23C24.3002 23 24.1073 23.0584 23.943 23.1679C23.7788 23.2773 23.6506 23.4329 23.5747 23.6151L18.5747 35.6151C18.5241 35.7363 18.4979 35.8662 18.4976 35.9976C18.4972 36.1289 18.5228 36.259 18.5727 36.3804C18.6226 36.5019 18.696 36.6123 18.7886 36.7054C18.8813 36.7985 18.9913 36.8724 19.1125 36.923ZM24.4975 26.6L26.3305 31H22.6645L24.4975 26.6Z" fill="#EA6F37"/>
<path fill-rule="evenodd" clip-rule="evenodd" d="M32.4973 35C31.945 35 31.4973 35.4477 31.4973 36C31.4973 36.5524 31.945 37.0001 32.4973 37.0001H38.4973C39.0497 37.0001 39.4974 36.5524 39.4974 36C39.4974 35.4477 39.0497 35 38.4973 35H36.4973V25H38.4973C39.0497 25 39.4974 24.5523 39.4974 24C39.4974 23.4477 39.0497 23 38.4973 23H32.4973C31.945 23 31.4973 23.4477 31.4973 24C31.4973 24.5523 31.945 25 32.4973 25H34.4974V35H32.4973Z" fill="#EA6F37"/>
<path d="M0.497455 44C0.497455 46.2092 2.28835 48 4.49743 48C4.99847 47.9981 5.4946 47.9011 5.95942 47.714C8.3234 49.524 11.6594 50.468 15.7594 50.468C16.3774 50.468 17.0195 50.439 17.6704 50.397C20.5744 56.331 24.7644 60 29.4974 60C34.2304 60 38.4204 56.331 41.3254 50.4C41.9774 50.442 42.6184 50.4709 43.2363 50.4709C47.3363 50.4709 50.6724 49.5269 53.0363 47.7169C53.5011 47.9028 53.9968 47.9989 54.4973 48C56.2629 47.995 57.8163 46.833 58.3198 45.1408C58.8233 43.4486 58.1579 41.6264 56.6823 40.657C56.8223 37.437 55.5773 33.7829 53.0433 30C55.5773 26.218 56.8224 22.5639 56.6823 19.3429C58.4111 18.2273 59.0084 15.9801 58.0617 14.1533C57.115 12.3265 54.9346 11.5188 53.0263 12.2879C50.3093 10.2089 46.2973 9.28793 41.3263 9.61192C38.4245 3.67303 34.2325 0 29.4975 0C24.7624 0 20.5704 3.67303 17.6655 9.61202C12.6965 9.29 8.68646 10.212 5.96542 12.288C4.05829 11.5251 1.88347 12.3339 0.938364 14.1577C-0.00673711 15.9815 0.586424 18.2248 2.30942 19.343C2.17143 22.5621 3.4174 26.216 5.95145 30C3.4174 33.783 2.17143 37.437 2.31247 40.6571C1.75577 41.0194 1.29824 41.5148 0.981321 42.0985C0.664398 42.6822 0.498088 43.3358 0.497455 44ZM2.49749 44C2.49749 42.8955 3.39289 42 4.49753 42C5.60216 42 6.49756 42.8954 6.49756 44C6.49756 45.1046 5.60216 46 4.49753 46C3.96708 46 3.45837 45.7893 3.08329 45.4142C2.70821 45.0392 2.49749 44.5304 2.49749 44ZM18.9065 11.72C21.5687 12.0388 24.1915 12.6275 26.7345 13.4771C24.9446 14.2759 23.1966 15.1657 21.4975 16.1431C19.7925 17.1272 18.1408 18.201 16.5495 19.3601C17.0738 16.74 17.8635 14.1801 18.9065 11.72ZM42.4445 19.3601C40.8536 18.2008 39.2023 17.127 37.4974 16.1431C35.8008 15.1669 34.0559 14.2771 32.2694 13.4771C34.8098 12.628 37.43 12.0392 40.0894 11.72C41.1318 14.1802 41.9208 16.74 42.4445 19.3601ZM40.0885 48.2801C37.4263 47.9613 34.8035 47.3726 32.2605 46.523C34.0504 45.7242 35.7984 44.8344 37.4974 43.857C39.2025 42.8729 40.8542 41.7991 42.4455 40.64C41.9212 43.2601 41.1315 45.82 40.0885 48.2801ZM36.4975 17.876C38.7526 19.1738 40.9085 20.6368 42.9475 22.253C43.3152 24.819 43.499 27.4079 43.4974 30C43.4993 32.5922 43.3159 35.1811 42.9485 37.7471C40.9091 39.3632 38.7529 40.8262 36.4975 42.1241C34.2493 43.4244 31.9099 44.56 29.4975 45.522C27.085 44.5595 24.7455 43.4232 22.4975 42.122C20.2424 40.8242 18.0865 39.3612 16.0475 37.745C15.3155 32.6063 15.3155 27.3897 16.0475 22.251C18.0866 20.6356 20.2425 19.1732 22.4975 17.8759C24.7475 16.5746 27.089 15.4383 29.5035 14.4759C31.9139 15.4388 34.2514 16.5751 36.4975 17.876ZM45.1975 24.143C47.192 25.9088 49.0035 27.871 50.6045 30C49.0057 32.1287 47.1966 34.0909 45.2046 35.8571C45.4009 33.9109 45.4987 31.9561 45.4976 30C45.4981 28.044 45.3997 26.0891 45.2026 24.143H45.1975ZM13.7975 35.8571C11.8024 34.0918 9.99089 32.1295 8.39042 30C9.98921 27.8714 11.7983 25.9091 13.7904 24.143C13.397 28.0378 13.397 31.9623 13.7904 35.8571H13.7975ZM21.5034 43.857C23.2001 44.8332 24.945 45.723 26.7315 46.523C24.191 47.3721 21.5709 47.9608 18.9114 48.2801C17.8688 45.82 17.0794 43.2601 16.5554 40.64C18.1446 41.7991 19.7943 42.8729 21.4974 43.857H21.5034ZM29.4975 58.0001C25.7415 58.0001 22.3285 55.0211 19.8115 50.1891C23.1257 49.7192 26.3754 48.8724 29.4975 47.6651C32.6207 48.8729 35.8718 49.7197 39.1875 50.1891C36.6655 55.0211 33.2535 58.0001 29.4975 58.0001ZM54.4975 46C53.393 46 52.4975 45.1046 52.4975 44C52.4975 42.8954 53.3929 42 54.4975 42C55.6022 42 56.4976 42.8954 56.4976 44C56.4976 45.1046 55.6021 46 54.4975 46ZM54.7075 40.021C54.6365 40.021 54.5695 40 54.4974 40C52.2883 40 50.4975 41.7909 50.4975 44C50.5012 44.8943 50.8075 45.7609 51.3665 46.459C49.1885 47.896 46.0094 48.579 42.2015 48.436C43.4413 45.3386 44.3201 42.1086 44.8205 38.81C47.4069 36.7273 49.7477 34.3567 51.7975 31.744C53.4859 34.1953 54.4904 37.0524 54.7075 40.021ZM56.4975 16C56.4975 17.1045 55.6021 18 54.4974 18C53.3928 18 52.4974 17.1046 52.4974 16C52.4974 14.8954 53.3928 14 54.4974 14C55.6021 14 56.4975 14.8955 56.4975 16ZM51.3665 13.541C50.8076 14.2391 50.5013 15.1058 50.4975 16C50.4975 18.2092 52.2884 20 54.4974 20C54.5695 20 54.6364 19.9829 54.7075 19.979C54.4907 22.9477 53.4862 25.8048 51.7975 28.256C49.7474 25.6433 47.4063 23.2727 44.8195 21.19C44.3184 17.8912 43.4386 14.6612 42.1974 11.564C46.0086 11.42 49.1895 12.1 51.3665 13.541ZM29.4975 2.00004C33.2535 2.00004 36.6665 4.97903 39.1835 9.81102C35.871 10.2812 32.623 11.1281 29.5025 12.335C26.3792 11.1272 23.1282 10.2804 19.8125 9.81102C22.3295 4.97903 25.7415 2.00004 29.4975 2.00004ZM4.49743 14.0001C5.60197 14.0001 6.49746 14.8955 6.49746 16.0001C6.49746 17.1047 5.60206 18.0001 4.49743 18.0001C3.39279 18.0001 2.49739 17.1047 2.49739 16.0001C2.49739 14.8955 3.39289 14.0001 4.49743 14.0001ZM4.2875 19.979C4.35846 19.979 4.42548 20 4.49753 20C6.7067 20 8.4975 18.2091 8.4975 16C8.49377 15.1057 8.18747 14.2391 7.62848 13.541C9.80547 12.104 12.9844 11.422 16.7935 11.564C15.5537 14.6615 14.6749 17.8914 14.1745 21.19C11.5883 23.2726 9.24755 25.6429 7.19751 28.255C5.50848 25.8044 4.50393 22.9474 4.2875 19.979ZM7.19751 31.745C9.24851 34.3569 11.5899 36.7271 14.1765 38.81C14.6774 42.109 15.5569 45.3393 16.7975 48.437C12.9915 48.5809 9.81049 47.896 7.63251 46.459C8.19002 45.7604 8.49487 44.8938 8.4975 44C8.4975 41.7908 6.7066 40 4.49753 40C4.42548 40 4.35856 40.018 4.2875 40.021C4.50429 37.0526 5.50881 34.1958 7.19751 31.745Z" fill="#EA6F37"/>
</svg>
