<svg width="39" height="54" viewBox="0 0 39 54" fill="none" xmlns="http://www.w3.org/2000/svg">
<path d="M37.9959 20.9278C37.8731 20.9161 37.7491 20.9289 37.6313 20.9654C37.5134 21.002 37.404 21.0616 37.3094 21.1408C37.2147 21.22 37.1368 21.3172 37.08 21.4267C37.0233 21.5363 36.9888 21.656 36.9787 21.779C36.7765 24.0877 36.1144 26.3325 35.0313 28.3813C33.9482 30.4302 32.466 32.2415 30.6721 33.7087C28.4209 35.4954 26.6573 37.8217 25.545 40.4718H21.3281C21.0794 40.4718 20.841 40.5706 20.6652 40.7464C20.4893 40.9222 20.3906 41.1607 20.3906 41.4093C20.3906 41.658 20.4893 41.8964 20.6652 42.0722C20.841 42.2481 21.0794 42.3468 21.3281 42.3468H24.8803C24.5954 43.3553 24.4262 44.3929 24.3759 45.4396C24.3596 45.7599 24.2195 46.0612 23.985 46.2799C23.7505 46.4986 23.4402 46.6175 23.1196 46.6115L15.9478 46.6209C15.6195 46.6201 15.304 46.4935 15.0663 46.2671C14.8286 46.0408 14.6867 45.7319 14.6699 45.404C14.5986 44.3643 14.3976 43.3377 14.0718 42.3478H17.5781C17.8267 42.3478 18.0652 42.249 18.241 42.0732C18.4168 41.8974 18.5156 41.6589 18.5156 41.4103C18.5156 41.1616 18.4168 40.9232 18.241 40.7474C18.0652 40.5715 17.8267 40.4728 17.5781 40.4728H13.3387C12.1831 37.8904 10.4804 35.5899 8.34839 33.7303C-3.92724 23.5912 2.62026 3.57183 18.5474 2.65215C23.0203 2.40938 27.4168 3.88578 30.8365 6.779C34.2563 9.67223 36.4406 13.7634 36.9421 18.2146C36.9695 18.4619 37.0939 18.6882 37.2881 18.8437C37.4823 18.9992 37.7303 19.0712 37.9776 19.0439C38.2249 19.0165 38.4512 18.8921 38.6067 18.6979C38.7622 18.5037 38.8342 18.2557 38.8068 18.0084C35.6324 -5.05223 2.99057 -4.77098 0.154637 18.3065C-0.146519 21.4774 0.33462 24.6737 1.55589 27.6154C2.77716 30.5571 4.70128 33.1544 7.15964 35.1796C9.21242 36.9905 10.8235 39.2472 11.8696 41.7768C13.1324 44.0634 12.0787 47.115 14.714 48.2343C14.6839 48.8806 14.7849 49.5262 15.0111 50.1323C15.2372 50.7384 15.5838 51.2924 16.0299 51.761C16.4759 52.2295 17.0123 52.6028 17.6066 52.8584C18.2009 53.114 18.8408 53.2466 19.4877 53.2482C20.1346 53.2498 20.7752 53.1203 21.3707 52.8676C21.9662 52.6149 22.5044 52.2443 22.9528 51.7779C23.4012 51.3116 23.7504 50.7593 23.9795 50.1543C24.2087 49.5493 24.3129 48.9041 24.2859 48.2578C27.0196 47.1984 25.9059 44.0109 27.044 41.7375C28.0256 39.1486 29.691 36.8744 31.8628 35.1571C33.8495 33.5323 35.4909 31.5262 36.6902 29.2571C37.8896 26.988 38.6226 24.5018 38.8462 21.945C38.8683 21.6973 38.7912 21.451 38.6317 21.2603C38.4722 21.0695 38.2435 20.9499 37.9959 20.9278ZM19.4999 51.375C18.7315 51.3738 17.9945 51.0702 17.4482 50.5298C16.9018 49.9895 16.5902 49.2558 16.5806 48.4875H22.4184C22.4088 49.2556 22.0972 49.9892 21.5511 50.5295C21.005 51.0698 20.2682 51.3735 19.4999 51.375Z" fill="#EA6F37"/>
<path d="M20.3906 34.2357C20.6336 34.2875 20.8872 34.2411 21.0961 34.1065C21.3049 33.972 21.452 33.7602 21.5053 33.5175C22.0397 31.05 21.8343 29.1994 20.8931 28.0182C20.6126 27.6578 20.2558 27.3642 19.8483 27.1583C19.4407 26.9524 18.9926 26.8395 18.5362 26.8275C16.4653 27.0122 14.325 26.8932 13.199 24.9853C11.5378 22.0885 14.2396 19.9857 15.9459 19.8694C16.1922 19.8409 16.4172 19.716 16.5716 19.5221C16.7261 19.3281 16.7974 19.0808 16.77 18.8344C16.7401 18.5882 16.6148 18.3635 16.4212 18.2086C16.2275 18.0536 15.9808 17.9808 15.734 18.0057C14.61 18.0432 10.7465 19.4757 10.829 23.2547C7.62184 22.4157 5.86215 18.1228 7.81684 15.3657C8.16275 14.8384 8.61523 14.3894 9.14516 14.0476C9.67509 13.7057 10.2707 13.4787 10.8937 13.381C10.8248 14.0531 10.8324 14.7309 10.9162 15.4013C10.9581 15.6435 11.0935 15.8596 11.2932 16.003C11.4929 16.1464 11.741 16.2056 11.9839 16.1679C12.2269 16.1301 12.4453 15.9985 12.5921 15.8012C12.7388 15.604 12.8023 15.357 12.7687 15.1135C12.7453 14.9522 12.2146 11.1619 15.2221 9.1744C15.9843 8.43847 17.9737 8.63815 17.7121 7.24034C17.6511 6.9994 17.497 6.79248 17.2837 6.66491C17.0704 6.53733 16.8152 6.49951 16.574 6.55972C15.3527 6.86472 14.2281 7.47318 13.3046 8.32867C12.3811 9.18415 11.6886 10.259 11.2912 11.4535C6.94496 11.536 3.51559 16.6847 5.87527 21.2982C6.38369 22.3429 7.13786 23.2488 8.07313 23.9381C9.0084 24.6275 10.0969 25.0798 11.2453 25.2563C11.3444 25.4971 11.4606 25.7305 11.5931 25.9547C13.0228 28.4297 15.9178 29.0072 18.5981 28.6988C18.9276 28.7457 19.2253 28.9205 19.4268 29.1853C19.9837 29.8857 20.0709 31.2825 19.6725 33.12C19.6463 33.2404 19.644 33.3647 19.6659 33.4859C19.6878 33.6071 19.7333 33.7228 19.7999 33.8264C19.8665 33.93 19.9529 34.0195 20.0541 34.0897C20.1552 34.1599 20.2702 34.2095 20.3906 34.2357ZM26.4375 28.2094C27.939 28.4699 29.4842 28.1865 30.7955 27.41C32.1068 26.6334 33.0982 25.4147 33.5915 23.9728C34.5975 20.8866 32.744 18.3591 31.3162 17.1732C31.335 15.9966 31.439 13.5244 29.8078 13.9013C29.6917 13.9423 29.5848 14.0059 29.4933 14.0883C29.4017 14.1708 29.3274 14.2704 29.2744 14.3816C29.2215 14.4928 29.191 14.6134 29.1847 14.7364C29.1784 14.8594 29.1965 14.9824 29.2378 15.0985C29.6615 16.2966 29.5031 17.911 28.7671 19.8957C28.686 20.1275 28.6991 20.382 28.8037 20.6043C28.9082 20.8266 29.0959 20.999 29.3262 21.0843C29.5565 21.1697 29.8112 21.1613 30.0354 21.0608C30.2596 20.9604 30.4354 20.776 30.525 20.5472C30.6703 20.1553 30.7893 19.7757 30.8953 19.4035C31.384 19.9299 31.7256 20.5756 31.8859 21.2758C32.0461 21.9759 32.0194 22.7059 31.8084 23.3925C30.0656 27.9732 23.3822 27.4285 23.5547 21.6272C23.5393 21.384 23.4297 21.1563 23.2493 20.9924C23.0688 20.8285 22.8317 20.7414 22.5881 20.7494C22.3445 20.7575 22.1136 20.8601 21.9443 21.0355C21.7751 21.2109 21.6808 21.4453 21.6815 21.6891C21.8447 26.6185 24.7312 27.8897 26.4375 28.2094Z" fill="#EA6F37"/>
<path d="M15.8662 12.375C15.8662 12.543 15.9115 12.708 15.9973 12.8525C16.0831 12.997 16.2062 13.1157 16.3537 13.1962L19.7325 15.045L21.5812 18.4237C21.6618 18.5714 21.7807 18.6947 21.9253 18.7806C22.07 18.8665 22.2352 18.9118 22.4034 18.9118C22.5716 18.9118 22.7368 18.8665 22.8815 18.7806C23.0261 18.6947 23.145 18.5714 23.2256 18.4237L25.0734 15.045L28.4521 13.1962C28.5998 13.1157 28.7231 12.9968 28.809 12.8521C28.8949 12.7074 28.9402 12.5423 28.9402 12.374C28.9402 12.2058 28.8949 12.0407 28.809 11.896C28.7231 11.7513 28.5998 11.6324 28.4521 11.5519L25.0734 9.70404L23.2256 6.32529C23.1376 6.18687 23.0162 6.07288 22.8725 5.99391C22.7287 5.91494 22.5674 5.87354 22.4034 5.87354C22.2394 5.87354 22.0781 5.91494 21.9343 5.99391C21.7906 6.07288 21.6691 6.18687 21.5812 6.32529L19.7325 9.70404L16.3546 11.5519C16.2068 11.6323 16.0834 11.7511 15.9974 11.8958C15.9115 12.0405 15.8661 12.2067 15.8662 12.375ZM20.8725 11.2172C21.2456 11.1159 22.1475 9.10123 22.4034 8.72904L23.5612 10.845C23.6625 11.2172 25.6781 12.119 26.0484 12.374L23.9334 13.5319C23.5621 13.6331 22.6584 15.6506 22.4034 16.02C22.14 15.6356 21.2484 13.6359 20.8734 13.5319L18.7575 12.374L20.8725 11.2172Z" fill="#EA6F37"/>
</svg>
