<svg width="49" height="56" viewBox="0 0 49 56" fill="none" xmlns="http://www.w3.org/2000/svg">
<path fill-rule="evenodd" clip-rule="evenodd" d="M41.1126 5.67936C41.6327 6.20052 41.2549 7.0836 40.5298 7.0836C40.3205 7.0836 40.1098 7.0032 39.949 6.84168L36.7668 3.66036L36.7671 15.2824C36.7674 31.5348 23.4937 44.8103 7.24153 44.8108L3.50425 44.8109C3.28609 44.8108 3.0769 44.724 2.92264 44.5698C2.76838 44.4155 2.68166 44.2063 2.68153 43.9882C2.68148 43.8801 2.70273 43.7731 2.74406 43.6733C2.78539 43.5734 2.84599 43.4827 2.92239 43.4063C2.9988 43.3299 3.08951 43.2693 3.18935 43.228C3.28919 43.1866 3.3962 43.1654 3.50425 43.1654L7.24153 43.1653C22.6152 43.165 35.1221 30.6569 35.1216 15.2825L35.1214 3.66048L31.9408 6.84192C31.8644 6.91839 31.7737 6.97905 31.6738 7.02043C31.574 7.06182 31.467 7.08312 31.3589 7.08312C31.2508 7.08312 31.1438 7.06182 31.044 7.02043C30.9441 6.97905 30.8534 6.91839 30.777 6.84192C30.4554 6.52176 30.4554 6.0012 30.777 5.6796L35.3626 1.09596C35.6823 0.771363 36.2073 0.772083 36.5263 1.09596L41.1126 5.67936ZM47.2692 53.5013L43.1536 53.5014L43.1525 10.7071L47.2681 10.707L47.2692 53.5013ZM48.0909 9.06228L42.3298 9.0624C42.1118 9.0624 41.9027 9.14901 41.7485 9.30316C41.5944 9.45732 41.5078 9.6664 41.5078 9.8844L41.5089 54.3234C41.5089 54.7774 41.8769 55.1461 42.3309 55.1461L48.0919 55.146C48.3101 55.1459 48.5193 55.0592 48.6735 54.9049C48.8278 54.7506 48.9145 54.5414 48.9147 54.3233L48.9136 9.88416C48.9136 9.4302 48.5448 9.06228 48.0909 9.06228ZM34.6125 53.5016L34.6121 39.7081L30.4965 39.7082L30.4968 53.5018L34.6125 53.5016ZM35.4348 38.0627L29.6745 38.0628C29.4563 38.0628 29.247 38.1495 29.0927 38.3038C28.9385 38.4581 28.8518 38.6673 28.8517 38.8855L28.8521 54.3238C28.8521 54.542 28.9388 54.7512 29.0931 54.9055C29.2474 55.0598 29.4566 55.1465 29.6748 55.1465L35.4352 55.1464C35.6533 55.1462 35.8625 55.0595 36.0168 54.9053C36.171 54.751 36.2578 54.5418 36.2579 54.3236L36.2575 38.8854C36.2574 38.6672 36.1707 38.4581 36.0164 38.3038C35.8622 38.1495 35.653 38.0628 35.4348 38.0627ZM21.9557 53.502L17.8408 53.5021L17.8407 47.7937L21.9556 47.7936L21.9557 53.502ZM22.7783 46.148L17.0179 46.1482C16.7998 46.1483 16.5906 46.235 16.4363 46.3893C16.2821 46.5435 16.1953 46.7527 16.1952 46.9709L16.1953 54.324C16.1955 54.5422 16.2822 54.7514 16.4364 54.9056C16.5907 55.0599 16.7999 55.1466 17.0181 55.1467L22.7784 55.1466C22.9966 55.1466 23.2058 55.0599 23.3601 54.9056C23.5144 54.7513 23.6011 54.5421 23.6011 54.3239L23.6009 46.9708C23.6009 46.8627 23.5796 46.7557 23.5383 46.6559C23.497 46.5561 23.4364 46.4654 23.36 46.389C23.2836 46.3126 23.1929 46.252 23.0931 46.2107C22.9933 46.1693 22.8863 46.148 22.7783 46.148ZM9.29965 53.5022L5.18401 53.5024L5.18389 49.3867L9.29953 49.3866L9.29965 53.5022ZM10.1223 47.7412L4.36117 47.7413C4.14301 47.7414 3.93382 47.8281 3.77956 47.9824C3.6253 48.1367 3.53858 48.3458 3.53845 48.564L3.53857 54.3244C3.5387 54.5425 3.62542 54.7517 3.77968 54.906C3.93394 55.0602 4.14313 55.147 4.36129 55.1471L10.1224 55.147C10.5763 55.147 10.9444 54.7782 10.9444 54.3242L10.9443 48.5639C10.9443 48.3458 10.8577 48.1366 10.7036 47.9824C10.5494 47.8281 10.3403 47.7413 10.1223 47.7412ZM1.73029 25.1219C1.73029 26.6675 2.98765 27.9234 4.53181 27.9234C4.87189 27.9234 5.21065 27.8172 5.53201 28.184C5.90929 28.6147 5.63317 28.9756 5.63317 29.5828C5.63317 31.8049 8.10337 33.1267 9.94717 31.9399C10.4741 31.6007 11.1829 31.9564 11.2141 32.5928C11.3667 35.7013 14.5455 37.6633 17.3683 36.5149L17.368 22.8787L12.5994 22.8788C12.2917 24.4834 11.1065 25.8384 9.50617 26.3167C9.42942 26.3394 9.34982 26.3511 9.26977 26.3514C8.33545 26.3514 8.12821 25.0123 9.03541 24.7406C10.2109 24.3884 11.0322 23.285 11.0322 22.0561C11.0322 20.8279 10.2108 19.7232 9.03529 19.3724C8.60005 19.2421 8.35189 18.7834 8.48221 18.3481C8.61253 17.9136 9.07069 17.6654 9.50593 17.7964C11.1063 18.2738 12.2916 19.6289 12.5993 21.2334L17.3679 21.2333L17.3675 7.5972C14.5464 6.44976 11.3661 8.41068 11.2135 11.5204C11.1827 12.1501 10.4766 12.5124 9.94657 12.1712C9.49538 11.8816 8.97038 11.7278 8.43421 11.7283C6.61813 11.7283 5.28517 13.436 5.71177 15.1925C5.84521 15.7416 5.39077 16.2658 4.82665 16.2044C3.18649 16.0259 1.72993 17.3234 1.72993 18.9894C1.72993 19.957 2.21929 20.8434 3.03853 21.3612C3.55153 21.6847 3.54805 22.4312 3.03853 22.7522C2.21953 23.2692 1.73017 24.1558 1.73029 25.1219ZM19.0135 26.6956C21.2218 26.3053 22.9039 24.3736 22.9038 22.0558C22.9038 19.7381 21.2215 17.807 19.0133 17.4162L19.0135 26.6956ZM19.8941 10.7992H19.0132L19.0133 15.7528C22.1316 16.1581 24.5493 18.8286 24.5493 22.0556C24.5494 25.2827 22.1319 27.9534 19.0135 28.3582L19.0137 33.3125H19.8946L20.7443 30.6988C20.7826 30.5812 20.8468 30.4738 20.9323 30.3844C21.0177 30.2951 21.1221 30.226 21.2377 30.1824C22.1324 29.8465 22.9654 29.365 23.703 28.7573C23.7983 28.6783 23.9102 28.622 24.0304 28.5925C24.1506 28.5631 24.2759 28.5614 24.3969 28.5875L27.0889 29.1599L28.7917 26.2079L26.9515 24.1639C26.8688 24.0721 26.8078 23.9629 26.773 23.8444C26.7382 23.7259 26.7306 23.601 26.7505 23.4791C26.9079 22.5363 26.9078 21.5739 26.7504 20.6311C26.7303 20.5092 26.738 20.3844 26.7728 20.2658C26.8076 20.1473 26.8686 20.0381 26.9514 19.9464L28.7915 17.9017L27.0885 14.9512L24.3958 15.5238C24.2747 15.5494 24.1494 15.5475 24.0292 15.5181C23.909 15.4887 23.7969 15.4326 23.7013 15.354C22.9642 14.7464 22.1317 14.2649 21.2374 13.9291C21.1214 13.8859 21.0168 13.817 20.9313 13.7276C20.8458 13.6382 20.7817 13.5305 20.7438 13.4128L19.8941 10.7992ZM3.98773 29.5826C3.98785 32.5855 6.90913 34.7053 9.73849 33.834C10.6909 37.7276 15.0826 39.6433 18.5812 37.7596C18.712 37.6891 18.8214 37.5844 18.8975 37.4568C18.9737 37.3291 19.0138 37.1832 19.0137 37.0345V34.9579H20.298C20.5284 34.9585 20.753 34.8858 20.9394 34.7504C21.1258 34.6149 21.2643 34.4238 21.3349 34.2044L22.1895 31.5742C22.989 31.2386 23.7429 30.8031 24.433 30.278L27.1403 30.8526C27.3656 30.9009 27.6004 30.8764 27.8108 30.7827C28.0213 30.689 28.1967 30.531 28.3116 30.3313L30.4186 26.6821C30.5341 26.4829 30.5834 26.2521 30.5593 26.023C30.5353 25.7939 30.4392 25.5784 30.2848 25.4075L28.4321 23.3504C28.5401 22.491 28.5402 21.619 28.432 20.7602L30.2847 18.7038C30.439 18.5329 30.5351 18.3173 30.5592 18.0883C30.5832 17.8592 30.5339 17.6284 30.4183 17.4292L28.3113 13.78C28.1966 13.58 28.0214 13.4216 27.8108 13.3278C27.6002 13.234 27.3653 13.2096 27.1399 13.2581L24.432 13.8341C23.7424 13.3089 22.989 12.8732 22.1898 12.5374L21.3345 9.90708C21.2637 9.68785 21.1252 9.49676 20.9388 9.36136C20.7524 9.22596 20.5279 9.15325 20.2975 9.15372H19.0132V7.07652C19.0132 6.77364 18.8476 6.49572 18.5807 6.3522C15.0791 4.46832 10.6899 6.38556 9.73813 10.2781C6.91333 9.41304 3.98749 11.4936 3.98749 14.5769C1.79173 14.8459 0.0853292 16.7221 0.0854492 18.9893C0.0854492 20.1523 0.530409 21.2405 1.30957 22.0562C0.530529 22.872 0.0855696 23.9603 0.0856896 25.1219C0.0856896 27.3904 1.79221 29.2673 3.98797 29.5355C3.98773 29.5508 3.98773 29.5668 3.98773 29.5826Z" fill="#EA6F37"/>
</svg>
