<svg width="22" height="14" viewBox="0 0 22 14" fill="none" xmlns="http://www.w3.org/2000/svg">
<g clip-path="url(#clip0_146_1568)">
<path d="M11.3909 14C11.0558 14 10.8325 13.8667 10.6091 13.6L5.91877 8C5.47207 7.46667 5.47207 6.66667 5.91877 6.13333C6.36547 5.6 7.03552 5.6 7.48222 6.13333L11.3909 10.8L20.1015 0.4C20.5482 -0.133333 21.2183 -0.133333 21.665 0.4C22.1117 0.933333 22.1117 1.73333 21.665 2.26667L12.1726 13.6C12.0609 13.8667 11.7259 14 11.3909 14Z" fill="#F8D80E"/>
<path d="M5.80711 14C5.47208 14 5.24873 13.8667 5.02538 13.6L0.335025 8C-0.111675 7.46667 -0.111675 6.66667 0.335025 6.13333C0.781726 5.6 1.45178 5.6 1.89848 6.13333L6.58883 11.7333C7.03553 12.2667 7.03553 13.0667 6.58883 13.6C6.47716 13.8667 6.14213 14 5.80711 14ZM11.7259 7.06667C11.3909 7.06667 11.1675 6.93333 10.9442 6.66667C10.4975 6.13333 10.4975 5.33333 10.9442 4.8L14.5178 0.4C14.9645 -0.133333 15.6345 -0.133333 16.0812 0.4C16.5279 0.933333 16.5279 1.73333 16.0812 2.26667L12.5076 6.66667C12.2843 6.93333 12.0609 7.06667 11.7259 7.06667Z" fill="#F8D80E"/>
</g>
<defs>
<clipPath id="clip0_146_1568">
<rect width="22" height="14" fill="white"/>
</clipPath>
</defs>
</svg>
