<svg width="16" height="17" viewBox="0 0 16 17" fill="none" xmlns="http://www.w3.org/2000/svg">
<path d="M5.66671 13.1667H5.33337C2.66671 13.1667 1.33337 12.5 1.33337 9.16671V5.83337C1.33337 3.16671 2.66671 1.83337 5.33337 1.83337H10.6667C13.3334 1.83337 14.6667 3.16671 14.6667 5.83337V9.16671C14.6667 11.8334 13.3334 13.1667 10.6667 13.1667H10.3334C10.1267 13.1667 9.92671 13.2667 9.80004 13.4334L8.80004 14.7667C8.36004 15.3534 7.64004 15.3534 7.20004 14.7667L6.20004 13.4334C6.09337 13.2867 5.84671 13.1667 5.66671 13.1667Z" stroke="black" stroke-width="1.5" stroke-miterlimit="10" stroke-linecap="round" stroke-linejoin="round"/>
<path d="M10.6643 7.83333H10.6703" stroke="black" stroke-width="2" stroke-linecap="round" stroke-linejoin="round"/>
<path d="M7.99703 7.83333H8.00302" stroke="black" stroke-width="2" stroke-linecap="round" stroke-linejoin="round"/>
<path d="M5.32967 7.83333H5.33566" stroke="black" stroke-width="2" stroke-linecap="round" stroke-linejoin="round"/>
</svg>
