<svg width="22" height="22" viewBox="0 0 22 22" fill="none" xmlns="http://www.w3.org/2000/svg">
<path d="M18.6933 7.36241L17.0919 5.97176C15.9381 4.96978 15.4859 4.43076 14.8611 4.62132C14.082 4.85892 14.3385 6.35812 14.3385 6.86426C13.1272 6.86426 11.8679 6.7711 10.674 6.96521C6.73248 7.606 5.5 10.4103 5.5 13.4315C6.61556 12.7477 7.73001 11.9851 9.07079 11.6682C10.7445 11.2726 12.6137 11.4613 14.3385 11.4613C14.3385 11.9675 14.082 13.4667 14.8611 13.7043C15.5691 13.9202 15.9381 13.3558 17.0919 12.3538L18.6933 10.9632C19.6755 10.1102 20.1667 9.68369 20.1667 9.1628C20.1667 8.64192 19.6755 8.21541 18.6933 7.36241Z" fill="#D9D9D9" stroke="#141718" stroke-width="1.5" stroke-linecap="round" stroke-linejoin="round"/>
<path d="M9.68687 2.75C6.14832 2.75636 4.29536 2.84306 3.11118 4.02484C1.83325 5.30018 1.83325 7.35281 1.83325 11.4581C1.83325 15.5633 1.83325 17.616 3.11118 18.8913C4.38911 20.1667 6.4459 20.1667 10.5595 20.1667C14.6731 20.1667 16.7299 20.1667 18.0078 18.8913C18.8976 18.0034 19.1678 16.7386 19.2499 14.6667" stroke="#141718" stroke-width="1.5" stroke-linecap="round" stroke-linejoin="round"/>
</svg>
