<svg width="16" height="17" viewBox="0 0 16 17" fill="none" xmlns="http://www.w3.org/2000/svg">
<mask id="mask0_2_805" style="mask-type:alpha" maskUnits="userSpaceOnUse" x="0" y="0" width="16" height="17">
<rect y="0.713074" width="16" height="16" fill="#D9D9D9"/>
</mask>
<g mask="url(#mask0_2_805)">
<path d="M8.00112 14.7797C7.16961 14.7797 6.38514 14.6218 5.64772 14.3061C4.91028 13.9903 4.26483 13.5558 3.71135 13.0026C3.15786 12.4493 2.72316 11.8042 2.40723 11.0671C2.09131 10.33 1.93335 9.5457 1.93335 8.71419C1.93335 7.87157 2.09124 7.08432 2.40702 6.35246C2.72279 5.62058 3.15729 4.9779 3.71052 4.42442C4.26375 3.87094 4.90891 3.43623 5.646 3.12031C6.38308 2.80439 7.16737 2.64642 7.99888 2.64642C8.84151 2.64642 9.62875 2.80431 10.3606 3.12009C11.0925 3.43587 11.7352 3.87037 12.2886 4.42359C12.8421 4.97682 13.2768 5.61921 13.5928 6.35074C13.9087 7.08226 14.0667 7.86934 14.0667 8.71196C14.0667 9.54347 13.9088 10.3279 13.593 11.0654C13.2772 11.8028 12.8427 12.4482 12.2895 13.0017C11.7363 13.5552 11.0939 13.9899 10.3623 14.3058C9.63081 14.6218 8.84374 14.7797 8.00112 14.7797ZM8 13.9131C9.44444 13.9131 10.6722 13.4075 11.6833 12.3964C12.6944 11.3853 13.2 10.1575 13.2 8.71307C13.2 8.07648 13.0904 7.47417 12.8712 6.90614C12.6519 6.33811 12.3496 5.82546 11.9641 5.36819L4.65512 12.6772C5.11238 13.0669 5.62503 13.3703 6.19307 13.5874C6.7611 13.8045 7.36341 13.9131 8 13.9131ZM4.0359 12.058L11.3449 4.74897C10.8919 4.35496 10.3807 4.05047 9.81127 3.83551C9.24184 3.62055 8.63809 3.51307 8 3.51307C6.55556 3.51307 5.32778 4.01863 4.31667 5.02974C3.30556 6.04085 2.8 7.26863 2.8 8.71307C2.8 9.34966 2.90855 9.95197 3.12565 10.52C3.34274 11.088 3.64616 11.6007 4.0359 12.058Z" fill="white" fill-opacity="0.5"/>
</g>
</svg>
