<svg width="16" height="17" viewBox="0 0 16 17" fill="none" xmlns="http://www.w3.org/2000/svg">
<g clip-path="url(#clip0_2_783)">
<path d="M11.286 3.21922C9.16797 0.18246 5.73341 0.18246 3.61536 3.21922L0.153482 8.18256C-0.0511606 8.47632 -0.0511606 8.94924 0.153482 9.24295L3.61536 14.2063C5.73341 17.2431 9.16797 17.2431 11.286 14.2113C13.4075 11.1795 13.4075 6.25598 11.286 3.21922ZM10.4675 12.7527C8.91216 14.9829 6.38826 14.9829 4.83296 12.7527L2.28517 9.10357C2.1351 8.88949 2.1351 8.54101 2.28517 8.32199L4.82957 4.67786C6.38483 2.44758 8.90877 2.44758 10.464 4.67786C12.0228 6.90814 12.0228 10.5224 10.4675 12.7527Z" fill="#4FC4F9"/>
<path d="M15.8222 8.18748L14.2976 5.9622C14.2055 5.82776 14.052 5.95224 14.0827 6.13642C14.3454 7.83402 14.3454 9.60632 14.0827 11.3039C14.0555 11.4881 14.2089 11.6076 14.2976 11.4781L15.8222 9.25286C16.0234 8.95416 16.0234 8.4812 15.8222 8.18748Z" fill="#4FC4F9"/>
<path d="M7.66714 12.6182C9.14209 12.6182 10.3377 10.873 10.3377 8.72023C10.3377 6.56741 9.14209 4.8222 7.66714 4.8222C6.19223 4.8222 4.99658 6.56741 4.99658 8.72023C4.99658 10.873 6.19223 12.6182 7.66714 12.6182Z" fill="#4FC4F9"/>
</g>
<defs>
<clipPath id="clip0_2_783">
<rect width="16" height="16" fill="white" transform="translate(0 0.713074)"/>
</clipPath>
</defs>
</svg>
