<svg width="16" height="17" viewBox="0 0 16 17" fill="none" xmlns="http://www.w3.org/2000/svg">
<path d="M0 11.2827V6.80267H2.7648V7.42987H0.6912V8.72267H2.5984V9.34987H0.6912V11.2827H0ZM2.82345 11.2827L4.10345 6.80267H5.31945L6.59305 11.2827H5.88265L5.58825 10.2267H3.83465L3.54025 11.2827H2.82345ZM4.00745 9.58667H5.41545L4.76265 7.23147H4.66025L4.00745 9.58667ZM7.2 11.2827V6.80267H7.8912V11.2827H7.2ZM10.3482 11.3723C10.0111 11.3723 9.71247 11.3125 9.4522 11.1931C9.19193 11.0736 8.98713 10.8987 8.8378 10.6683C8.69273 10.4336 8.6202 10.1499 8.6202 9.81707V9.65707H9.305V9.81707C9.305 10.1328 9.39887 10.3696 9.5866 10.5275C9.7786 10.6853 10.0325 10.7643 10.3482 10.7643C10.6682 10.7643 10.9093 10.6981 11.0714 10.5659C11.2335 10.4293 11.3146 10.2544 11.3146 10.0411C11.3146 9.90027 11.2762 9.78507 11.1994 9.69547C11.1226 9.60587 11.0138 9.53547 10.873 9.48427C10.7322 9.4288 10.5637 9.3776 10.3674 9.33067L10.1306 9.27307C9.84473 9.2048 9.59513 9.1216 9.3818 9.02347C9.17273 8.92107 9.0106 8.78667 8.8954 8.62027C8.7802 8.45387 8.7226 8.24054 8.7226 7.98027C8.7226 7.71574 8.7866 7.48961 8.9146 7.30187C9.04687 7.11414 9.2282 6.96907 9.4586 6.86667C9.689 6.76427 9.9599 6.71307 10.2714 6.71307C10.5829 6.71307 10.8602 6.76641 11.1034 6.87307C11.3509 6.97974 11.545 7.13761 11.6858 7.34667C11.8266 7.55574 11.897 7.81814 11.897 8.13387V8.36427H11.2122V8.13387C11.2122 7.94187 11.1717 7.78614 11.0906 7.66667C11.0138 7.54721 10.905 7.45974 10.7642 7.40427C10.6234 7.34881 10.4591 7.32107 10.2714 7.32107C9.9983 7.32107 9.785 7.37867 9.6314 7.49387C9.48207 7.60481 9.4074 7.76054 9.4074 7.96107C9.4074 8.0976 9.4394 8.21067 9.5034 8.30027C9.57167 8.3856 9.6698 8.456 9.7978 8.51147C9.9258 8.56694 10.0858 8.616 10.2778 8.65867L10.5146 8.71627C10.8047 8.78027 11.0607 8.86347 11.2826 8.96587C11.5045 9.064 11.6794 9.1984 11.8074 9.36907C11.9354 9.53974 11.9994 9.75947 11.9994 10.0283C11.9994 10.2971 11.9311 10.5317 11.7946 10.7323C11.6623 10.9328 11.4725 11.0907 11.225 11.2059C10.9775 11.3168 10.6853 11.3723 10.3482 11.3723ZM14.2482 11.3723C13.9111 11.3723 13.6125 11.3125 13.3522 11.1931C13.0919 11.0736 12.8871 10.8987 12.7378 10.6683C12.5927 10.4336 12.5202 10.1499 12.5202 9.81707V9.65707H13.205V9.81707C13.205 10.1328 13.2989 10.3696 13.4866 10.5275C13.6786 10.6853 13.9325 10.7643 14.2482 10.7643C14.5682 10.7643 14.8093 10.6981 14.9714 10.5659C15.1335 10.4293 15.2146 10.2544 15.2146 10.0411C15.2146 9.90027 15.1762 9.78507 15.0994 9.69547C15.0226 9.60587 14.9138 9.53547 14.773 9.48427C14.6322 9.4288 14.4637 9.3776 14.2674 9.33067L14.0306 9.27307C13.7447 9.2048 13.4951 9.1216 13.2818 9.02347C13.0727 8.92107 12.9106 8.78667 12.7954 8.62027C12.6802 8.45387 12.6226 8.24054 12.6226 7.98027C12.6226 7.71574 12.6866 7.48961 12.8146 7.30187C12.9469 7.11414 13.1282 6.96907 13.3586 6.86667C13.589 6.76427 13.8599 6.71307 14.1714 6.71307C14.4829 6.71307 14.7602 6.76641 15.0034 6.87307C15.2509 6.97974 15.445 7.13761 15.5858 7.34667C15.7266 7.55574 15.797 7.81814 15.797 8.13387V8.36427H15.1122V8.13387C15.1122 7.94187 15.0717 7.78614 14.9906 7.66667C14.9138 7.54721 14.805 7.45974 14.6642 7.40427C14.5234 7.34881 14.3591 7.32107 14.1714 7.32107C13.8983 7.32107 13.685 7.37867 13.5314 7.49387C13.3821 7.60481 13.3074 7.76054 13.3074 7.96107C13.3074 8.0976 13.3394 8.21067 13.4034 8.30027C13.4717 8.3856 13.5698 8.456 13.6978 8.51147C13.8258 8.56694 13.9858 8.616 14.1778 8.65867L14.4146 8.71627C14.7047 8.78027 14.9607 8.86347 15.1826 8.96587C15.4045 9.064 15.5794 9.1984 15.7074 9.36907C15.8354 9.53974 15.8994 9.75947 15.8994 10.0283C15.8994 10.2971 15.8311 10.5317 15.6946 10.7323C15.5623 10.9328 15.3725 11.0907 15.125 11.2059C14.8775 11.3168 14.5853 11.3723 14.2482 11.3723Z" fill="url(#paint0_linear_2_790)"/>
<defs>
<linearGradient id="paint0_linear_2_790" x1="7.5828" y1="4.38267" x2="7.6828" y2="14.2827" gradientUnits="userSpaceOnUse">
<stop stop-color="#1B77E3"/>
<stop offset="1" stop-color="white"/>
</linearGradient>
</defs>
</svg>
