<svg width="16" height="17" viewBox="0 0 16 17" fill="none" xmlns="http://www.w3.org/2000/svg">
<g clip-path="url(#clip0_2_797)">
<path fill-rule="evenodd" clip-rule="evenodd" d="M12.5806 15.4594L12.2122 6.64004L11.5452 4.31488L15.9979 4.72424V15.3927L13.2779 16.7559L12.5806 15.4594Z" fill="#24386C"/>
<path fill-rule="evenodd" clip-rule="evenodd" d="M15.9976 4.7236L13.2776 6.08781L7.66449 5.01855L1.09444 7.3416L-0.000183105 4.7236L3.9986 2.71834L7.9986 0.713074L11.9975 2.71834L15.9976 4.7236Z" fill="#7589BE"/>
<path fill-rule="evenodd" clip-rule="evenodd" d="M0 4.72363L2.72 6.08784L4.29673 10.1601L9.62049 13.8592L7.99891 16.7552L3.99891 14.7498L0 12.7446V4.72363Z" fill="#B2BFE8"/>
<path fill-rule="evenodd" clip-rule="evenodd" d="M9.8022 11.7194L7.99893 14.028V16.7554L10.5577 15.4733L11.8761 13.7636" fill="#24386C"/>
<path fill-rule="evenodd" clip-rule="evenodd" d="M8.00003 11.3015L5.44016 7.45256L5.99154 6.17688L8.08766 5.29431L10.5577 7.45263L8.00003 11.3015Z" fill="#7589BE"/>
<path fill-rule="evenodd" clip-rule="evenodd" d="M5.44014 7.45221L7.99893 8.73431V11.3006L5.63238 11.3891L4.20087 9.80168L5.44014 7.45221Z" fill="#B2BFE8"/>
<path fill-rule="evenodd" clip-rule="evenodd" d="M7.99893 8.73415L10.5577 7.45215L12.2992 9.97025L10.1918 11.4824L7.99893 11.3006V8.73415Z" fill="#24386C"/>
<path fill-rule="evenodd" clip-rule="evenodd" d="M10.5577 15.4731L13.2777 16.7553V6.08791L10.6377 4.76475L7.9989 3.44159L5.3589 4.76475L2.72011 6.08791V11.3815L5.3589 12.7047L7.9989 14.0279L10.5577 12.7447V15.4731ZM10.5577 10.0173L7.9989 11.3004L5.44011 10.0173V7.45201L7.9989 6.16885L10.5577 7.45201V10.0173Z" fill="#DC244C"/>
</g>
<defs>
<clipPath id="clip0_2_797">
<rect width="16" height="16" fill="white" transform="translate(0 0.713074)"/>
</clipPath>
</defs>
</svg>
