<svg width="16" height="17" viewBox="0 0 16 17" fill="none" xmlns="http://www.w3.org/2000/svg">
<g clip-path="url(#clip0_2_769)">
<path d="M11.8525 7.25787C11.8525 7.25787 12.4012 6.7191 13.0375 6.74159C13.7175 6.76537 14.2163 7.13411 14.3812 7.69787C14.545 8.26034 14.5625 8.47785 14.6862 8.66034C14.81 8.84161 14.9675 8.9716 14.9675 9.07037C14.9675 9.16909 14.85 9.29913 14.6912 9.36412C14.5325 9.42911 14.2575 9.35288 14.2575 9.35288C14.2575 9.35288 14.1875 9.70535 13.9287 9.78661C13.6713 9.86911 13.4362 9.8391 13.4362 9.8391L13.1075 8.56663C13.1075 8.56663 13.3375 8.21787 13.155 7.97411C12.9088 7.64663 12.4725 7.95162 12.4725 7.95162L11.8525 7.25787ZM8.55372 12.4404C8.55372 12.4404 8.45997 13.0679 8.34248 13.2729C8.22499 13.4779 8.17249 13.5191 8.17249 13.5191C8.17249 13.5191 8.16622 14.5516 8.16622 14.8391C8.16622 15.0628 8.22374 15.3904 8.09625 15.4903C7.93751 15.6141 7.31001 15.6191 7.22248 15.4903C7.135 15.3616 7.45751 15.0741 7.46875 14.9854C7.47999 14.8979 7.43372 14.0228 7.4275 13.8529C7.42123 13.6829 7.13249 12.5654 7.13249 12.5654L8.55372 12.4404ZM12.35 13.2791C12.3975 13.3529 12.46 14.1828 12.4713 14.4404C12.4825 14.6979 12.4825 15.1153 12.465 15.1791C12.4475 15.2441 12.06 15.5604 12.2012 15.6778C12.3425 15.7953 13.0875 15.7254 13.1462 15.6191C13.205 15.5141 13.1987 13.3553 13.1987 13.1791C13.1987 13.0441 12.9687 12.4916 12.885 12.3666C12.8038 12.2441 12.3037 13.2054 12.35 13.2791Z" fill="#957155"/>
<path d="M2.57875 2.82537C2.57875 2.82537 2.43 2.58288 2.26625 2.36288C2.0775 2.11037 1.87 1.88787 1.87875 1.80413C1.88875 1.70912 2.04125 1.74288 2.04125 1.74288L2.60375 2.17413L3.06125 2.80787L2.57875 2.82537ZM3.07625 1.38662C3.045 1.51913 3.32125 1.83788 3.53 2.35037C3.615 2.55913 3.68875 3.11538 3.68875 3.11538L4.0225 3.27413C4.0225 3.27413 3.89 2.51788 3.75875 2.17413C3.6275 1.83037 3.16 1.02663 3.07625 1.38662Z" fill="#DB7C60"/>
<path d="M3.02751 2.59694C3.02751 2.59694 2.67501 1.96319 2.39376 1.81444C2.11251 1.66444 1.90126 1.72194 1.92251 1.77444C1.96126 1.86694 2.31001 2.01194 2.47626 2.26694C2.64251 2.52194 2.92001 2.95819 2.92001 2.95819L3.02751 2.59694ZM3.10751 1.33069C3.09626 1.15444 3.60876 1.36569 3.90001 1.76194C4.19126 2.15819 4.26126 2.41319 4.27876 2.86194C4.29626 3.31069 3.95376 3.29319 3.95376 3.26694C3.95376 3.24069 3.92876 2.71319 3.69876 2.11444C3.54251 1.71319 3.11626 1.47069 3.10751 1.33069Z" fill="#FFD3B2"/>
<path d="M2.47377 3.16318C2.47377 3.16318 2.15127 3.35693 1.84002 3.47442C1.58627 3.56943 1.03502 3.75943 1.07877 4.00568C1.09627 4.10443 0.96877 4.22443 1.03002 4.40568C1.08377 4.56568 1.18627 4.57818 1.22377 4.59943C1.28502 4.63442 1.41252 4.88068 1.69877 4.90568C2.02002 4.93317 2.20877 4.81192 2.20877 4.81192L2.96627 5.46315L4.04002 4.44818L4.11627 3.32818L3.34252 3.03442L2.47377 3.16318Z" fill="#FFD3B2"/>
<path d="M1.46123 4.28665C1.46123 4.28665 1.71623 4.1329 1.82248 4.0804C1.92748 4.0279 1.91873 3.81165 1.71748 3.89165C1.51498 3.9704 1.36998 4.0629 1.36998 4.0629C1.36998 4.0629 1.20748 3.9354 1.14998 3.8779C1.09248 3.8204 0.982481 3.9429 1.09248 4.0879C1.20248 4.23415 1.24998 4.2779 1.24998 4.2779C1.24998 4.2779 1.24998 4.37415 1.24498 4.4104C1.23998 4.44665 1.00748 4.25665 1.01123 4.37915C1.01623 4.5029 1.04248 4.56415 1.17873 4.58165C1.31498 4.59915 1.37248 4.6079 1.37248 4.6079C1.37248 4.6079 1.59248 4.6954 1.78998 4.69165C1.98748 4.6879 2.26498 4.4579 2.18123 4.3754C2.09748 4.29165 1.89498 4.4629 1.71498 4.45915C1.53498 4.45415 1.47748 4.4279 1.47748 4.4279L1.46123 4.28665Z" fill="#7B5B52"/>
<path d="M2.89623 3.56931C2.89623 3.56931 3.04123 3.41931 3.19998 3.50806C3.35873 3.59556 3.32373 3.86056 3.15998 3.89931C3.00623 3.93681 2.89123 3.82931 2.89123 3.82931C2.89123 3.82931 2.56998 3.87306 2.58373 3.70556C2.59497 3.56056 2.89623 3.56931 2.89623 3.56931Z" fill="#2B2A32"/>
<path d="M3.56502 2.45685C3.56502 2.45685 2.98377 2.4181 2.61502 2.6656C2.24627 2.91311 2.12252 3.0756 2.18627 3.1881C2.25002 3.3006 2.42127 3.29935 2.63752 3.28185C2.85502 3.26435 3.09502 3.23435 3.32377 3.25311C3.55253 3.27061 3.68752 3.3231 3.77002 3.37061C3.85253 3.4181 3.97502 3.5231 3.97502 3.5231C3.97502 3.5231 3.73502 3.85061 3.54627 4.14435C3.35877 4.4381 3.24752 4.63061 3.14752 4.8606C3.07502 5.02811 2.97752 5.26562 2.97752 5.26562C2.97752 5.26562 2.69002 4.9956 2.62002 4.94936C2.55002 4.90185 2.29752 4.76185 2.29752 4.76185L2.17377 4.8381C2.17377 4.8381 2.15627 5.33684 2.35502 5.89437C2.55377 6.45186 2.85377 6.93312 2.85377 6.93312C2.85377 6.93312 2.79502 7.81935 3.27002 8.64559C3.52002 9.08187 4.06752 9.37935 4.06752 9.37935C4.06752 9.37935 4.03253 9.97186 4.37877 10.3594C4.72501 10.7469 5.01877 10.7469 5.01877 10.7469C5.01877 10.7469 5.05379 11.0106 5.25379 11.4331C5.45877 11.8669 5.71753 11.9956 5.71753 11.9956C5.71753 11.9956 5.64752 12.3706 5.76501 12.9931C5.87126 13.5543 6.18754 13.8431 6.18754 13.8431C6.18754 13.8431 6.22875 15.3506 6.18754 15.4443C6.14629 15.5381 5.80004 15.9081 5.87126 16.0306C5.94127 16.1544 6.25877 16.1656 6.41626 16.1656C6.57379 16.1656 6.83252 16.1131 6.90253 16.0481C6.97254 15.9831 6.99001 14.9744 6.99001 14.7869C6.99001 14.5994 7.03126 13.9131 7.03126 13.9131C7.03126 13.9131 7.46504 13.7194 7.61751 13.3906C7.77003 13.0619 7.75252 12.7981 7.75252 12.7981C7.75252 12.7981 8.27502 12.8631 8.91377 12.6868C9.55377 12.5106 10.1988 11.9306 10.1988 11.9306C10.1988 11.9306 10.5563 12.5706 10.7263 12.8693C10.8963 13.1681 11.2125 13.5906 11.2125 13.5906C11.2125 13.5906 11.2188 15.2981 11.1838 15.3681C11.1488 15.4381 10.7263 15.9306 10.8138 16.0256C10.9013 16.1194 11.1188 16.1306 11.3588 16.1256C11.5988 16.1194 11.845 16.1081 11.8925 15.9668C11.94 15.8256 11.8925 15.5156 11.9038 15.2806C11.915 15.0456 11.9563 13.7731 11.9563 13.7731C11.9563 13.7731 12.6413 13.3906 12.9538 12.5944C13.2125 11.9344 13.2063 11.2456 13.2063 11.2456C13.2063 11.2456 13.4 10.6119 13.435 10.3768C13.47 10.1419 13.54 9.67937 13.265 8.89312C12.99 8.10687 12.3675 7.19811 11.4413 6.81684C10.515 6.4356 9.58127 6.41186 8.77877 6.41809C7.975 6.42436 6.56752 6.60559 6.33877 6.53558C6.11001 6.46562 5.66378 5.81437 5.49379 5.13312C5.32376 4.45311 5.11879 3.71311 4.83126 3.3681C4.54378 3.0231 4.28002 2.91061 4.28002 2.91061C4.28002 2.91061 4.13877 3.33935 3.87502 3.15685C3.66502 3.01186 3.65253 2.8381 3.63502 2.72185C3.61752 2.5981 3.56502 2.45685 3.56502 2.45685Z" fill="#AE957F"/>
<path d="M11.6625 13.3779C11.7763 13.4129 12.1263 13.1966 12.2838 13.0491C12.4775 12.8692 12.5825 12.5566 12.565 12.4504C12.5475 12.3454 12.2888 12.6616 12.2125 12.5504C12.1363 12.4392 12.495 12.1779 12.6225 11.9691C12.7975 11.6842 12.8463 11.4454 12.77 11.3992C12.6938 11.3529 12.4125 11.7342 12.3288 11.6054C12.225 11.4466 12.4125 11.2967 12.6075 11.1254C12.7875 10.9666 12.9862 10.8304 13.08 10.3729C13.1738 9.9154 13.1413 9.24417 12.9775 8.86791C12.8138 8.49291 12.3113 7.70415 11.3738 7.1579C10.435 6.61291 9.00376 6.67665 8.42876 6.69416C7.85375 6.71168 6.43377 6.96417 6.2 6.84664C5.96502 6.72915 5.54253 6.47168 5.27377 5.58541C5.00376 4.69916 5.01626 4.23916 4.73375 3.77291C4.59252 3.53916 4.36753 3.38916 4.36753 3.38916C4.36753 3.38916 4.05376 3.95541 3.84876 4.27166C3.64376 4.58791 3.29126 5.18039 3.17376 6.03168C3.05626 6.88167 3.22251 7.62541 3.29376 7.93542C3.44126 8.58039 4.01876 8.95916 4.01876 8.95916C4.01876 8.95916 4.12376 8.54164 4.15376 8.41416C4.19751 8.22666 4.29501 7.99168 4.42374 8.07414C4.55252 8.15665 4.29876 9.19042 4.39127 9.6904C4.50876 10.3266 5.02128 10.3442 5.02128 10.3442C5.02128 10.3442 5.06876 10.0216 5.185 9.8754C5.30253 9.72915 5.36126 9.72292 5.40753 9.78164C5.45501 9.84041 5.305 10.3166 5.38374 10.7966C5.49877 11.4917 5.96 11.8554 5.99503 11.9317C6.03001 12.0079 5.85877 13.6167 6.75001 13.6304C7.51875 13.6417 7.36 12.7979 7.36 12.7979C7.36 12.7979 7.67127 12.6866 7.73501 12.2404C7.79875 11.7941 7.67001 11.2817 7.60627 11.1141C7.47749 10.7804 7.68878 10.7329 7.7875 10.9679C7.88753 11.2029 7.96 11.4054 8.00502 11.6717C8.04999 11.9442 7.9875 12.2754 8.05752 12.3104C8.1725 12.3679 8.67875 12.3691 9.13626 12.1404C9.59377 11.9117 9.99252 11.4129 9.99252 11.4129C9.99252 11.4129 9.69877 10.6741 9.75252 9.94666C9.80627 9.21918 10.0338 8.79168 10.14 8.87916C10.245 8.96664 10.0925 9.54791 10.205 10.2404C10.3163 10.9329 10.475 11.5842 10.9213 12.3229C11.3688 13.0616 11.5275 13.3379 11.6625 13.3779Z" fill="#F8F9FC"/>
</g>
<defs>
<clipPath id="clip0_2_769">
<rect width="16" height="16" fill="white" transform="translate(0 0.713074)"/>
</clipPath>
</defs>
</svg>
