<svg width="61" height="60" viewBox="0 0 61 60" fill="none" xmlns="http://www.w3.org/2000/svg">
<path d="M55.3257 23.7C55.4683 23.6177 55.5866 23.4994 55.6689 23.3569C55.7512 23.2143 55.7945 23.0527 55.7945 22.8881V15.9375C55.7945 15.7729 55.7512 15.6112 55.6689 15.4687C55.5866 15.3262 55.4683 15.2079 55.3257 15.1256L49.3064 11.6503C49.1639 11.568 49.0022 11.5247 48.8376 11.5247C48.6731 11.5247 48.5114 11.568 48.3689 11.6503L42.8182 14.855L37.457 11.7597V5.35029C37.457 5.18572 37.4137 5.02405 37.3314 4.88153C37.2491 4.73902 37.1308 4.62068 36.9882 4.53841L30.9688 1.0631C30.8263 0.980818 30.6646 0.9375 30.5 0.9375C30.3355 0.9375 30.1738 0.980818 30.0313 1.0631L24.0119 4.53841C23.8694 4.62068 23.751 4.73902 23.6688 4.88153C23.5865 5.02405 23.5432 5.18572 23.5432 5.35029V11.7596L18.1819 14.8549L12.6313 11.6503C12.4888 11.568 12.3271 11.5247 12.1625 11.5247C11.998 11.5247 11.8363 11.568 11.6938 11.6503L5.67432 15.1256C5.53179 15.2079 5.41343 15.3262 5.33114 15.4687C5.24886 15.6112 5.20555 15.7729 5.20557 15.9375V22.8881C5.20555 23.0527 5.24886 23.2143 5.33114 23.3569C5.41343 23.4994 5.53179 23.6177 5.67432 23.7L11.225 26.9047V33.0951L5.67432 36.3C5.53178 36.3822 5.41341 36.5006 5.33113 36.6431C5.24884 36.7856 5.20553 36.9473 5.20557 37.1118V44.0625C5.20555 44.227 5.24886 44.3887 5.33114 44.5312C5.41343 44.6737 5.53179 44.7921 5.67432 44.8744L11.6938 48.3497C11.8387 48.4335 12.0007 48.4753 12.1625 48.4753C12.3244 48.4753 12.4863 48.4335 12.6313 48.3497L18.182 45.1449L23.5432 48.2402V54.6495C23.5432 54.8141 23.5865 54.9758 23.6688 55.1183C23.751 55.2608 23.8694 55.3792 24.0119 55.4614L30.0313 58.9369C30.1762 59.0206 30.3382 59.0625 30.5 59.0625C30.6619 59.0625 30.8238 59.0206 30.9688 58.9369L36.9882 55.4615C37.1308 55.3793 37.2491 55.2609 37.3314 55.1184C37.4137 54.9759 37.457 54.8142 37.457 54.6497V48.2402L42.8181 45.1451L48.3688 48.3498C48.5137 48.4336 48.6757 48.4754 48.8375 48.4754C48.9994 48.4754 49.1613 48.4336 49.3063 48.3498L55.3256 44.8745C55.4681 44.7922 55.5865 44.6739 55.6688 44.5314C55.7511 44.3888 55.7944 44.2272 55.7944 44.0626V37.112C55.7944 36.9474 55.7511 36.7857 55.6688 36.6432C55.5865 36.5007 55.4681 36.3824 55.3256 36.3001L49.775 33.0954V26.9049L55.3257 23.7ZM48.8376 39.5046L44.6932 37.1117L48.8376 34.7189L52.9821 37.1117L48.8376 39.5046ZM36.5195 46.6165L31.4375 43.6826V37.4919L36.9882 34.2872C37.1308 34.2049 37.2491 34.0866 37.3314 33.9441C37.4137 33.8015 37.457 33.6399 37.457 33.4753V27.0658L42.8181 23.9706L47.9 26.9047V33.0951L42.3493 36.2999C42.2068 36.3821 42.0884 36.5005 42.0061 36.643C41.9238 36.7855 41.8805 36.9472 41.8806 37.1117V43.5212L36.5195 46.6165ZM30.5 50.0918L26.3557 47.699L30.5 45.3062L34.6445 47.699L30.5 50.0918ZM19.1195 43.5213V37.1118C19.1195 36.9473 19.0762 36.7856 18.9939 36.6431C18.9116 36.5006 18.7933 36.3822 18.6507 36.3L13.1 33.0952V26.9048L18.182 23.9707L23.5432 27.066V33.4753C23.5432 33.6399 23.5865 33.8015 23.6688 33.944C23.751 34.0866 23.8694 34.2049 24.0119 34.2872L29.5625 37.4919V43.6826L24.4807 46.6166L19.1195 43.5213ZM12.1625 39.5046L8.01807 37.1117L12.1625 34.7189L16.307 37.1117L12.1625 39.5046ZM24.4807 13.3835L30.0313 16.5882C30.1738 16.6705 30.3355 16.7138 30.5 16.7138C30.6646 16.7138 30.8263 16.6705 30.9688 16.5882L36.5195 13.3835L41.8806 16.4788V22.3469L36.5194 25.4422L30.9688 22.2375C30.8263 22.1552 30.6646 22.1119 30.5 22.1119C30.3355 22.1119 30.1738 22.1552 30.0313 22.2375L24.4806 25.4422L19.1194 22.3469V16.4789L24.4807 13.3835ZM29.5625 9.36689V14.1525L25.4182 11.7597V6.97416L29.5625 9.36689ZM31.4375 9.36689L35.582 6.97404V11.7596L31.4375 14.1525V9.36689ZM47.9001 19.9541V24.7397L43.7557 22.3468V17.5612L47.9001 19.9541ZM25.4182 28.1484L29.5625 30.5413V35.3268L25.4182 32.934V28.1484ZM30.5 28.9174L26.3556 26.5247L30.5 24.1318L34.6445 26.5245L30.5 28.9174ZM31.4375 30.5413L35.582 28.1484V32.934L31.4375 35.3268V30.5413ZM17.2445 17.5612V22.3468L13.1 24.7397V19.9541L17.2445 17.5612ZM49.7751 24.7397V19.9541L53.9195 17.5613V22.3468L49.7751 24.7397ZM48.8376 13.5447L52.982 15.9375L48.8376 18.3302L44.6932 15.9375L48.8376 13.5447ZM30.5 2.95755L34.6445 5.35029L30.5 7.74314L26.3556 5.35029L30.5 2.95755ZM12.1625 13.5447L16.307 15.9375L12.1625 18.3302L8.01807 15.9375L12.1625 13.5447ZM7.08057 17.5613L11.225 19.9541V24.7397L7.08057 22.3468V17.5613ZM7.08057 38.7355L11.225 41.1283V45.914L7.08057 43.5212V38.7355ZM13.1 45.914V41.1283L17.2445 38.7355V43.5211L13.1 45.914ZM25.4182 49.3228L29.5625 51.7155V56.5012L25.4182 54.1084V49.3228ZM35.5821 54.1083L31.4375 56.5012V51.7155L35.582 49.3227V54.1083H35.5821ZM43.7557 38.7355L47.9001 41.1283V45.914L43.7557 43.5212V38.7355ZM49.7751 45.914V41.1283L53.9195 38.7356V43.5212L49.7751 45.914Z" fill="#EA6F37"/>
</svg>
