<svg width="61" height="60" viewBox="0 0 61 60" fill="none" xmlns="http://www.w3.org/2000/svg">
<path d="M20.1123 36.923C20.2335 36.9735 20.3634 36.9997 20.4948 37.0001C20.6261 37.0004 20.7562 36.9749 20.8777 36.9249C20.9991 36.875 21.1096 36.8016 21.2027 36.7089C21.2958 36.6163 21.3697 36.5062 21.4202 36.385L22.8303 33H28.1643L29.5743 36.385C29.7869 36.8948 30.3726 37.1356 30.8823 36.9231C31.3921 36.7105 31.6329 36.1248 31.4203 35.6151L26.4203 23.6151C26.3443 23.4329 26.2162 23.2773 26.0519 23.1679C25.8877 23.0584 25.6947 23 25.4974 23C25.3 23 25.107 23.0584 24.9428 23.1679C24.7786 23.2773 24.6504 23.4329 24.5744 23.6151L19.5744 35.6151C19.5239 35.7363 19.4977 35.8662 19.4973 35.9976C19.497 36.1289 19.5225 36.259 19.5725 36.3804C19.6224 36.5019 19.6958 36.6123 19.7884 36.7054C19.881 36.7985 19.9911 36.8724 20.1123 36.923ZM25.4973 26.6L27.3303 31H23.6642L25.4973 26.6Z" fill="#EA6F37"/>
<path fill-rule="evenodd" clip-rule="evenodd" d="M33.4973 35C32.945 35 32.4973 35.4477 32.4973 36C32.4973 36.5524 32.945 37.0001 33.4973 37.0001H39.4973C40.0497 37.0001 40.4974 36.5524 40.4974 36C40.4974 35.4477 40.0497 35 39.4973 35H37.4973V25H39.4973C40.0497 25 40.4974 24.5523 40.4974 24C40.4974 23.4477 40.0497 23 39.4973 23H33.4973C32.945 23 32.4973 23.4477 32.4973 24C32.4973 24.5523 32.945 25 33.4973 25H35.4974V35H33.4973Z" fill="#EA6F37"/>
<path d="M1.49733 44C1.49733 46.2092 3.28823 48 5.49731 48C5.99835 47.9981 6.49448 47.9011 6.9593 47.714C9.32328 49.524 12.6593 50.468 16.7593 50.468C17.3773 50.468 18.0193 50.439 18.6703 50.397C21.5743 56.331 25.7643 60 30.4973 60C35.2302 60 39.4203 56.331 42.3253 50.4C42.9773 50.442 43.6183 50.4709 44.2362 50.4709C48.3362 50.4709 51.6722 49.5269 54.0362 47.7169C54.5009 47.9028 54.9967 47.9989 55.4972 48C57.2627 47.995 58.8162 46.833 59.3197 45.1408C59.8232 43.4486 59.1578 41.6264 57.6822 40.657C57.8221 37.437 56.5772 33.7829 54.0432 30C56.5772 26.218 57.8222 22.5639 57.6822 19.3429C59.411 18.2273 60.0083 15.9801 59.0616 14.1533C58.1149 12.3265 55.9345 11.5188 54.0262 12.2879C51.3092 10.2089 47.2972 9.28793 42.3261 9.61192C39.4244 3.67303 35.2324 0 30.4974 0C25.7623 0 21.5703 3.67303 18.6653 9.61202C13.6964 9.29 9.68634 10.212 6.9653 12.288C5.05817 11.5251 2.88334 12.3339 1.93824 14.1577C0.993141 15.9815 1.5863 18.2248 3.30929 19.343C3.17131 22.5621 4.41728 26.216 6.95132 30C4.41728 33.783 3.17131 37.437 3.31234 40.6571C2.75565 41.0194 2.29812 41.5148 1.9812 42.0985C1.66428 42.6822 1.49797 43.3358 1.49733 44ZM3.49737 44C3.49737 42.8955 4.39277 42 5.4974 42C6.60204 42 7.49744 42.8954 7.49744 44C7.49744 45.1046 6.60204 46 5.4974 46C4.96696 46 4.45825 45.7893 4.08317 45.4142C3.70809 45.0392 3.49737 44.5304 3.49737 44ZM19.9064 11.72C22.5685 12.0388 25.1914 12.6275 27.7344 13.4771C25.9444 14.2759 24.1965 15.1657 22.4974 16.1431C20.7923 17.1272 19.1407 18.201 17.5494 19.3601C18.0737 16.74 18.8634 14.1801 19.9064 11.72ZM43.4444 19.3601C41.8535 18.2008 40.2022 17.127 38.4973 16.1431C36.8007 15.1669 35.0558 14.2771 33.2693 13.4771C35.8097 12.628 38.4298 12.0392 41.0893 11.72C42.1316 14.1802 42.9207 16.74 43.4444 19.3601ZM41.0883 48.2801C38.4262 47.9613 35.8034 47.3726 33.2603 46.523C35.0503 45.7242 36.7982 44.8344 38.4973 43.857C40.2024 42.8729 41.854 41.7991 43.4453 40.64C42.9211 43.2601 42.1313 45.82 41.0883 48.2801ZM37.4974 17.876C39.7525 19.1738 41.9084 20.6368 43.9474 22.253C44.3151 24.819 44.4989 27.4079 44.4973 30C44.4992 32.5922 44.3157 35.1811 43.9483 37.7471C41.9089 39.3632 39.7527 40.8262 37.4974 42.1241C35.2492 43.4244 32.9097 44.56 30.4974 45.522C28.0849 44.5595 25.7454 43.4232 23.4973 42.122C21.2423 40.8242 19.0864 39.3612 17.0474 37.745C16.3153 32.6063 16.3153 27.3897 17.0474 22.251C19.0865 20.6356 21.2424 19.1732 23.4973 17.8759C25.7474 16.5746 28.0889 15.4383 30.5034 14.4759C32.9138 15.4388 35.2513 16.5751 37.4974 17.876ZM46.1974 24.143C48.1919 25.9088 50.0034 27.871 51.6044 30C50.0056 32.1287 48.1965 34.0909 46.2045 35.8571C46.4008 33.9109 46.4986 31.9561 46.4975 30C46.498 28.044 46.3996 26.0891 46.2025 24.143H46.1974ZM14.7973 35.8571C12.8023 34.0918 10.9908 32.1295 9.3903 30C10.9891 27.8714 12.7982 25.9091 14.7903 24.143C14.3969 28.0378 14.3969 31.9623 14.7903 35.8571H14.7973ZM22.5033 43.857C24.2 44.8332 25.9449 45.723 27.7313 46.523C25.1909 47.3721 22.5708 47.9608 19.9113 48.2801C18.8687 45.82 18.0793 43.2601 17.5553 40.64C19.1445 41.7991 20.7942 42.8729 22.4973 43.857H22.5033ZM30.4974 58.0001C26.7414 58.0001 23.3284 55.0211 20.8113 50.1891C24.1256 49.7192 27.3753 48.8724 30.4974 47.6651C33.6206 48.8729 36.8717 49.7197 40.1873 50.1891C37.6654 55.0211 34.2534 58.0001 30.4974 58.0001ZM55.4974 46C54.3929 46 53.4974 45.1046 53.4974 44C53.4974 42.8954 54.3928 42 55.4974 42C56.6021 42 57.4975 42.8954 57.4975 44C57.4975 45.1046 56.602 46 55.4974 46ZM55.7073 40.021C55.6364 40.021 55.5694 40 55.4973 40C53.2881 40 51.4973 41.7909 51.4973 44C51.5011 44.8943 51.8074 45.7609 52.3664 46.459C50.1884 47.896 47.0093 48.579 43.2014 48.436C44.4412 45.3386 45.32 42.1086 45.8203 38.81C48.4068 36.7273 50.7476 34.3567 52.7973 31.744C54.4858 34.1953 55.4903 37.0524 55.7073 40.021ZM57.4974 16C57.4974 17.1045 56.602 18 55.4973 18C54.3927 18 53.4973 17.1046 53.4973 16C53.4973 14.8954 54.3927 14 55.4973 14C56.602 14 57.4974 14.8955 57.4974 16ZM52.3664 13.541C51.8075 14.2391 51.5012 15.1058 51.4973 16C51.4973 18.2092 53.2882 20 55.4973 20C55.5694 20 55.6363 19.9829 55.7073 19.979C55.4906 22.9477 54.486 25.8048 52.7973 28.256C50.7473 25.6433 48.4062 23.2727 45.8194 21.19C45.3183 17.8912 44.4385 14.6612 43.1973 11.564C47.0084 11.42 50.1894 12.1 52.3664 13.541ZM30.4974 2.00004C34.2534 2.00004 37.6664 4.97903 40.1834 9.81102C36.8709 10.2812 33.6228 11.1281 30.5024 12.335C27.3791 11.1272 24.128 10.2804 20.8124 9.81102C23.3293 4.97903 26.7414 2.00004 30.4974 2.00004ZM5.49731 14.0001C6.60184 14.0001 7.49734 14.8955 7.49734 16.0001C7.49734 17.1047 6.60194 18.0001 5.49731 18.0001C4.39267 18.0001 3.49727 17.1047 3.49727 16.0001C3.49727 14.8955 4.39277 14.0001 5.49731 14.0001ZM5.28738 19.979C5.35834 19.979 5.42536 20 5.4974 20C7.70658 20 9.49738 18.2091 9.49738 16C9.49364 15.1057 9.18735 14.2391 8.62835 13.541C10.8053 12.104 13.9843 11.422 17.7934 11.564C16.5536 14.6615 15.6748 17.8914 15.1744 21.19C12.5882 23.2726 10.2474 25.6429 8.19738 28.255C6.50835 25.8044 5.5038 22.9474 5.28738 19.979ZM8.19738 31.745C10.2484 34.3569 12.5897 36.7271 15.1763 38.81C15.6773 42.109 16.5568 45.3393 17.7974 48.437C13.9914 48.5809 10.8104 47.896 8.63239 46.459C9.1899 45.7604 9.49474 44.8938 9.49738 44C9.49738 41.7908 7.70648 40 5.4974 40C5.42536 40 5.35844 40.018 5.28738 40.021C5.50417 37.0526 6.50869 34.1958 8.19738 31.745Z" fill="#EA6F37"/>
</svg>
