<svg width="61" height="60" viewBox="0 0 61 60" fill="none" xmlns="http://www.w3.org/2000/svg">
<path fill-rule="evenodd" clip-rule="evenodd" d="M47.1126 7.67936C47.6326 8.20052 47.2549 9.0836 46.5297 9.0836C46.3204 9.0836 46.1097 9.0032 45.9489 8.84168L42.7668 5.66036L42.767 17.2824C42.7674 33.5348 29.4937 46.8103 13.2415 46.8108L9.50419 46.8109C9.28603 46.8108 9.07684 46.724 8.92258 46.5698C8.76832 46.4155 8.6816 46.2063 8.68147 45.9882C8.68142 45.8801 8.70267 45.7731 8.744 45.6733C8.78533 45.5734 8.84593 45.4827 8.92233 45.4063C8.99874 45.3299 9.08945 45.2693 9.18929 45.228C9.28913 45.1866 9.39613 45.1654 9.50419 45.1654L13.2415 45.1653C28.6152 45.165 41.122 32.6569 41.1216 17.2825L41.1213 5.66048L37.9407 8.84192C37.8643 8.91839 37.7736 8.97905 37.6738 9.02043C37.5739 9.06182 37.4669 9.08312 37.3588 9.08312C37.2508 9.08312 37.1437 9.06182 37.0439 9.02043C36.944 8.97905 36.8533 8.91839 36.777 8.84192C36.4554 8.52176 36.4554 8.0012 36.777 7.6796L41.3625 3.09596C41.6822 2.77136 42.2072 2.77208 42.5263 3.09596L47.1126 7.67936ZM53.2692 55.5013L49.1535 55.5014L49.1524 12.7071L53.2681 12.707L53.2692 55.5013ZM54.0908 11.0623L48.3297 11.0624C48.1117 11.0624 47.9026 11.149 47.7485 11.3032C47.5943 11.4573 47.5077 11.6664 47.5077 11.8844L47.5088 56.3234C47.5088 56.7774 47.8768 57.1461 48.3308 57.1461L54.0919 57.146C54.31 57.1459 54.5192 57.0592 54.6735 56.9049C54.8277 56.7506 54.9145 56.5414 54.9146 56.3233L54.9135 11.8842C54.9135 11.4302 54.5448 11.0623 54.0908 11.0623ZM40.6124 55.5016L40.612 41.7081L36.4964 41.7082L36.4968 55.5018L40.6124 55.5016ZM41.4348 40.0627L35.6744 40.0628C35.4562 40.0628 35.247 40.1495 35.0927 40.3038C34.9384 40.4581 34.8517 40.6673 34.8517 40.8855L34.852 56.3238C34.8521 56.542 34.9388 56.7512 35.093 56.9055C35.2473 57.0598 35.4566 57.1465 35.6747 57.1465L41.4351 57.1464C41.6533 57.1462 41.8625 57.0595 42.0167 56.9053C42.171 56.751 42.2577 56.5418 42.2578 56.3236L42.2575 40.8854C42.2573 40.6672 42.1706 40.4581 42.0164 40.3038C41.8621 40.1495 41.6529 40.0628 41.4348 40.0627ZM27.9556 55.502L23.8407 55.5021L23.8406 49.7937L27.9555 49.7936L27.9556 55.502ZM28.7782 48.148L23.0179 48.1482C22.7997 48.1483 22.5905 48.235 22.4363 48.3893C22.282 48.5435 22.1953 48.7527 22.1951 48.9709L22.1953 56.324C22.1954 56.5422 22.2821 56.7514 22.4364 56.9056C22.5906 57.0599 22.7998 57.1466 23.018 57.1467L28.7784 57.1466C28.9965 57.1466 29.2058 57.0599 29.3601 56.9056C29.5143 56.7513 29.601 56.5421 29.6011 56.3239L29.6008 48.9708C29.6008 48.8627 29.5796 48.7557 29.5382 48.6559C29.4969 48.5561 29.4363 48.4654 29.3599 48.389C29.2836 48.3126 29.1929 48.252 29.0931 48.2107C28.9932 48.1693 28.8863 48.148 28.7782 48.148ZM15.2996 55.5022L11.1839 55.5024L11.1838 51.3867L15.2995 51.3866L15.2996 55.5022ZM16.1222 49.7412L10.3611 49.7413C10.1429 49.7414 9.93376 49.8281 9.7795 49.9824C9.62524 50.1367 9.53852 50.3458 9.53839 50.564L9.53851 56.3244C9.53864 56.5425 9.62536 56.7517 9.77962 56.906C9.93388 57.0602 10.1431 57.147 10.3612 57.1471L16.1223 57.147C16.5763 57.147 16.9443 56.7782 16.9443 56.3242L16.9442 50.5639C16.9442 50.3458 16.8577 50.1366 16.7035 49.9824C16.5494 49.8281 16.3403 49.7413 16.1222 49.7412ZM7.73023 27.1219C7.73023 28.6675 8.98759 29.9234 10.5317 29.9234C10.8718 29.9234 11.2106 29.8172 11.5319 30.184C11.9092 30.6147 11.6331 30.9756 11.6331 31.5828C11.6331 33.8049 14.1033 35.1267 15.9471 33.9399C16.474 33.6007 17.1829 33.9564 17.2141 34.5928C17.3666 37.7013 20.5454 39.6633 23.3683 38.5149L23.3679 24.8787L18.5994 24.8788C18.2917 26.4834 17.1064 27.8384 15.5061 28.3167C15.4294 28.3394 15.3498 28.3511 15.2697 28.3514C14.3354 28.3514 14.1281 27.0123 15.0353 26.7406C16.2109 26.3884 17.0322 25.285 17.0322 24.0561C17.0322 22.8279 16.2107 21.7232 15.0352 21.3724C14.6 21.2421 14.3518 20.7834 14.4821 20.3481C14.6125 19.9136 15.0706 19.6654 15.5059 19.7964C17.1062 20.2738 18.2915 21.6289 18.5992 23.2334L23.3678 23.2333L23.3674 9.5972C20.5463 8.44976 17.366 10.4107 17.2135 13.5204C17.1826 14.1501 16.4765 14.5124 15.9465 14.1712C15.4953 13.8816 14.9703 13.7278 14.4341 13.7283C12.6181 13.7283 11.2851 15.436 11.7117 17.1925C11.8451 17.7416 11.3907 18.2658 10.8266 18.2044C9.18643 18.0259 7.72987 19.3234 7.72987 20.9894C7.72987 21.957 8.21923 22.8434 9.03847 23.3612C9.55147 23.6847 9.54799 24.4312 9.03847 24.7522C8.21947 25.2692 7.73011 26.1558 7.73023 27.1219ZM25.0135 28.6956C27.2217 28.3053 28.9039 26.3736 28.9038 24.0558C28.9038 21.7381 27.2215 19.807 25.0132 19.4162L25.0135 28.6956ZM25.894 12.7992H25.0131L25.0132 17.7528C28.1315 18.1581 30.5492 20.8286 30.5492 24.0556C30.5493 27.2827 28.1318 29.9534 25.0135 30.3582L25.0136 35.3125H25.8945L26.7442 32.6988C26.7826 32.5812 26.8468 32.4738 26.9322 32.3844C27.0176 32.2951 27.122 32.226 27.2377 32.1824C28.1324 31.8465 28.9654 31.365 29.703 30.7573C29.7982 30.6783 29.9101 30.622 30.0303 30.5925C30.1505 30.5631 30.2758 30.5614 30.3968 30.5875L33.0889 31.1599L34.7917 28.2079L32.9515 26.1639C32.8688 26.0721 32.8078 25.9629 32.773 25.8444C32.7382 25.7259 32.7305 25.601 32.7505 25.4791C32.9078 24.5363 32.9078 23.5739 32.7504 22.6311C32.7303 22.5092 32.7379 22.3844 32.7727 22.2658C32.8075 22.1473 32.8686 22.0381 32.9514 21.9464L34.7914 19.9017L33.0884 16.9512L30.3957 17.5238C30.2746 17.5494 30.1493 17.5475 30.0291 17.5181C29.9089 17.4887 29.7969 17.4326 29.7013 17.354C28.9642 16.7464 28.1316 16.2649 27.2373 15.9291C27.1214 15.8859 27.0168 15.817 26.9313 15.7276C26.8458 15.6382 26.7817 15.5305 26.7438 15.4128L25.894 12.7992ZM9.98767 31.5826C9.98779 34.5855 12.9091 36.7053 15.7384 35.834C16.6909 39.7276 21.0825 41.6433 24.5811 39.7596C24.712 39.6891 24.8213 39.5844 24.8975 39.4568C24.9736 39.3291 25.0137 39.1832 25.0136 39.0345V36.9579H26.298C26.5284 36.9585 26.753 36.8858 26.9394 36.7504C27.1257 36.6149 27.2643 36.4238 27.3349 36.2044L28.1894 33.5742C28.989 33.2386 29.7428 32.8031 30.4329 32.278L33.1402 32.8526C33.3655 32.9009 33.6003 32.8764 33.8108 32.7827C34.0213 32.689 34.1966 32.531 34.3116 32.3313L36.4185 28.6821C36.534 28.4829 36.5833 28.2521 36.5593 28.023C36.5352 27.7939 36.4391 27.5784 36.2847 27.4075L34.432 25.3504C34.54 24.491 34.5402 23.619 34.4319 22.7602L36.2846 20.7038C36.439 20.5329 36.5351 20.3173 36.5591 20.0883C36.5831 19.8592 36.5338 19.6284 36.4183 19.4292L34.3112 15.78C34.1966 15.58 34.0213 15.4216 33.8107 15.3278C33.6002 15.234 33.3652 15.2096 33.1399 15.2581L30.432 15.8341C29.7423 15.3089 28.9889 14.8732 28.1898 14.5374L27.3344 11.9071C27.2637 11.6879 27.1251 11.4968 26.9388 11.3614C26.7524 11.226 26.5278 11.1532 26.2975 11.1537H25.0131V9.07652C25.0131 8.77364 24.8475 8.49572 24.5806 8.3522C21.079 6.46832 16.6898 8.38556 15.7381 12.2781C12.9133 11.413 9.98743 13.4936 9.98743 16.5769C7.79167 16.8459 6.08527 18.7221 6.08539 20.9893C6.08539 22.1523 6.53035 23.2405 7.30951 24.0562C6.53047 24.872 6.08551 25.9603 6.08563 27.1219C6.08563 29.3904 7.79215 31.2673 9.98791 31.5355C9.98767 31.5508 9.98767 31.5668 9.98767 31.5826Z" fill="#EA6F37"/>
</svg>
