<svg width="61" height="60" viewBox="0 0 61 60" fill="none" xmlns="http://www.w3.org/2000/svg">
<path d="M41.2156 47.1938C40.9531 47.1563 40.7281 47.1187 40.4937 47.0719C40.4 47.0531 40.3062 47.0437 40.2125 47.025C40.0625 46.9969 39.9406 46.9594 39.8 46.9219C39.65 46.8844 39.4812 46.8469 39.35 46.8C39.3142 46.7917 39.2796 46.7791 39.2469 46.7625C38.5812 46.5469 38.15 46.3031 37.9719 46.1156C37.9156 46.05 37.8781 45.9844 37.8781 45.9281C37.8781 45.6656 37.6719 45.4594 37.4094 45.4594C37.1469 45.4594 36.9406 45.6656 36.9406 45.9281C36.9406 46.0313 36.9594 46.125 36.9875 46.2187C37.3812 47.625 40.6062 48.2719 43.6156 48.2719C46.625 48.2719 49.8594 47.625 50.2437 46.2187C50.2719 46.125 50.2906 46.0313 50.2906 45.9281C50.2906 45.6656 50.0844 45.4594 49.8219 45.4594C49.5594 45.4594 49.3531 45.6656 49.3531 45.9281C49.3531 45.9844 49.3156 46.05 49.2594 46.1156C49.0812 46.3125 48.65 46.5469 47.9844 46.7625C47.9469 46.7719 47.9187 46.7812 47.8812 46.8C47.75 46.8375 47.5812 46.875 47.4312 46.9219C47.2906 46.9594 47.1687 46.9875 47.0187 47.025C46.9344 47.0437 46.8312 47.0531 46.7375 47.0719C46.5031 47.1187 46.2781 47.1563 46.0156 47.1938C45.95 47.1938 45.8656 47.2031 45.7906 47.2125C45.5 47.25 45.2094 47.2781 44.8906 47.2969C44.4875 47.325 44.0656 47.3344 43.6062 47.3344C43.1469 47.3344 42.725 47.3156 42.3219 47.2969C42.0031 47.2781 41.7125 47.2406 41.4219 47.2125C41.3469 47.2125 41.2719 47.2031 41.1969 47.1938H41.2156ZM17.375 40.7812C20.3844 40.7812 23.6187 40.1344 24.0031 38.7281C24.0312 38.6344 24.05 38.5406 24.05 38.4375C24.05 38.175 23.8437 37.9688 23.5812 37.9688C23.3187 37.9688 23.1125 38.175 23.1125 38.4375C23.1125 38.4937 23.075 38.5594 23.0187 38.625C22.8406 38.8219 22.4094 39.0562 21.7437 39.2719C21.7062 39.2812 21.6781 39.2906 21.6406 39.3094C21.5094 39.3469 21.3406 39.3844 21.1906 39.4313C21.05 39.4688 20.9281 39.4969 20.7781 39.5344C20.6937 39.5531 20.5906 39.5625 20.4969 39.5813C20.2625 39.6281 20.0375 39.6656 19.775 39.7031C19.7094 39.7031 19.625 39.7125 19.55 39.7219C19.2594 39.7594 18.9687 39.7875 18.65 39.8062C18.2469 39.8344 17.825 39.8438 17.3656 39.8438C16.9062 39.8438 16.4844 39.825 16.0812 39.8062C15.7625 39.7875 15.4719 39.75 15.1812 39.7219C15.1062 39.7219 15.0312 39.7125 14.9562 39.7031C14.6937 39.6656 14.4687 39.6281 14.2344 39.5813C14.1406 39.5625 14.0469 39.5531 13.9531 39.5344C13.8031 39.5062 13.6812 39.4688 13.5406 39.4313C13.3906 39.3938 13.2219 39.3563 13.0906 39.3094C13.0549 39.3011 13.0202 39.2885 12.9875 39.2719C12.3219 39.0562 11.8906 38.8125 11.7125 38.625C11.6562 38.5594 11.6187 38.4937 11.6187 38.4375C11.6187 38.175 11.4125 37.9688 11.15 37.9688C10.8875 37.9688 10.6812 38.175 10.6812 38.4375C10.6812 38.5406 10.7 38.6344 10.7281 38.7281C11.1219 40.1344 14.3469 40.7812 17.3562 40.7812H17.375Z" fill="#EA6F37"/>
<path d="M58.625 42.1875H51.3594C49.5969 41.1 47.0656 40.4062 44.1781 40.3312V39.6187C44.8063 39.7312 45.6312 39.8344 46.55 39.8344C48.0781 39.8344 49.8406 39.5437 51.3031 38.5219C54.6125 36.2062 54.9125 31.1812 54.9313 30.9656C54.95 30.5344 54.6781 30.1406 54.2656 30.0187C54.0594 29.9531 49.2312 28.5281 45.9312 30.8437C44.6187 31.7625 43.7844 33.1125 43.2406 34.4156C42.7063 33.1125 41.8719 31.7625 40.5594 30.8437C37.2594 28.5281 32.4313 29.9625 32.225 30.0187C31.8125 30.1406 31.5406 30.5344 31.5594 30.9656C31.5688 31.1812 31.8781 36.1969 35.1687 38.5125C36.6312 39.5437 38.3937 39.8344 39.9219 39.8344C40.8406 39.8344 41.6656 39.7312 42.2938 39.6187V40.3687C39.6969 40.5375 37.4562 41.2031 35.8531 42.1969H27.6781V38.4469C27.6781 35.3906 23.4313 32.9906 17.9187 32.8406V32.1281C18.5469 32.2406 19.3719 32.3437 20.2906 32.3437C21.8188 32.3437 23.5813 32.0531 25.0438 31.0312C28.3531 28.7156 28.6531 23.6906 28.6719 23.475C28.6906 23.0437 28.4188 22.65 28.0063 22.5281C27.8 22.4625 22.9719 21.0375 19.6719 23.3531C18.3594 24.2719 17.525 25.6219 16.9812 26.925C16.4469 25.6219 15.6125 24.2719 14.3 23.3531C11 21.0375 6.17187 22.4719 5.96562 22.5281C5.55312 22.65 5.28125 23.0437 5.3 23.475C5.30937 23.6906 5.61875 28.7062 8.90938 31.0219C10.3719 32.0531 12.1344 32.3437 13.6625 32.3437C14.5812 32.3437 15.4062 32.2406 16.0344 32.1281V32.8781C10.85 33.2156 7.04375 35.5312 7.04375 38.4562V42.2062H2.375C1.85937 42.2062 1.4375 42.6281 1.4375 43.1437C1.4375 43.6594 1.85937 44.0812 2.375 44.0812H7.2125C7.40937 44.7562 7.80313 45.3844 8.39375 45.9562H4.25C3.73437 45.9562 3.3125 46.3781 3.3125 46.8937C3.3125 47.4094 3.73437 47.8312 4.25 47.8312H30.5C31.0156 47.8312 31.4375 47.4094 31.4375 46.8937C31.4375 46.3781 31.0156 45.9562 30.5 45.9562H26.3562C26.9562 45.375 27.3594 44.7375 27.5469 44.0531C27.5938 44.0531 27.6406 44.0812 27.6875 44.0812H33.8844C33.5188 44.6625 33.3125 45.2906 33.3125 45.9562V50.6437C33.3125 51.3 33.5 51.9281 33.8656 52.5187H30.5C29.9844 52.5187 29.5625 52.9406 29.5625 53.4562C29.5625 53.9719 29.9844 54.3937 30.5 54.3937H56.75C57.2656 54.3937 57.6875 53.9719 57.6875 53.4562C57.6875 52.9406 57.2656 52.5187 56.75 52.5187H53.3844C53.75 51.9281 53.9375 51.3 53.9375 50.6437V45.9562C53.9375 45.2906 53.7313 44.6625 53.3563 44.0812H58.625C59.1406 44.0812 59.5625 43.6594 59.5625 43.1437C59.5625 42.6281 59.1406 42.2062 58.625 42.2062V42.1875ZM20.75 24.8719C22.6438 23.5406 25.4 23.8687 26.7125 24.1312C26.5062 25.4531 25.8781 28.1437 23.975 29.475C22.0813 30.8062 19.325 30.4781 18.0125 30.2156C18.2188 28.8937 18.8563 26.1937 20.75 24.8719ZM9.99688 29.475C8.1125 28.1531 7.475 25.4531 7.26875 24.1219C8.58125 23.8594 11.3281 23.5312 13.2219 24.8625C15.1156 26.1844 15.7531 28.8844 15.9594 30.2156C14.6469 30.4781 11.9 30.8062 9.99688 29.475ZM16.0531 34.7437V37.5C16.0531 38.0156 16.475 38.4375 16.9906 38.4375C17.5063 38.4375 17.9281 38.0156 17.9281 37.5V34.6969C22.5969 34.8375 25.8125 36.7312 25.8125 38.4375C25.8125 40.1437 22.3438 42.1875 17.375 42.1875C12.4062 42.1875 8.9375 40.2094 8.9375 38.4375C8.9375 36.8625 11.7969 35.0719 16.0531 34.7437ZM11.9375 45.9375C10.0812 45.2062 8.9375 44.1375 8.9375 43.125V41.7C10.7844 43.1344 13.8406 44.0625 17.375 44.0625C20.9094 44.0625 23.9656 43.1344 25.8125 41.7V43.125C25.8125 44.1469 24.6594 45.2062 22.8125 45.9375H11.9375ZM47 32.3719C48.8937 31.0406 51.65 31.3687 52.9625 31.6312C52.7562 32.9531 52.1281 35.6437 50.225 36.975C48.3313 38.3062 45.575 37.9781 44.2625 37.7156C44.4688 36.3937 45.1062 33.6937 47 32.3719ZM36.2469 36.975C34.3625 35.6531 33.725 32.9531 33.5188 31.6219C34.8313 31.3594 37.5781 31.0312 39.4719 32.3625C41.3656 33.6844 42.0031 36.3844 42.2094 37.7156C40.8969 37.9781 38.15 38.3062 36.2469 36.975ZM43.2406 45.9375C43.7563 45.9375 44.1781 45.5156 44.1781 45V42.1969C48.8469 42.3375 52.0625 44.2312 52.0625 45.9375C52.0625 47.6437 48.5938 49.6875 43.625 49.6875C38.6562 49.6875 35.1875 47.7094 35.1875 45.9375C35.1875 44.3625 38.0469 42.5719 42.3031 42.2437V45C42.3031 45.5156 42.725 45.9375 43.2406 45.9375ZM36.425 52.5C35.8906 52.0969 35.1875 51.4312 35.1875 50.625V49.2C37.0344 50.6344 40.0906 51.5625 43.625 51.5625C47.1594 51.5625 50.2156 50.6344 52.0625 49.2V50.625C52.0625 51.4312 51.3688 52.0969 50.825 52.5H36.4156H36.425Z" fill="#EA6F37"/>
<path d="M26.75 49.6875H8C7.48438 49.6875 7.0625 50.1094 7.0625 50.625C7.0625 51.1406 7.48438 51.5625 8 51.5625H26.75C27.2656 51.5625 27.6875 51.1406 27.6875 50.625C27.6875 50.1094 27.2656 49.6875 26.75 49.6875ZM14.2344 13.9406C14.0433 14.0237 13.8867 14.1702 13.7911 14.3553C13.6955 14.5405 13.6668 14.753 13.7098 14.9569C13.7528 15.1608 13.8648 15.3436 14.027 15.4745C14.1892 15.6053 14.3916 15.6761 14.6 15.675H16.175V16.8C16.175 17.0531 16.3813 17.2593 16.625 17.2593C16.6906 17.2593 16.7469 17.25 16.8031 17.2219C16.9719 17.1562 17.0844 16.9875 17.0844 16.8V15.675H17.7312V16.8C17.7312 17.0531 17.9375 17.2593 18.1813 17.2593C18.2469 17.2593 18.3031 17.25 18.3594 17.2219C18.5281 17.1562 18.6406 16.9875 18.6406 16.8V15.675H19.25C19.4188 15.675 19.5875 15.6562 19.7469 15.6281C20.8625 15.3937 21.7156 14.4 21.7156 13.2094C21.7156 12.4875 21.3969 11.8406 20.9 11.3906C21.1344 11.0156 21.275 10.575 21.275 10.1062C21.275 8.74685 20.1688 7.6406 18.8188 7.6406H18.65V6.26248C18.65 6.00935 18.4437 5.8031 18.2 5.8031C18.1344 5.8031 18.0781 5.81248 18.0219 5.8406C17.8531 5.90623 17.7406 6.07498 17.7406 6.26248V7.6406H17.0938V6.26248C17.0938 6.00935 16.8875 5.8031 16.6437 5.8031C16.5781 5.8031 16.5219 5.81248 16.4656 5.8406C16.2969 5.90623 16.1844 6.07498 16.1844 6.26248V7.6406H14.6188C14.4969 7.6406 14.375 7.66873 14.2625 7.7156C13.9344 7.85623 13.7094 8.17498 13.7094 8.54998C13.7094 9.04685 14.1031 9.4406 14.6 9.45935V13.8656C14.4781 13.8656 14.3656 13.8937 14.2531 13.9406H14.2344ZM18.8094 9.45935C19.1656 9.45935 19.4563 9.74998 19.4563 10.1062C19.4565 10.19 19.4402 10.273 19.4082 10.3505C19.3763 10.4279 19.3293 10.4983 19.2701 10.5576C19.2108 10.6168 19.1405 10.6638 19.063 10.6957C18.9855 10.7277 18.9025 10.744 18.8188 10.7437H16.4V9.45935H18.8094ZM19.25 12.5719C19.6063 12.5719 19.8969 12.8625 19.8969 13.2187C19.8971 13.3025 19.8808 13.3855 19.8489 13.463C19.8169 13.5404 19.77 13.6108 19.7107 13.6701C19.6515 13.7293 19.5811 13.7763 19.5036 13.8082C19.4262 13.8402 19.3432 13.8565 19.2594 13.8562H16.4V12.5719H19.2594H19.25ZM34.4375 20.0344C34.4656 20.6062 34.5594 21.2062 34.7188 21.8437C35.1256 23.3844 35.9157 24.797 37.0156 25.95C37.3625 26.3062 37.7188 26.625 38.1125 26.925C38.6656 27.3468 39.2469 27.6937 39.8281 27.9656C41.075 28.5562 42.4063 28.8469 43.775 28.8469C47.2719 28.8469 50.45 26.9156 52.0719 23.8125C52.3813 23.2406 52.625 22.6125 52.8031 21.9562C52.9344 21.4875 53.0375 20.9906 53.0844 20.5031C53.1219 20.1562 53.15 19.8187 53.15 19.4719C53.15 18.225 52.9063 16.9968 52.4188 15.8343C52.1844 15.2812 51.8938 14.7469 51.5563 14.2312C51.2375 13.7625 50.8906 13.3406 50.5156 12.9562C50.1688 12.6 49.8125 12.2812 49.4094 11.9812C47.7594 10.7531 45.8188 10.0969 43.775 10.0969C39.5844 10.0969 35.8719 12.9187 34.7563 16.9406C34.625 17.3812 34.5313 17.8687 34.4656 18.4031C34.4281 18.75 34.4 19.1062 34.4 19.4719C34.4 19.6125 34.4 19.7437 34.4188 19.8843V20.0344H34.4375ZM36.3406 18.6375C36.3969 18.2156 36.4719 17.8219 36.575 17.4562C37.4656 14.2312 40.4375 11.9719 43.7938 11.9719C45.425 11.9719 46.9813 12.4969 48.2938 13.4719C48.6125 13.7156 48.9031 13.9781 49.1844 14.2594C49.4844 14.5687 49.7563 14.9062 50.0094 15.2812C50.2813 15.6937 50.5156 16.125 50.7031 16.5562C51.0875 17.4843 51.2844 18.4594 51.2844 19.4625C51.2844 19.7344 51.2656 19.9968 51.2375 20.2781C51.2 20.6718 51.125 21.0562 51.0125 21.4406C50.8719 21.975 50.675 22.4718 50.4313 22.9312C49.7998 24.1463 48.8469 25.1647 47.6765 25.8755C46.5061 26.5864 45.1631 26.9623 43.7938 26.9625C42.6969 26.9625 41.6375 26.7281 40.6344 26.25C40.1656 26.0344 39.7063 25.7531 39.2656 25.4156C38.9469 25.1719 38.6563 24.9094 38.3844 24.6281C37.5075 23.7064 36.8786 22.5775 36.5563 21.3469C36.425 20.85 36.35 20.3625 36.3313 19.9125V19.725C36.3125 19.6312 36.3031 19.5375 36.3031 19.4531C36.3031 19.1625 36.3219 18.8812 36.35 18.6094L36.3406 18.6375Z" fill="#EA6F37"/>
<path d="M40.2125 19.4625V19.4906H40.2219C40.2219 19.4906 40.2688 19.5844 40.3157 19.6125L43.6157 21.5531L46.9157 19.6125C47.0375 19.5375 47.0844 19.3687 47 19.2469L43.6063 13.7719L40.2125 19.2469C40.175 19.3031 40.175 19.3687 40.1844 19.425V19.4531L40.2125 19.4625Z" fill="#EA6F37"/>
<path d="M43.4281 24.9188C43.475 24.9844 43.55 25.0219 43.625 25.0219C43.7 25.0219 43.775 24.9844 43.8219 24.9188L47.2906 20.475C47.3656 20.3813 47.2531 20.2594 47.1594 20.325L43.625 22.5938L40.0906 20.325C39.9969 20.2594 39.8844 20.3907 39.9594 20.475L43.4281 24.9188ZM8.45939 12.1031C8.48752 12.675 8.58127 13.2844 8.74064 13.9125C9.14745 15.4532 9.93762 16.8658 11.0375 18.0188C11.3844 18.375 11.7406 18.6938 12.1344 18.9938C12.6875 19.4157 13.2688 19.7625 13.85 20.0344C15.0969 20.625 16.4281 20.9156 17.7969 20.9156C18.6688 20.9156 19.5219 20.7938 20.3375 20.5688C21.5656 20.2235 22.71 19.6303 23.7 18.8257C24.69 18.0211 25.5047 17.0222 26.0938 15.8907C26.4031 15.3188 26.6469 14.6906 26.825 14.025C26.9563 13.5563 27.0594 13.0688 27.1063 12.5719C27.1438 12.225 27.1719 11.8875 27.1719 11.5406C27.1719 10.2938 26.9281 9.06565 26.4406 7.90315C26.2063 7.35002 25.9156 6.81565 25.5781 6.30002C25.2594 5.83127 24.9125 5.4094 24.5375 5.02502C24.1906 4.66877 23.8344 4.35002 23.4313 4.05002C21.7813 2.8219 19.8406 2.16565 17.7969 2.16565C17.0094 2.16565 16.2406 2.26877 15.5 2.45627C15.3406 2.49377 15.1906 2.55002 15.0406 2.5969C14.9563 2.62502 14.8625 2.64377 14.7781 2.6719C11.9094 3.65627 9.61252 5.99065 8.77814 9.01877C8.54455 9.84234 8.42469 10.694 8.42189 11.55C8.42189 11.6813 8.42189 11.8125 8.44064 11.9438V12.1125L8.45939 12.1031ZM17.8063 4.04065C19.4375 4.04065 20.9938 4.56565 22.3063 5.55002C22.9762 6.05197 23.5563 6.66374 24.0219 7.3594C24.2938 7.7719 24.5281 8.20315 24.7156 8.6344C25.1 9.56252 25.2969 10.5469 25.2969 11.5406C25.2969 11.8125 25.2781 12.075 25.25 12.3656C25.25 12.3844 25.25 12.4125 25.2406 12.4313C25.2031 12.7782 25.1375 13.1157 25.0438 13.4438C25.0438 13.4719 25.0344 13.4906 25.025 13.5188C24.8844 14.0625 24.6875 14.5594 24.4438 15.0094C23.9721 15.9148 23.3206 16.7145 22.5291 17.3593C21.7376 18.0041 20.8227 18.4805 19.8406 18.7594C19.1938 18.9469 18.5094 19.0406 17.8063 19.0406C16.7094 19.0406 15.65 18.8063 14.6469 18.3281C14.1781 18.1125 13.7188 17.8313 13.2781 17.4938C12.9594 17.25 12.6688 16.9875 12.3969 16.7063C11.5201 15.7846 10.8911 14.6557 10.5688 13.425C10.4375 12.9281 10.3625 12.4406 10.3438 11.9906V11.7844C10.325 11.7 10.3156 11.6156 10.3156 11.5219C10.3156 11.2313 10.3344 10.95 10.3625 10.6875C10.4188 10.2656 10.4938 9.8719 10.5969 9.50627C11.2625 7.08752 13.1 5.21252 15.3969 4.42502C16.1563 4.16252 16.9719 4.0219 17.8063 4.0219V4.04065ZM53 56.25H34.25C33.7344 56.25 33.3125 56.6719 33.3125 57.1875C33.3125 57.7031 33.7344 58.125 34.25 58.125H53C53.5156 58.125 53.9375 57.7031 53.9375 57.1875C53.9375 56.6719 53.5156 56.25 53 56.25Z" fill="#EA6F37"/>
</svg>
