<svg width="61" height="60" viewBox="0 0 61 60" fill="none" xmlns="http://www.w3.org/2000/svg">
<path d="M53.9 14.796C53.3679 14.656 52.802 14.7312 52.3248 15.0051C51.8477 15.2791 51.4975 15.7299 51.35 16.26C51.2678 16.5235 51.2409 16.8012 51.271 17.0756C51.3011 17.3501 51.3876 17.6153 51.5251 17.8547C51.6626 18.0941 51.848 18.3026 52.0698 18.467C52.2916 18.6313 52.545 18.7481 52.814 18.81C53.078 18.8843 53.3541 18.9053 53.6263 18.8716C53.8985 18.838 54.1612 18.7505 54.3992 18.6142C54.6371 18.4779 54.8455 18.2956 55.0122 18.0778C55.1789 17.8601 55.3006 17.6113 55.37 17.346C55.4927 16.8138 55.4093 16.255 55.1366 15.7818C54.8638 15.3087 54.422 14.9565 53.9 14.796ZM8.18003 41.124C7.64709 41.0015 7.08756 41.0858 6.6143 41.3597C6.14105 41.6336 5.7893 42.0769 5.63003 42.6C5.49209 43.1321 5.56893 43.6971 5.84395 44.1731C6.11897 44.649 6.57013 44.9978 7.10003 45.144C7.36398 45.2261 7.64207 45.2528 7.91683 45.2223C8.19158 45.1918 8.45706 45.1048 8.69655 44.9667C8.93605 44.8287 9.1444 44.6425 9.30849 44.4201C9.47257 44.1976 9.58886 43.9436 9.65003 43.674C9.72427 43.4104 9.74517 43.1346 9.71149 42.8629C9.67781 42.5911 9.59023 42.3288 9.45388 42.0913C9.31754 41.8538 9.13517 41.646 8.91746 41.4799C8.69976 41.3137 8.45109 41.1928 8.18603 41.124H8.18003ZM8.75003 39.15C9.35612 39.2904 9.90971 39.6005 10.346 40.044C10.4411 40.1002 10.5474 40.1347 10.6573 40.1451C10.7673 40.1554 10.8781 40.1414 10.982 40.104L16.85 36.66C16.9682 36.6026 17.0604 36.5028 17.1082 36.3805C17.156 36.2581 17.1559 36.1223 17.108 36C16.2567 34.1058 15.8165 32.0527 15.8165 29.976C15.8165 27.8993 16.2567 25.8461 17.108 23.952C17.1492 23.8327 17.1457 23.7025 17.0982 23.5856C17.0508 23.4687 16.9626 23.3729 16.85 23.316L11.816 20.4C11.6891 20.3436 11.5453 20.3384 11.4145 20.3853C11.2838 20.4322 11.1762 20.5277 11.114 20.652C11.048 20.784 10.982 20.97 10.922 21.102C10.8411 21.2851 10.7101 21.4416 10.5442 21.5534C10.3782 21.6653 10.184 21.728 9.98391 21.7342C9.78385 21.7405 9.58609 21.6901 9.41343 21.5889C9.24077 21.4876 9.10023 21.3396 9.00803 21.162C8.96332 21.0691 8.88883 20.9938 8.79641 20.9482C8.704 20.9025 8.59896 20.8891 8.49803 20.91C7.46346 21.0838 6.40097 20.8753 5.50889 20.3232C4.6168 19.7712 3.95607 18.9134 3.65003 17.91C3.49362 17.3426 3.4582 16.7487 3.54605 16.1668C3.63391 15.5848 3.84309 15.0279 4.16003 14.532C4.70437 13.7543 5.49612 13.1839 6.40617 12.9139C7.31623 12.6439 8.29092 12.6901 9.17133 13.0451C10.0517 13.4 10.7859 14.0428 11.2542 14.8685C11.7225 15.6942 11.8973 16.6542 11.75 17.592C11.7307 17.6935 11.7455 17.7987 11.7921 17.8909C11.8388 17.9832 11.9147 18.0574 12.008 18.102L17.936 21.546C17.9897 21.578 18.0495 21.5984 18.1115 21.606C18.1736 21.6136 18.2365 21.6082 18.2963 21.5902C18.3562 21.5721 18.4116 21.5418 18.4591 21.5011C18.5065 21.4604 18.545 21.4103 18.572 21.354C19.7963 19.6894 21.3524 18.2968 23.1421 17.2641C24.9318 16.2314 26.9162 15.581 28.97 15.354C29.0372 15.3548 29.1039 15.3421 29.1661 15.3168C29.2284 15.2915 29.2849 15.2539 29.3324 15.2064C29.38 15.1589 29.4175 15.1023 29.4428 15.0401C29.4682 14.9779 29.4808 14.9112 29.48 14.844V11.544C29.4765 11.4365 29.4366 11.3335 29.3668 11.2517C29.2971 11.17 29.2016 11.1143 29.096 11.094C28.2899 10.7956 27.5947 10.257 27.1044 9.55102C26.6141 8.84502 26.3521 8.00556 26.354 7.14598C26.3328 6.58865 26.4243 6.03276 26.6229 5.5116C26.8216 4.99044 27.1233 4.51472 27.5101 4.11291C27.8969 3.71111 28.3608 3.39147 28.8741 3.17314C29.3873 2.95482 29.9393 2.84229 30.497 2.84229C31.0548 2.84229 31.6068 2.95482 32.12 3.17314C32.6332 3.39147 33.0971 3.71111 33.4839 4.11291C33.8707 4.51472 34.1725 4.99044 34.3711 5.5116C34.5698 6.03276 34.6612 6.58865 34.64 7.14598C34.6419 8.00556 34.38 8.84502 33.8897 9.55102C33.3993 10.257 32.7042 10.7956 31.898 11.094C31.7931 11.1145 31.6984 11.1704 31.6296 11.2522C31.5608 11.3341 31.5221 11.4371 31.52 11.544V14.856C31.5192 14.9232 31.5319 14.9899 31.5572 15.0521C31.5826 15.1143 31.6201 15.1709 31.6676 15.2184C31.7151 15.2659 31.7717 15.3035 31.8339 15.3288C31.8961 15.3541 31.9628 15.3668 32.03 15.366C34.0828 15.5938 36.066 16.2446 37.8546 17.2773C39.6432 18.3099 41.1984 19.7021 42.422 21.366C42.4491 21.4223 42.4875 21.4724 42.535 21.5131C42.5825 21.5538 42.6379 21.5841 42.6977 21.6021C42.7575 21.6202 42.8205 21.6256 42.8825 21.618C42.9446 21.6104 43.0043 21.59 43.058 21.558L48.992 18.114C49.0849 18.0693 49.1602 17.9948 49.2058 17.9024C49.2515 17.8099 49.2649 17.7049 49.244 17.604C49.1389 16.99 49.1614 16.3609 49.31 15.756C49.5132 14.9778 49.9377 14.2753 50.532 13.7335C51.1264 13.1918 51.8651 12.834 52.6587 12.7035C53.4523 12.5731 54.2666 12.6756 55.0031 12.9986C55.7396 13.3216 56.3667 13.8512 56.8083 14.5234C57.2498 15.1955 57.487 15.9813 57.4911 16.7855C57.4951 17.5897 57.2659 18.3779 56.8311 19.0544C56.3963 19.731 55.7746 20.2669 55.0414 20.5973C54.3082 20.9278 53.4949 21.0384 52.7 20.916C52.5806 20.9096 52.4617 20.9359 52.356 20.9919C52.2503 21.0479 52.1618 21.1316 52.1 21.234C52.0365 21.4306 51.9154 21.6037 51.7524 21.7307C51.5894 21.8578 51.392 21.9329 51.1858 21.9465C50.9796 21.9601 50.774 21.9114 50.5958 21.8069C50.4175 21.7023 50.2748 21.5466 50.186 21.36C50.12 21.108 49.928 20.916 49.868 20.658C49.7954 20.5268 49.6763 20.4275 49.5341 20.3798C49.392 20.332 49.2371 20.3392 49.1 20.4L44.144 23.34C44.026 23.3973 43.9342 23.4975 43.8874 23.6201C43.8405 23.7427 43.8422 23.8785 43.892 24C44.7404 25.8949 45.179 27.9478 45.179 30.024C45.179 32.1002 44.7404 34.153 43.892 36.048C43.8491 36.1665 43.8511 36.2966 43.8975 36.4137C43.9439 36.5309 44.0316 36.627 44.144 36.684L50.012 40.128C50.1159 40.1654 50.2268 40.1794 50.3367 40.1691C50.4467 40.1587 50.553 40.1242 50.648 40.068C51.0843 39.6245 51.6379 39.3144 52.244 39.174C52.7716 39.0306 53.3222 38.9928 53.8644 39.0628C54.4066 39.1327 54.9296 39.3091 55.4034 39.5817C55.8773 39.8543 56.2926 40.2178 56.6256 40.6513C56.9587 41.0848 57.2028 41.5799 57.344 42.108C57.4888 42.6277 57.5295 43.1709 57.4636 43.7063C57.3977 44.2418 57.2265 44.7589 56.96 45.228C56.3964 46.1915 55.4831 46.9006 54.41 47.208C53.4835 47.3889 52.5236 47.277 51.6635 46.8878C50.8034 46.4986 50.0857 45.8514 49.61 45.036C49.358 44.658 48.974 44.718 48.656 45.036C47.888 46.122 46.166 44.784 47.06 43.698C47.5145 43.2114 47.9167 42.6785 48.26 42.108C48.3008 42.0524 48.3291 41.9887 48.3431 41.9213C48.3571 41.8538 48.3563 41.7841 48.341 41.7169C48.3256 41.6497 48.2959 41.5867 48.254 41.532C48.2121 41.4773 48.1589 41.4323 48.098 41.4L43.058 38.466C42.9547 38.4063 42.8333 38.3862 42.7163 38.4094C42.5993 38.4326 42.4948 38.4975 42.422 38.592C41.2111 40.2738 39.6602 41.6823 37.87 42.7263C36.0797 43.7702 34.0901 44.4263 32.03 44.652C31.9628 44.6512 31.8961 44.6638 31.8339 44.6892C31.7717 44.7145 31.7151 44.752 31.6676 44.7996C31.6201 44.8471 31.5826 44.9036 31.5572 44.9659C31.5319 45.0281 31.5192 45.0948 31.52 45.162V48.474C31.5221 48.5809 31.5608 48.6838 31.6296 48.7657C31.6984 48.8476 31.7931 48.9034 31.898 48.924C32.8404 49.2825 33.6293 49.9568 34.13 50.832C34.1518 50.8888 34.1848 50.9407 34.227 50.9846C34.2692 51.0285 34.3197 51.0635 34.3756 51.0875C34.4315 51.1116 34.4917 51.1242 34.5526 51.1246C34.6134 51.125 34.6738 51.1132 34.73 51.09C35.0098 51.0779 35.2874 51.0356 35.558 50.964C35.8162 50.9066 36.0866 50.9517 36.3122 51.0899C36.5377 51.228 36.7008 51.4484 36.767 51.7045C36.8331 51.9606 36.7972 52.2324 36.6668 52.4625C36.5364 52.6927 36.3217 52.8631 36.068 52.938C35.7364 53.0529 35.395 53.1373 35.048 53.19C34.9416 53.1948 34.84 53.2353 34.7594 53.305C34.6789 53.3746 34.6241 53.4694 34.604 53.574C34.4398 54.5401 33.9363 55.4159 33.184 56.044C32.4316 56.672 31.4799 57.011 30.5 57C29.5251 56.9894 28.5842 56.64 27.8386 56.0116C27.0931 55.3832 26.5895 54.5151 26.414 53.556C26.354 53.364 26.228 53.172 26.036 53.172C25.5806 53.1002 25.1313 52.9939 24.692 52.854C24.4303 52.7855 24.2064 52.6159 24.0697 52.3825C23.933 52.149 23.8946 51.8707 23.963 51.609C24.0315 51.3472 24.2011 51.1233 24.4345 50.9866C24.668 50.8499 24.9463 50.8115 25.208 50.88C25.5754 50.9287 25.9371 51.0131 26.288 51.132C26.4092 51.1534 26.534 51.1338 26.6427 51.0762C26.7514 51.0185 26.8378 50.9263 26.888 50.814C27.3888 49.9388 28.1776 49.2645 29.12 48.906C29.2256 48.8856 29.3211 48.83 29.3908 48.7482C29.4606 48.6665 29.5005 48.5634 29.504 48.456V45.144C29.5048 45.0768 29.4922 45.0101 29.4668 44.9479C29.4415 44.8856 29.404 44.8291 29.3564 44.7816C29.3089 44.734 29.2524 44.6965 29.1901 44.6712C29.1279 44.6458 29.0612 44.6332 28.994 44.634C26.9329 44.4091 24.9421 43.7534 23.1508 42.7094C21.3594 41.6654 19.8076 40.2565 18.596 38.574C18.5233 38.4795 18.4187 38.4146 18.3017 38.3914C18.1847 38.3682 18.0633 38.3883 17.96 38.448L12.896 41.4C12.8329 41.4288 12.7768 41.4712 12.7319 41.5241C12.6869 41.577 12.6541 41.6391 12.6358 41.7061C12.6175 41.773 12.6141 41.8432 12.6259 41.9116C12.6377 41.98 12.6644 42.045 12.704 42.102C13.028 42.612 13.406 43.056 13.724 43.5C13.8162 43.6004 13.8877 43.7181 13.9344 43.8462C13.9812 43.9743 14.0022 44.1103 13.9964 44.2465C13.9905 44.3827 13.9579 44.5165 13.9003 44.6401C13.8428 44.7637 13.7615 44.8748 13.661 44.967C13.5606 45.0592 13.4429 45.1307 13.3148 45.1774C13.1867 45.2241 13.0507 45.2452 12.9145 45.2393C12.7783 45.2335 12.6445 45.2008 12.5209 45.1433C12.3973 45.0858 12.2862 45.0044 12.194 44.904C12.1368 44.8455 12.0665 44.8015 11.9889 44.7756C11.9113 44.7497 11.8286 44.7426 11.7478 44.7549C11.6669 44.7672 11.5901 44.7986 11.5237 44.8464C11.4573 44.8942 11.4033 44.9571 11.366 45.03C10.9214 45.8743 10.2081 46.5462 9.33873 46.9396C8.46939 47.333 7.49372 47.4253 6.56603 47.202C5.50065 46.9147 4.59301 46.2161 4.04278 45.2596C3.49255 44.3032 3.3448 43.1673 3.63203 42.102C3.91926 41.0366 4.61794 40.129 5.57438 39.5787C6.53081 39.0285 7.66665 38.8807 8.73203 39.168L8.75003 39.15ZM39.35 21.552C38.545 21.9792 37.6878 22.2999 36.8 22.506C36.6647 22.5414 36.5486 22.6284 36.4768 22.7485C36.405 22.8686 36.3832 23.012 36.416 23.148C36.8271 24.8839 37.0622 26.6569 37.118 28.44C37.1172 28.5072 37.1299 28.5739 37.1552 28.6361C37.1805 28.6983 37.2181 28.7549 37.2656 28.8024C37.3131 28.8499 37.3697 28.8874 37.4319 28.9128C37.4941 28.9381 37.5608 28.9508 37.628 28.95H42.5C42.5763 28.9547 42.6526 28.9415 42.7229 28.9116C42.7932 28.8817 42.8556 28.8358 42.9051 28.7775C42.9546 28.7193 42.9898 28.6504 43.0081 28.5762C43.0263 28.5019 43.0269 28.4245 43.01 28.35C42.6964 25.8698 41.6521 23.5389 40.01 21.654C39.9272 21.5743 39.8233 21.52 39.7105 21.4977C39.5978 21.4753 39.481 21.4859 39.374 21.528L39.35 21.552ZM33.8 23.016C31.598 23.2629 29.3765 23.285 27.17 23.082C27.0409 23.066 26.9103 23.0957 26.8008 23.1658C26.6912 23.2359 26.6096 23.3421 26.57 23.466C26.218 25.1031 26.0053 26.767 25.934 28.44C25.868 28.692 26.126 28.95 26.444 28.95H34.514C34.6587 28.9516 34.7991 28.9009 34.9094 28.8072C35.0197 28.7135 35.0923 28.583 35.114 28.44C34.9885 26.7452 34.7459 25.0612 34.388 23.4C34.3475 23.2767 34.2656 23.1712 34.1563 23.1013C34.047 23.0313 33.9169 23.0012 33.788 23.016H33.8ZM24.11 22.638C23.1872 22.4657 22.2873 22.1879 21.428 21.81C21.3258 21.7463 21.2032 21.7238 21.0851 21.7472C20.967 21.7706 20.8622 21.8381 20.792 21.936C19.2508 23.7632 18.277 26.0009 17.99 28.374C17.9718 28.4486 17.9715 28.5265 17.9892 28.6013C18.0069 28.6761 18.042 28.7457 18.0918 28.8042C18.1416 28.8628 18.2045 28.9087 18.2755 28.9382C18.3465 28.9677 18.4234 28.98 18.5 28.974H23.342C23.4092 28.9748 23.4759 28.9621 23.5381 28.9368C23.6004 28.9115 23.6569 28.8739 23.7044 28.8264C23.752 28.7789 23.7895 28.7223 23.8148 28.6601C23.8402 28.5979 23.8528 28.5312 23.852 28.464C23.9237 26.719 24.1405 24.983 24.5 23.274C24.5227 23.207 24.5305 23.1358 24.5229 23.0655C24.5153 22.9951 24.4924 22.9273 24.4558 22.8668C24.4192 22.8062 24.3699 22.7543 24.3112 22.7148C24.2525 22.6753 24.1859 22.6491 24.116 22.638H24.11ZM23.672 20.4C24.056 20.46 24.44 20.592 24.824 20.652C24.8841 20.6751 24.9484 20.6851 25.0127 20.6812C25.0769 20.6774 25.1396 20.6598 25.1965 20.6296C25.2533 20.5995 25.3031 20.5575 25.3423 20.5065C25.3816 20.4555 25.4094 20.3967 25.424 20.334C25.556 19.95 25.748 19.572 25.874 19.254C25.9311 19.1631 25.9568 19.0561 25.9474 18.9493C25.938 18.8424 25.894 18.7416 25.8219 18.6621C25.7499 18.5826 25.6539 18.5288 25.5485 18.5089C25.4431 18.489 25.334 18.5042 25.238 18.552C24.6637 18.8082 24.1083 19.105 23.576 19.44C23.4879 19.4929 23.4171 19.5705 23.3725 19.6631C23.3278 19.7557 23.3111 19.8593 23.3245 19.9613C23.3379 20.0632 23.3807 20.159 23.4478 20.237C23.5148 20.3149 23.6032 20.3716 23.702 20.4H23.672ZM28.1 21.108C29.7 21.1774 31.3026 21.1553 32.9 21.042C32.9815 21.0248 33.0584 20.9908 33.126 20.9423C33.1936 20.8938 33.2504 20.8317 33.2927 20.76C33.3351 20.6883 33.362 20.6087 33.3719 20.526C33.3817 20.4434 33.3743 20.3596 33.35 20.28C31.55 16.386 29.33 16.452 27.608 20.34C27.5829 20.4229 27.5761 20.5104 27.588 20.5962C27.6 20.6821 27.6304 20.7643 27.6771 20.8373C27.7239 20.9103 27.7859 20.9723 27.8589 21.019C27.9319 21.0657 28.0142 21.0961 28.1 21.108ZM36.2 20.508C36.518 20.442 36.836 20.316 37.154 20.256C37.2528 20.2276 37.3412 20.1709 37.4083 20.093C37.4753 20.015 37.5182 19.9192 37.5316 19.8173C37.545 19.7153 37.5283 19.6117 37.4836 19.5191C37.4389 19.4265 37.3682 19.3489 37.28 19.296C36.836 19.044 36.326 18.786 35.816 18.534C35.72 18.4929 35.6135 18.4828 35.5114 18.5048C35.4093 18.5269 35.3166 18.5802 35.2461 18.6573C35.1756 18.7344 35.1308 18.8315 35.1179 18.9352C35.105 19.0388 35.1246 19.144 35.174 19.236L35.558 20.19C35.6116 20.3091 35.705 20.406 35.822 20.464C35.9391 20.522 36.0727 20.5375 36.2 20.508ZM37.13 31.56C37.0695 33.3229 36.8344 35.0755 36.428 36.792C36.3953 36.9272 36.4173 37.0698 36.4892 37.1889C36.5611 37.308 36.6771 37.3939 36.812 37.428C37.7177 37.6165 38.5964 37.9168 39.428 38.322C39.5313 38.3837 39.654 38.4043 39.7717 38.3799C39.8895 38.3554 39.9938 38.2877 40.064 38.19C41.6831 36.3489 42.7061 34.0603 42.998 31.626C43.0149 31.5515 43.0143 31.474 42.9961 31.3998C42.9778 31.3256 42.9426 31.2566 42.8931 31.1984C42.8436 31.1402 42.7812 31.0943 42.7109 31.0644C42.6406 31.0344 42.5643 31.0213 42.488 31.026H37.64C37.5728 31.0252 37.5061 31.0378 37.4439 31.0632C37.3817 31.0885 37.3251 31.126 37.2776 31.1736C37.2301 31.2211 37.1926 31.2776 37.1672 31.3399C37.1419 31.4021 37.1292 31.4688 37.13 31.536V31.56ZM35.6 39.72C35.474 40.044 35.282 40.422 35.15 40.74C35.1006 40.832 35.081 40.9371 35.0939 41.0408C35.1068 41.1445 35.1516 41.2415 35.2221 41.3186C35.2926 41.3957 35.3853 41.449 35.4874 41.4711C35.5895 41.4932 35.696 41.483 35.792 41.442C36.3282 41.2174 36.8407 40.94 37.322 40.614C37.4083 40.5604 37.4773 40.483 37.5207 40.3912C37.5642 40.2994 37.5802 40.197 37.5669 40.0963C37.5536 39.9956 37.5115 39.9009 37.4458 39.8235C37.38 39.7461 37.2933 39.6893 37.196 39.66C36.938 39.594 36.596 39.468 36.302 39.402C36.1667 39.3513 36.0169 39.3564 35.8853 39.416C35.7538 39.4756 35.6512 39.5849 35.6 39.72ZM25.844 40.74C25.718 40.422 25.526 40.044 25.394 39.66C25.3516 39.5417 25.2666 39.4436 25.1556 39.3848C25.0446 39.3259 24.9157 39.3107 24.794 39.342C24.4216 39.4084 24.0574 39.515 23.708 39.66C23.6114 39.6802 23.5234 39.7298 23.456 39.8019C23.3886 39.8739 23.3451 39.965 23.3313 40.0628C23.3175 40.1605 23.3342 40.2601 23.3791 40.348C23.4239 40.4359 23.4948 40.5078 23.582 40.554C24.0915 40.8888 24.6249 41.1856 25.178 41.442C25.274 41.4898 25.3831 41.5049 25.4885 41.485C25.5939 41.4652 25.6899 41.4114 25.7619 41.3319C25.834 41.2524 25.878 41.1515 25.8874 41.0447C25.8968 40.9378 25.8711 40.8308 25.814 40.74H25.844ZM24.566 36.792C24.1597 35.0755 23.9245 33.3229 23.864 31.56C23.8648 31.4928 23.8522 31.4261 23.8268 31.3639C23.8015 31.3016 23.764 31.2451 23.7164 31.1976C23.6689 31.15 23.6124 31.1125 23.5501 31.0872C23.4879 31.0618 23.4212 31.0492 23.354 31.05H18.5C18.4234 31.044 18.3465 31.0562 18.2755 31.0858C18.2045 31.1153 18.1416 31.1612 18.0918 31.2197C18.042 31.2783 18.0069 31.3478 17.9892 31.4226C17.9715 31.4974 17.9718 31.5753 17.99 31.65C18.3061 34.0479 19.3178 36.3007 20.9 38.13C20.9711 38.2267 21.0758 38.2933 21.1935 38.3166C21.3113 38.3399 21.4335 38.3183 21.536 38.256C22.3804 37.8826 23.2557 37.5835 24.152 37.362C24.2227 37.3568 24.2915 37.3365 24.3536 37.3023C24.4157 37.2681 24.4696 37.2209 24.5118 37.1639C24.554 37.107 24.5833 37.0415 24.5979 36.9722C24.6124 36.9028 24.6118 36.8311 24.596 36.762L24.566 36.792ZM25.97 31.56C26.0413 33.233 26.254 34.8969 26.606 36.534C26.6456 36.6579 26.7272 36.7641 26.8368 36.8342C26.9463 36.9043 27.0769 36.9339 27.206 36.918C29.4103 36.693 31.6318 36.693 33.836 36.918C33.9007 36.933 33.9677 36.9349 34.0331 36.9236C34.0985 36.9123 34.161 36.888 34.2169 36.8523C34.2728 36.8165 34.3209 36.7699 34.3586 36.7153C34.3962 36.6606 34.4225 36.599 34.436 36.534C34.7865 34.8945 35.0211 33.2324 35.138 31.56C35.1163 31.4169 35.0437 31.2865 34.9334 31.1928C34.8231 31.0991 34.6827 31.0483 34.538 31.05H26.48C26.162 31.05 25.88 31.308 25.97 31.56ZM27.626 39.66C29.426 43.548 31.58 43.614 33.368 39.66C33.4026 39.5831 33.4171 39.4986 33.4101 39.4146C33.4031 39.3306 33.3749 39.2497 33.3282 39.1795C33.2814 39.1094 33.2176 39.0523 33.1427 39.0135C33.0678 38.9747 32.9843 38.9556 32.9 38.958C31.3041 38.8122 29.6993 38.7901 28.1 38.892C28.0179 38.9091 27.9403 38.9432 27.8722 38.9921C27.804 39.041 27.7469 39.1037 27.7045 39.1761C27.6621 39.2484 27.6354 39.3289 27.626 39.4122C27.6166 39.4956 27.6248 39.58 27.65 39.66H27.626ZM19.7 48.648C19.1 48.264 18.614 47.946 18.038 47.562C16.892 46.734 15.746 48.522 16.838 49.284C17.48 49.668 18.038 50.052 18.686 50.436C18.9247 50.572 19.2077 50.6077 19.4727 50.5351C19.7377 50.4625 19.963 50.2877 20.099 50.049C20.2351 49.8103 20.2707 49.5273 20.1982 49.2623C20.1256 48.9973 19.9507 48.772 19.712 48.636L19.7 48.648ZM8.03003 37.248C8.11596 37.5129 8.30362 37.7329 8.55173 37.8595C8.79984 37.9861 9.08808 38.0089 9.35303 37.923C9.61798 37.837 9.83794 37.6494 9.96453 37.4013C10.0911 37.1532 10.114 36.8649 10.028 36.6C9.83603 35.964 9.64403 35.322 9.51803 34.686C9.26603 33.408 7.22003 33.732 7.47803 35.07C7.60751 35.8097 7.80845 36.5351 8.07803 37.236L8.03003 37.248ZM6.96803 28.632C6.95132 28.9025 7.04276 29.1686 7.22223 29.3717C7.4017 29.5748 7.65451 29.6983 7.92503 29.715C8.19555 29.7317 8.46163 29.6402 8.66473 29.4608C8.86783 29.2813 8.99132 29.0285 9.00803 28.758C9.07403 28.122 9.13403 27.48 9.20003 26.778C9.22091 26.644 9.2152 26.5073 9.18323 26.3755C9.15126 26.2438 9.09366 26.1196 9.01371 26.0102C8.85224 25.7891 8.60955 25.6411 8.33903 25.599C8.20508 25.5781 8.06833 25.5838 7.93659 25.6158C7.80484 25.6477 7.68069 25.7053 7.57121 25.7853C7.3501 25.9468 7.2022 26.1895 7.16003 26.46C7.03648 27.1775 6.97226 27.9039 6.96803 28.632ZM13.982 13.2C12.962 14.16 14.492 15.6 15.386 14.67C15.896 14.16 16.406 13.776 16.916 13.326C17.1269 13.1485 17.2586 12.8946 17.2822 12.6201C17.3059 12.3455 17.2195 12.0728 17.042 11.862C16.8646 11.6511 16.6107 11.5194 16.3361 11.4958C16.0616 11.4721 15.7889 11.5585 15.578 11.736C14.9994 12.1705 14.4648 12.6609 13.982 13.2ZM21.122 8.35798C20.869 8.46778 20.67 8.67359 20.5687 8.93014C20.4674 9.18669 20.4722 9.47296 20.582 9.72598C20.6918 9.97899 20.8976 10.178 21.1542 10.2793C21.4107 10.3806 21.697 10.3758 21.95 10.266C22.5534 9.99502 23.1725 9.76059 23.804 9.56398C23.9355 9.52335 24.0576 9.457 24.1632 9.36877C24.2687 9.28053 24.3557 9.17219 24.4191 9.05003C24.4824 8.92788 24.5208 8.79435 24.5321 8.65721C24.5434 8.52007 24.5272 8.38206 24.4847 8.25121C24.4421 8.12036 24.374 7.99927 24.2842 7.895C24.1944 7.79072 24.0848 7.70533 23.9617 7.6438C23.8387 7.58228 23.7046 7.54583 23.5673 7.53659C23.43 7.52735 23.2922 7.5455 23.162 7.58998C22.4683 7.80796 21.7873 8.06436 21.122 8.35798ZM38.084 7.65598C37.8278 7.58413 37.5539 7.61223 37.3176 7.73459C37.0814 7.85696 36.9004 8.06446 36.8112 8.31516C36.722 8.56585 36.7314 8.84105 36.8374 9.08512C36.9433 9.32919 37.138 9.52393 37.382 9.62998H37.448C38.0631 9.82342 38.6644 10.0579 39.248 10.332H39.308C39.4321 10.4057 39.5706 10.4521 39.714 10.468C39.8575 10.484 40.0028 10.4691 40.14 10.4244C40.2773 10.3797 40.4034 10.3062 40.51 10.2088C40.6166 10.1114 40.7011 9.99237 40.758 9.85968C40.8149 9.72698 40.8427 9.58368 40.8398 9.43934C40.8368 9.29501 40.803 9.15297 40.7407 9.02273C40.6784 8.8925 40.5891 8.77706 40.4786 8.68415C40.3681 8.59124 40.239 8.52299 40.1 8.48398V8.39998C39.404 8.14798 38.762 7.88998 38.06 7.63798L38.084 7.65598ZM45.608 11.928C44.654 11.034 43.25 12.564 44.27 13.458V13.518C44.7887 13.9098 45.2799 14.3368 45.74 14.796C45.8322 14.8921 45.9424 14.9691 46.0644 15.0227C46.1863 15.0762 46.3177 15.1052 46.4508 15.108C46.584 15.1108 46.7164 15.0873 46.8405 15.0389C46.9645 14.9905 47.0779 14.9182 47.174 14.826C47.2702 14.7338 47.3472 14.6236 47.4007 14.5016C47.4542 14.3797 47.4832 14.2484 47.486 14.1152C47.4888 13.982 47.4653 13.8496 47.4169 13.7255C47.3686 13.6014 47.2962 13.4881 47.204 13.392C46.7213 12.8529 46.1867 12.3625 45.608 11.928ZM53.834 26.718C53.7919 26.4475 53.6439 26.2048 53.4228 26.0433C53.2017 25.8818 52.9255 25.8148 52.655 25.857C52.3845 25.8991 52.1418 26.0471 51.9803 26.2682C51.8189 26.4893 51.7519 26.7655 51.794 27.036C51.8939 27.69 51.958 28.349 51.986 29.01C52.0123 29.276 52.1384 29.5222 52.339 29.6988C52.5396 29.8755 52.7998 29.9695 53.067 29.9619C53.3342 29.9543 53.5886 29.8456 53.7788 29.6578C53.969 29.47 54.081 29.2171 54.092 28.95V28.884C54.026 28.182 53.966 27.48 53.9 26.778L53.834 26.718ZM53.456 35.4C53.4895 35.27 53.4971 35.1346 53.4782 35.0017C53.4594 34.8688 53.4146 34.7409 53.3464 34.6253C53.2781 34.5096 53.1878 34.4086 53.0805 34.3279C52.9732 34.2472 52.851 34.1885 52.721 34.155C52.591 34.1215 52.4557 34.1139 52.3228 34.1328C52.1898 34.1516 52.0619 34.1964 51.9463 34.2646C51.8307 34.3329 51.7297 34.4232 51.649 34.5305C51.5683 34.6378 51.5095 34.76 51.476 34.89C51.284 35.526 51.158 36.162 50.906 36.804C50.456 38.142 52.496 38.712 52.88 37.506C53.1385 36.822 53.3392 36.1175 53.48 35.4H53.456ZM43.892 49.416C44.0147 49.3447 44.1215 49.2491 44.2058 49.135C44.2901 49.0209 44.3501 48.8907 44.3821 48.7525C44.4141 48.6143 44.4174 48.471 44.3919 48.3314C44.3663 48.1919 44.3124 48.0591 44.2336 47.9412C44.1547 47.8232 44.0525 47.7227 43.9332 47.6459C43.814 47.569 43.6803 47.5174 43.5403 47.4942C43.4003 47.4711 43.2571 47.4769 43.1195 47.5112C42.9818 47.5456 42.8527 47.6078 42.74 47.694C42.23 48.072 41.594 48.456 41.084 48.774C40.9658 48.8366 40.8611 48.9219 40.7759 49.025C40.6907 49.1281 40.6266 49.247 40.5873 49.3749C40.5481 49.5027 40.5344 49.6371 40.547 49.7703C40.5596 49.9034 40.5984 50.0328 40.661 50.151C40.7237 50.2692 40.809 50.3739 40.9121 50.4591C41.0152 50.5443 41.1341 50.6084 41.2619 50.6477C41.3898 50.6869 41.5241 50.7006 41.6573 50.688C41.7905 50.6754 41.9198 50.6366 42.038 50.574C42.6899 50.2496 43.3105 49.866 43.892 49.428V49.416ZM30.5 50.754C29.9435 50.7571 29.4105 50.9792 29.0164 51.3722C28.6223 51.7651 28.3987 52.2974 28.394 52.854C28.4341 53.3835 28.6727 53.8784 29.0621 54.2394C29.4515 54.6005 29.963 54.8011 30.494 54.8011C31.0251 54.8011 31.5365 54.6005 31.9259 54.2394C32.3153 53.8784 32.554 53.3835 32.594 52.854C32.5893 52.2985 32.3666 51.7671 31.9738 51.3742C31.5809 50.9814 31.0495 50.7587 30.494 50.754H30.5ZM30.5 5.10598C30.2275 5.10041 29.9565 5.1489 29.7028 5.24863C29.4491 5.34836 29.2176 5.49736 29.0218 5.68703C28.826 5.87671 28.6697 6.10329 28.562 6.3537C28.4542 6.60411 28.3971 6.87338 28.394 7.14598C28.4341 7.67551 28.6727 8.17036 29.0621 8.53143C29.4515 8.8925 29.963 9.09312 30.494 9.09312C31.0251 9.09312 31.5365 8.8925 31.9259 8.53143C32.3153 8.17036 32.554 7.67551 32.594 7.14598C32.5909 6.87441 32.5342 6.60613 32.4272 6.35652C32.3202 6.10691 32.165 5.88086 31.9704 5.69135C31.7759 5.50184 31.5459 5.35258 31.2936 5.25213C31.0412 5.15168 30.7716 5.10201 30.5 5.10598ZM52.814 41.106C52.549 41.1748 52.3003 41.2957 52.0826 41.4619C51.8649 41.628 51.6825 41.8359 51.5462 42.0733C51.4098 42.3108 51.3222 42.5731 51.2886 42.8449C51.2549 43.1166 51.2758 43.3924 51.35 43.656C51.4091 43.9272 51.5239 44.1832 51.6871 44.4077C51.8503 44.6322 52.0583 44.8204 52.2981 44.9603C52.5378 45.1002 52.804 45.1887 53.0798 45.2203C53.3555 45.252 53.6348 45.226 53.9 45.144C54.4291 44.9964 54.8792 44.6474 55.154 44.1719C55.4288 43.6963 55.5063 43.132 55.37 42.6C55.2071 42.0783 54.8534 41.6373 54.3797 41.3648C53.9059 41.0923 53.3469 41.0085 52.814 41.13V41.106ZM7.10003 14.796C6.57833 14.9564 6.13701 15.309 5.86525 15.7823C5.59349 16.2557 5.51156 16.8145 5.63603 17.346C5.70407 17.6115 5.82462 17.8606 5.99054 18.0788C6.15646 18.2969 6.36441 18.4796 6.60209 18.6161C6.83978 18.7525 7.1024 18.84 7.37444 18.8733C7.64648 18.9066 7.92244 18.8851 8.18603 18.81C8.45508 18.7481 8.70845 18.6313 8.93025 18.467C9.15205 18.3026 9.33749 18.0941 9.47494 17.8547C9.6124 17.6153 9.6989 17.3501 9.72903 17.0756C9.75916 16.8012 9.73226 16.5235 9.65003 16.26C9.50258 15.7299 9.1524 15.2791 8.67521 15.0051C8.19802 14.7312 7.63217 14.656 7.10003 14.796Z" fill="#EA6F37"/>
</svg>
