<svg width="16" height="17" viewBox="0 0 16 17" fill="none" xmlns="http://www.w3.org/2000/svg">
<mask id="mask0_2_825" style="mask-type:alpha" maskUnits="userSpaceOnUse" x="0" y="0" width="16" height="17">
<rect y="0.713074" width="16" height="16" fill="#D9D9D9"/>
</mask>
<g mask="url(#mask0_2_825)">
<path d="M6.71538 14.2118C5.62478 13.9323 4.73291 13.346 4.03975 12.4528C3.34658 11.5597 3 10.5353 3 9.37975C3 8.82505 3.0906 8.2883 3.2718 7.7695C3.453 7.2507 3.70941 6.76865 4.04103 6.32335C4.13333 6.19771 4.25876 6.13041 4.4173 6.12143C4.57584 6.11245 4.7158 6.16865 4.83717 6.29001C4.92948 6.38232 4.97734 6.49215 4.98075 6.6195C4.98417 6.74684 4.94528 6.86906 4.86408 6.98615C4.59401 7.32376 4.39358 7.69833 4.2628 8.10986C4.13203 8.52141 4.06665 8.9447 4.06665 9.37975C4.06665 10.2635 4.32392 11.0513 4.83845 11.7432C5.35298 12.4351 6.02521 12.9037 6.85512 13.149C6.97648 13.1917 7.08097 13.2703 7.16858 13.3849C7.25618 13.4994 7.29998 13.6173 7.29998 13.7387C7.29998 13.9054 7.24251 14.0366 7.12755 14.1323C7.01259 14.228 6.87521 14.2545 6.71538 14.2118ZM9.28458 14.2246C9.12476 14.2673 8.98737 14.2419 8.87242 14.1483C8.75746 14.0547 8.69998 13.9246 8.69998 13.7579C8.69998 13.6323 8.74378 13.5122 8.83138 13.3977C8.91899 13.2832 9.02348 13.2024 9.14485 13.1554C9.97049 12.893 10.6416 12.418 11.1583 11.7304C11.675 11.0428 11.9333 10.2592 11.9333 9.37975C11.9333 8.27975 11.5555 7.34919 10.8 6.58808C10.0444 5.82697 9.12221 5.44641 8.03332 5.44641H7.83073L8.31282 5.92848C8.42051 6.03617 8.47435 6.15882 8.47435 6.29643C8.47435 6.43403 8.42051 6.55667 8.31282 6.66436C8.19402 6.78316 8.06581 6.84256 7.9282 6.84256C7.7906 6.84256 7.66796 6.78316 7.56027 6.66436L6.24745 5.36821C6.17395 5.29471 6.1216 5.22057 6.0904 5.14578C6.0592 5.07099 6.0436 4.99343 6.0436 4.9131C6.0436 4.83275 6.0592 4.75518 6.0904 4.6804C6.1216 4.60562 6.17395 4.53147 6.24745 4.45796L7.56027 3.14515C7.66796 3.03746 7.7906 2.98361 7.9282 2.98361C8.06581 2.98361 8.19402 3.03746 8.31282 3.14515C8.42051 3.26395 8.47435 3.39215 8.47435 3.52976C8.47435 3.66736 8.42051 3.79001 8.31282 3.8977L7.83073 4.37976H8.03332C9.42818 4.37976 10.6047 4.86438 11.5628 5.83361C12.5209 6.80283 13 7.98488 13 9.37975C13 10.5353 12.6523 11.5575 11.957 12.4464C11.2617 13.3353 10.3709 13.928 9.28458 14.2246Z" fill="white" fill-opacity="0.6"/>
</g>
</svg>
