<svg width="16" height="17" viewBox="0 0 16 17" fill="none" xmlns="http://www.w3.org/2000/svg">
<mask id="mask0_2_743" style="mask-type:alpha" maskUnits="userSpaceOnUse" x="0" y="0" width="16" height="17">
<rect y="0.713074" width="16" height="16" fill="#D9D9D9"/>
</mask>
<g mask="url(#mask0_2_743)">
<path d="M12.6269 14.063L8.87436 10.3105C8.50769 10.5968 8.11047 10.8094 7.68269 10.9483C7.25491 11.0872 6.82051 11.1566 6.37949 11.1566C5.24005 11.1566 4.27015 10.7621 3.46979 9.97305C2.66943 9.18401 2.26926 8.21991 2.26926 7.08077C2.26926 5.94161 2.66933 4.9716 3.46949 4.17075C4.26965 3.3699 5.2393 2.96948 6.37846 2.96948C7.5176 2.96948 8.48205 3.36966 9.27179 4.17002C10.0615 4.97037 10.4564 5.94027 10.4564 7.07972C10.4564 7.53356 10.3876 7.97437 10.25 8.40215C10.1124 8.82993 9.89913 9.21518 9.61024 9.55792L13.3795 13.3438C13.4829 13.4454 13.5318 13.5649 13.5263 13.7021C13.5207 13.8393 13.4658 13.9601 13.3614 14.0644C13.2547 14.1712 13.1325 14.2246 12.9949 14.2246C12.8573 14.2246 12.7346 14.1707 12.6269 14.063ZM6.37949 10.09C7.21625 10.09 7.92715 9.79746 8.51219 9.21242C9.09723 8.62737 9.38976 7.91647 9.38976 7.07972C9.38976 6.23185 9.10001 5.51262 8.52052 4.92202C7.94103 4.33142 7.22736 4.03612 6.37949 4.03612C5.53162 4.03612 4.81239 4.33142 4.22179 4.92202C3.6312 5.51262 3.33591 6.23185 3.33591 7.07972C3.33591 7.92758 3.6312 8.64126 4.22179 9.22075C4.81239 9.80024 5.53162 10.09 6.37949 10.09Z" fill="white" fill-opacity="0.4"/>
</g>
</svg>
