<svg width="61" height="60" viewBox="0 0 61 60" fill="none" xmlns="http://www.w3.org/2000/svg">
<path d="M48.9959 23.9278C48.8731 23.9161 48.7492 23.9289 48.6313 23.9654C48.5135 24.002 48.404 24.0616 48.3094 24.1408C48.2148 24.22 48.1368 24.3172 48.0801 24.4267C48.0233 24.5363 47.9889 24.656 47.9787 24.779C47.7766 27.0877 47.1144 29.3325 46.0313 31.3813C44.9482 33.4302 43.4661 35.2415 41.6722 36.7087C39.421 38.4954 37.6574 40.8217 36.545 43.4718H32.3281C32.0795 43.4718 31.841 43.5706 31.6652 43.7464C31.4894 43.9222 31.3906 44.1607 31.3906 44.4093C31.3906 44.658 31.4894 44.8964 31.6652 45.0722C31.841 45.2481 32.0795 45.3468 32.3281 45.3468H35.8803C35.5955 46.3553 35.4263 47.3929 35.3759 48.4396C35.3597 48.7599 35.2195 49.0612 34.985 49.2799C34.7506 49.4986 34.4403 49.6175 34.1197 49.6115L26.9478 49.6209C26.6195 49.6201 26.3041 49.4935 26.0664 49.2671C25.8287 49.0408 25.6868 48.7319 25.67 48.404C25.5986 47.3643 25.3977 46.3377 25.0719 45.3478H28.5781C28.8268 45.3478 29.0652 45.249 29.241 45.0732C29.4168 44.8974 29.5156 44.6589 29.5156 44.4103C29.5156 44.1616 29.4168 43.9232 29.241 43.7474C29.0652 43.5715 28.8268 43.4728 28.5781 43.4728H24.3387C23.1832 40.8904 21.4805 38.5899 19.3484 36.7303C7.07281 26.5912 13.6203 6.57183 29.5475 5.65215C34.0204 5.40938 38.4168 6.88578 41.8366 9.779C45.2563 12.6722 47.4406 16.7634 47.9422 21.2146C47.9695 21.4619 48.094 21.6882 48.2882 21.8437C48.4824 21.9992 48.7304 22.0712 48.9776 22.0439C49.2249 22.0165 49.4512 21.8921 49.6067 21.6979C49.7622 21.5037 49.8342 21.2557 49.8069 21.0084C46.6325 -2.05223 13.9906 -1.77098 11.1547 21.3065C10.8535 24.4774 11.3347 27.6737 12.5559 30.6154C13.7772 33.5571 15.7013 36.1544 18.1597 38.1796C20.2125 39.9905 21.8236 42.2472 22.8697 44.7768C24.1325 47.0634 23.0787 50.115 25.7141 51.2343C25.6839 51.8806 25.785 52.5262 26.0111 53.1323C26.2373 53.7384 26.5838 54.2924 27.0299 54.761C27.476 55.2295 28.0124 55.6028 28.6066 55.8584C29.2009 56.114 29.8408 56.2466 30.4877 56.2482C31.1347 56.2498 31.7752 56.1203 32.3707 55.8676C32.9663 55.6149 33.5045 55.2443 33.9528 54.7779C34.4012 54.3116 34.7505 53.7593 34.9796 53.1543C35.2087 52.5493 35.3129 51.9041 35.2859 51.2578C38.0197 50.1984 36.9059 47.0109 38.0441 44.7375C39.0257 42.1486 40.691 39.8744 42.8628 38.1571C44.8495 36.5323 46.4909 34.5262 47.6903 32.2571C48.8896 29.988 49.6227 27.5018 49.8462 24.945C49.8684 24.6973 49.7912 24.451 49.6317 24.2603C49.4723 24.0695 49.2436 23.9499 48.9959 23.9278ZM30.5 54.375C29.7316 54.3738 28.9945 54.0702 28.4482 53.5298C27.9019 52.9895 27.5902 52.2558 27.5806 51.4875H33.4184C33.4088 52.2556 33.0973 52.9892 32.5512 53.5295C32.0051 54.0698 31.2682 54.3735 30.5 54.375Z" fill="#EA6F37"/>
<path d="M31.3906 37.2357C31.6336 37.2875 31.8872 37.2411 32.0961 37.1065C32.3049 36.972 32.4521 36.7602 32.5053 36.5175C33.0397 34.05 32.8344 32.1994 31.8931 31.0182C31.6127 30.6578 31.2558 30.3642 30.8483 30.1583C30.4408 29.9524 29.9927 29.8395 29.5362 29.8275C27.4653 30.0122 25.325 29.8932 24.199 27.9853C22.5378 25.0885 25.2397 22.9857 26.9459 22.8694C27.1922 22.8409 27.4172 22.716 27.5717 22.5221C27.7261 22.3281 27.7974 22.0808 27.77 21.8344C27.7401 21.5882 27.6148 21.3635 27.4212 21.2086C27.2275 21.0536 26.9808 20.9808 26.734 21.0057C25.61 21.0432 21.7465 22.4757 21.829 26.2547C18.6219 25.4157 16.8622 21.1228 18.8169 18.3657C19.1628 17.8384 19.6152 17.3894 20.1452 17.0476C20.6751 16.7057 21.2707 16.4787 21.8937 16.381C21.8248 17.0531 21.8324 17.7309 21.9162 18.4013C21.9581 18.6435 22.0935 18.8596 22.2932 19.003C22.4929 19.1464 22.741 19.2056 22.9839 19.1679C23.2269 19.1301 23.4453 18.9985 23.5921 18.8012C23.7389 18.604 23.8023 18.357 23.7687 18.1135C23.7453 17.9522 23.2147 14.1619 26.2222 12.1744C26.9844 11.4385 28.9737 11.6382 28.7122 10.2403C28.6511 9.9994 28.497 9.79248 28.2837 9.66491C28.0704 9.53733 27.8152 9.49951 27.574 9.55972C26.3527 9.86472 25.2281 10.4732 24.3046 11.3287C23.3811 12.1842 22.6886 13.259 22.2912 14.4535C17.945 14.536 14.5156 19.6847 16.8753 24.2982C17.3837 25.3429 18.1379 26.2488 19.0731 26.9381C20.0084 27.6275 21.0969 28.0798 22.2453 28.2563C22.3444 28.4971 22.4607 28.7305 22.5931 28.9547C24.0228 31.4297 26.9178 32.0072 29.5981 31.6988C29.9276 31.7457 30.2253 31.9205 30.4269 32.1853C30.9837 32.8857 31.0709 34.2825 30.6725 36.12C30.6463 36.2404 30.644 36.3647 30.6659 36.4859C30.6878 36.6071 30.7333 36.7228 30.7999 36.8264C30.8665 36.93 30.9529 37.0195 31.0541 37.0897C31.1553 37.1599 31.2702 37.2095 31.3906 37.2357ZM37.4375 31.2094C38.939 31.4699 40.4842 31.1865 41.7955 30.41C43.1068 29.6334 44.0982 28.4147 44.5915 26.9728C45.5975 23.8866 43.744 21.3591 42.3162 20.1732C42.335 18.9966 42.439 16.5244 40.8078 16.9013C40.6917 16.9423 40.5848 17.0059 40.4933 17.0883C40.4018 17.1708 40.3274 17.2704 40.2745 17.3816C40.2215 17.4928 40.191 17.6134 40.1847 17.7364C40.1784 17.8594 40.1965 17.9824 40.2378 18.0985C40.6615 19.2966 40.5031 20.911 39.7672 22.8957C39.686 23.1275 39.6991 23.382 39.8037 23.6043C39.9082 23.8266 40.0959 23.999 40.3262 24.0843C40.5566 24.1697 40.8112 24.1613 41.0354 24.0608C41.2596 23.9604 41.4354 23.776 41.525 23.5472C41.6703 23.1553 41.7894 22.7757 41.8953 22.4035C42.384 22.9299 42.7256 23.5756 42.8859 24.2758C43.0461 24.9759 43.0194 25.7059 42.8084 26.3925C41.0656 30.9732 34.3822 30.4285 34.5547 24.6272C34.5393 24.384 34.4297 24.1563 34.2493 23.9924C34.0689 23.8285 33.8317 23.7414 33.5881 23.7494C33.3445 23.7575 33.1136 23.8601 32.9443 24.0355C32.7751 24.2109 32.6808 24.4453 32.6815 24.6891C32.8447 29.6185 35.7312 30.8897 37.4375 31.2094Z" fill="#EA6F37"/>
<path d="M26.8662 15.375C26.8663 15.543 26.9115 15.708 26.9973 15.8525C27.0831 15.997 27.2062 16.1157 27.3537 16.1962L30.7325 18.045L32.5812 21.4237C32.6618 21.5714 32.7807 21.6947 32.9254 21.7806C33.07 21.8665 33.2352 21.9118 33.4034 21.9118C33.5717 21.9118 33.7368 21.8665 33.8815 21.7806C34.0262 21.6947 34.145 21.5714 34.2256 21.4237L36.0734 18.045L39.4522 16.1962C39.5999 16.1157 39.7231 15.9968 39.809 15.8521C39.8949 15.7074 39.9402 15.5423 39.9402 15.374C39.9402 15.2058 39.8949 15.0407 39.809 14.896C39.7231 14.7513 39.5999 14.6324 39.4522 14.5519L36.0734 12.704L34.2256 9.32529C34.1377 9.18687 34.0162 9.07288 33.8725 8.99391C33.7288 8.91494 33.5674 8.87354 33.4034 8.87354C33.2394 8.87354 33.0781 8.91494 32.9344 8.99391C32.7906 9.07288 32.6692 9.18687 32.5812 9.32529L30.7325 12.704L27.3547 14.5519C27.2068 14.6323 27.0834 14.7511 26.9975 14.8958C26.9115 15.0405 26.8662 15.2067 26.8662 15.375ZM31.8725 14.2172C32.2456 14.1159 33.1475 12.1012 33.4034 11.729L34.5612 13.845C34.6625 14.2172 36.6781 15.119 37.0484 15.374L34.9334 16.5319C34.5622 16.6331 33.6584 18.6506 33.4034 19.02C33.14 18.6356 32.2484 16.6359 31.8734 16.5319L29.7575 15.374L31.8725 14.2172Z" fill="#EA6F37"/>
</svg>
