<svg width="24" height="25" viewBox="0 0 24 25" fill="none" xmlns="http://www.w3.org/2000/svg">
<path d="M16 2.71307H8C4 2.71307 2 4.71307 2 8.71307V21.7131C2 22.2631 2.45 22.7131 3 22.7131H16C20 22.7131 22 20.7131 22 16.7131V8.71307C22 4.71307 20 2.71307 16 2.71307ZM15.5 13.4631H12.75V16.2131C12.75 16.6231 12.41 16.9631 12 16.9631C11.59 16.9631 11.25 16.6231 11.25 16.2131V13.4631H8.5C8.09 13.4631 7.75 13.1231 7.75 12.7131C7.75 12.3031 8.09 11.9631 8.5 11.9631H11.25V9.21307C11.25 8.80307 11.59 8.46307 12 8.46307C12.41 8.46307 12.75 8.80307 12.75 9.21307V11.9631H15.5C15.91 11.9631 16.25 12.3031 16.25 12.7131C16.25 13.1231 15.91 13.4631 15.5 13.4631Z" fill="#EA6F37"/>
</svg>
