<svg width="22" height="22" viewBox="0 0 22 22" fill="none" xmlns="http://www.w3.org/2000/svg">
<path d="M10.0833 1.83337C6.62637 1.83337 4.89788 1.83337 3.82394 2.86805C2.75 3.90273 2.75 5.56802 2.75 8.89861V16.4825C2.75 18.5962 2.75 19.653 3.45844 20.0313C4.83035 20.7639 7.40373 18.3198 8.62584 17.5839C9.3346 17.1571 9.68899 16.9437 10.0833 16.9437C10.4777 16.9437 10.8321 17.1571 11.5408 17.5839C12.7629 18.3198 15.3363 20.7639 16.7082 20.0313C17.4167 19.653 17.4167 18.5962 17.4167 16.4825V11.4584" stroke="#141718" stroke-width="1.5" stroke-linecap="round" stroke-linejoin="round"/>
<path d="M3.20825 6.41675H9.16659" stroke="#141718" stroke-width="1.5" stroke-linecap="round"/>
<path d="M15.5834 9.16671L15.5834 1.83337M11.9167 5.50004H19.2501" stroke="#141718" stroke-width="1.5" stroke-linecap="round"/>
</svg>
