<svg width="361" height="360" viewBox="0 0 361 360" fill="none" xmlns="http://www.w3.org/2000/svg">
<g clip-path="url(#clip0_146_1309)">
<g clip-path="url(#clip1_146_1309)">
<path d="M180.5 304.941C256.355 304.941 317.847 243.449 317.847 167.595C317.847 91.7402 256.355 30.248 180.5 30.248C104.646 30.248 43.1533 91.7402 43.1533 167.595C43.1533 243.449 104.646 304.941 180.5 304.941Z" fill="#E7ECF7"/>
<path d="M353.666 301.591C353.664 300.757 353.331 299.957 352.74 299.367C352.149 298.777 351.349 298.446 350.514 298.446H318.383C317.548 298.446 316.747 298.777 316.156 299.367C315.565 299.957 315.232 300.757 315.23 301.591V310.971C315.234 313.933 315.924 316.854 317.247 319.505C329.004 315.76 341.571 314.328 353.666 310.033V301.591Z" fill="#FBAF32"/>
<path d="M317.247 319.484C319.173 323.364 322.354 326.479 326.273 328.324C330.192 330.169 334.62 330.635 338.838 329.647C343.056 328.659 346.815 326.274 349.507 322.88C352.199 319.486 353.664 315.282 353.666 310.95V310.033C341.571 314.328 329.004 315.76 317.247 319.484Z" fill="#FBAF32"/>
<path d="M352.037 300.787C352.037 299.8 344.449 299.003 335.111 299.003C325.774 299.003 318.185 299.8 318.185 300.787C318.185 301.775 325.774 302.579 335.111 302.579C344.449 302.579 352.037 301.782 352.037 300.787Z" fill="#313440"/>
<path d="M333.531 269.059C333.891 268.579 339.173 253.67 332.826 252.358C326.479 251.047 323.87 256.413 322.953 263.452C322.036 270.49 324.504 279.44 323.305 279.792C322.106 280.145 320.442 275.497 317.219 278.008C313.996 280.519 316.859 284.927 319.25 287.31C321.641 289.694 321.521 290.653 321.041 290.653C320.562 290.653 318.058 289.243 316.627 291.246C315.195 293.248 315.216 298.404 323.545 301.027C323.545 301.027 330.351 302.819 335.005 300.907C339.66 298.996 333.531 269.059 333.531 269.059Z" fill="#8D9F58"/>
<path d="M334.963 301.345C335.922 301.345 342.283 301.986 344.992 300.555C347.7 299.123 354.865 288.784 352.629 286.238C350.394 283.692 348.334 284.172 348.334 284.172C348.334 284.172 356.931 274.94 352.474 273.671C348.017 272.401 346.585 274.623 346.585 274.623C346.585 274.623 352.792 255.539 343.243 256.018C333.694 256.498 338.941 274.468 338.941 274.468C338.941 274.468 337.354 267.147 332.262 268.424C327.17 269.7 328.122 279.08 330.851 286.055C330.851 286.055 327.516 283.192 325.604 286.69C323.693 290.188 334.963 301.345 334.963 301.345Z" fill="#AFC46B"/>
<path d="M341.049 295.449C340.997 295.451 340.945 295.438 340.9 295.41C340.855 295.383 340.82 295.342 340.799 295.294C340.777 295.246 340.771 295.193 340.781 295.141C340.79 295.089 340.815 295.042 340.852 295.004C340.894 294.955 345.027 290.202 343.906 287.409C343.807 287.107 343.642 286.831 343.422 286.601C343.202 286.372 342.934 286.195 342.636 286.083C341.423 285.709 339.9 286.69 339.886 286.697C339.843 286.726 339.793 286.742 339.741 286.742C339.689 286.742 339.639 286.726 339.597 286.697C339.552 286.669 339.516 286.629 339.494 286.581C339.471 286.534 339.463 286.481 339.47 286.429C339.47 286.344 340.633 277.966 338.659 273.452C338.645 273.42 338.637 273.385 338.637 273.35C338.636 273.314 338.643 273.279 338.656 273.247C338.669 273.214 338.689 273.184 338.713 273.159C338.738 273.134 338.767 273.113 338.8 273.099C338.832 273.086 338.867 273.078 338.902 273.078C338.937 273.077 338.972 273.084 339.005 273.097C339.038 273.11 339.068 273.129 339.093 273.154C339.118 273.179 339.138 273.208 339.152 273.241C340.915 277.282 340.302 284.017 340.076 285.97C340.902 285.511 341.866 285.366 342.791 285.561C343.169 285.691 343.512 285.907 343.792 286.193C344.073 286.478 344.283 286.824 344.406 287.204C345.648 290.3 341.437 295.145 341.254 295.35C341.23 295.381 341.199 295.406 341.163 295.424C341.128 295.441 341.089 295.449 341.049 295.449ZM331.62 298.199C331.584 298.199 331.549 298.192 331.516 298.177C331.483 298.163 331.454 298.141 331.43 298.115C331.105 297.776 323.552 289.821 325.336 286.584C325.545 286.168 325.837 285.8 326.194 285.502C326.55 285.203 326.964 284.981 327.41 284.849C328.614 284.606 329.866 284.803 330.936 285.406C330.998 285.442 331.043 285.5 331.061 285.569C331.08 285.638 331.07 285.711 331.035 285.773C330.999 285.834 330.941 285.88 330.872 285.898C330.803 285.917 330.73 285.907 330.668 285.871C329.724 285.346 328.627 285.167 327.565 285.364C327.189 285.478 326.84 285.669 326.54 285.923C326.241 286.178 325.996 286.492 325.823 286.845C324.497 289.243 329.709 295.526 331.832 297.741C331.881 297.792 331.908 297.86 331.908 297.931C331.908 298.002 331.881 298.07 331.832 298.122C331.804 298.148 331.77 298.169 331.734 298.182C331.698 298.196 331.659 298.202 331.62 298.199ZM343.44 272.07C343.381 272.069 343.324 272.05 343.278 272.013C343.249 271.993 343.226 271.966 343.208 271.936C343.19 271.906 343.178 271.872 343.173 271.837C343.169 271.802 343.171 271.767 343.181 271.733C343.19 271.699 343.206 271.667 343.229 271.64C343.229 271.604 345.88 268.177 345.443 266.4C345.399 266.22 345.312 266.055 345.189 265.917C345.066 265.779 344.911 265.674 344.738 265.61C344.513 265.494 344.265 265.43 344.013 265.422C343.76 265.415 343.509 265.465 343.278 265.567C341.903 266.188 341.162 268.515 341.162 268.544C341.153 268.578 341.136 268.61 341.114 268.638C341.091 268.666 341.063 268.689 341.031 268.705C340.999 268.722 340.965 268.732 340.929 268.734C340.893 268.737 340.857 268.732 340.824 268.72C340.757 268.699 340.701 268.652 340.668 268.59C340.635 268.528 340.627 268.456 340.647 268.388C340.647 268.276 341.451 265.8 343.052 265.074C343.353 264.941 343.68 264.876 344.009 264.883C344.338 264.891 344.661 264.97 344.956 265.116C345.2 265.217 345.415 265.375 345.586 265.576C345.756 265.777 345.877 266.016 345.937 266.273C346.437 268.297 343.736 271.816 343.623 271.964C343.602 271.994 343.575 272.018 343.543 272.036C343.511 272.055 343.476 272.066 343.44 272.07ZM323.743 285.554C323.687 285.554 323.634 285.536 323.588 285.505C323.543 285.474 323.508 285.429 323.489 285.378C323.489 285.314 322.974 283.883 324.504 282.345C324.704 282.131 324.943 281.959 325.21 281.838C325.476 281.717 325.763 281.65 326.056 281.64C326.672 281.703 327.242 281.998 327.65 282.465C327.675 282.489 327.694 282.519 327.708 282.551C327.721 282.583 327.728 282.617 327.728 282.652C327.728 282.687 327.721 282.721 327.708 282.753C327.694 282.786 327.675 282.815 327.65 282.839C327.625 282.864 327.595 282.884 327.562 282.898C327.53 282.911 327.495 282.918 327.459 282.918C327.424 282.918 327.389 282.911 327.356 282.898C327.323 282.884 327.294 282.864 327.269 282.839C326.954 282.489 326.523 282.266 326.056 282.211C325.84 282.218 325.628 282.268 325.432 282.357C325.236 282.447 325.059 282.575 324.913 282.733C323.637 284.017 324.011 285.152 324.025 285.202C324.037 285.234 324.042 285.269 324.041 285.304C324.039 285.339 324.031 285.374 324.015 285.405C324 285.437 323.979 285.465 323.953 285.488C323.926 285.511 323.896 285.529 323.862 285.54C323.825 285.556 323.783 285.561 323.743 285.554Z" fill="#313440"/>
<path d="M354.181 284.807C355.803 286.513 361.586 279.08 358.955 278.241C356.325 277.402 352.037 282.536 354.181 284.807Z" fill="#AFC46B"/>
<path d="M316.754 267.627C314.504 268.332 318.594 276.795 320.513 274.82C322.431 272.846 319.737 266.71 316.754 267.627Z" fill="#8D9F58"/>
<path d="M351.438 266.675C352.686 267.295 353.109 265.003 352.39 264.764C351.67 264.524 350.485 266.195 351.438 266.675Z" fill="#AFC46B"/>
<path d="M315.865 276.217C317.113 276.837 317.536 274.545 316.817 274.305C316.098 274.066 314.913 275.758 315.865 276.217ZM338.186 253.67C340.471 253.896 339.738 247.943 338.426 247.943C337.114 247.943 335.802 253.43 338.186 253.67ZM314.913 288.142C314.913 288.142 314.673 284.447 311.57 285.046C308.467 285.646 310.731 292.557 313.241 292.099C315.752 291.64 314.913 288.142 314.913 288.142Z" fill="#8D9F58"/>
<path d="M353.716 308.524C353.426 308.524 353.137 308.446 352.855 308.425C350.739 308.263 348.292 309.053 347.827 311.211C347.705 311.984 347.77 312.775 348.017 313.517C348.059 313.693 348.109 313.863 348.144 314.039C348.271 314.638 348.201 315.167 347.975 315.33C347.749 315.492 347.009 315.174 346.621 314.624C346.437 314.356 346.267 314.079 346.113 313.792C345.755 313.041 345.241 312.375 344.604 311.839C344.145 311.526 343.621 311.324 343.071 311.247C342.522 311.171 341.962 311.222 341.435 311.396C340.909 311.571 340.43 311.865 340.035 312.254C339.64 312.644 339.34 313.12 339.159 313.644C339.091 313.941 339.043 314.243 339.018 314.547C338.997 314.751 338.962 314.954 338.912 315.153C338.806 315.488 338.602 315.783 338.327 316C338.052 316.218 337.718 316.348 337.368 316.373C337.019 316.375 336.678 316.274 336.386 316.084C336.094 315.893 335.864 315.621 335.725 315.301C335.607 314.917 335.538 314.519 335.52 314.117C335.492 313.563 335.392 313.016 335.224 312.487C334.993 311.931 334.634 311.437 334.177 311.046C333.719 310.654 333.176 310.375 332.591 310.233C332.006 310.09 331.396 310.087 330.809 310.224C330.223 310.36 329.677 310.633 329.215 311.021C328.65 311.59 328.2 312.263 327.889 313.002C327.762 313.263 327.636 313.524 327.487 313.771C327.163 314.321 326.578 314.843 326.147 314.737C325.717 314.631 325.351 313.736 325.083 312.967L325.019 312.77C324.686 311.654 324.016 310.668 323.101 309.949C322.551 309.531 321.882 309.298 321.192 309.284C320.501 309.27 319.824 309.476 319.257 309.871C318.932 310.147 318.647 310.467 318.411 310.823C318.326 310.943 318.242 311.063 318.143 311.183C317.859 311.488 317.503 311.718 317.108 311.851C316.712 311.984 316.29 312.016 315.879 311.944C315.675 311.92 315.474 311.873 315.28 311.803V312.509C315.28 312.939 315.315 313.355 315.343 313.778C315.442 313.778 315.533 313.835 315.639 313.849C316.366 313.966 317.111 313.898 317.805 313.651C318.499 313.405 319.12 312.988 319.61 312.438C319.737 312.29 319.85 312.128 319.962 311.973C320.095 311.765 320.254 311.576 320.435 311.408C320.677 311.275 320.954 311.216 321.23 311.238C321.506 311.261 321.769 311.364 321.987 311.535C322.58 312.033 323.008 312.7 323.214 313.447L323.277 313.637C323.658 314.744 324.18 316.253 325.675 316.634C327.17 317.015 328.496 315.88 329.131 314.787C329.3 314.497 329.455 314.194 329.603 313.891C329.819 313.372 330.125 312.894 330.506 312.48C330.735 312.313 330.997 312.198 331.275 312.143C331.553 312.088 331.84 312.094 332.116 312.161C332.391 312.228 332.648 312.355 332.87 312.532C333.091 312.709 333.271 312.932 333.397 313.186C333.509 313.559 333.573 313.946 333.588 314.335C333.618 314.914 333.727 315.486 333.912 316.035C334.184 316.707 334.649 317.283 335.247 317.692C335.846 318.101 336.551 318.324 337.276 318.334H337.431C338.18 318.287 338.896 318.011 339.484 317.545C340.071 317.078 340.502 316.443 340.718 315.725C340.796 315.441 340.851 315.15 340.88 314.857C340.903 314.648 340.941 314.441 340.993 314.236C341.077 314.003 341.215 313.793 341.397 313.623C341.578 313.454 341.798 313.331 342.037 313.263C342.268 313.177 342.515 313.147 342.76 313.174C343.005 313.2 343.24 313.284 343.447 313.418C343.867 313.803 344.206 314.268 344.442 314.787C344.632 315.125 344.829 315.492 345.048 315.781C345.979 317.093 347.735 317.897 349.068 316.945C349.957 316.324 350.302 315.111 350.006 313.7C349.964 313.503 349.914 313.299 349.858 313.101C349.702 312.648 349.642 312.168 349.682 311.691C349.893 310.71 351.395 310.28 352.693 310.407C353.031 310.407 353.398 310.478 353.708 310.52L353.716 308.524Z" fill="white"/>
<path d="M147.318 330.175H195.204" stroke="#555E7D" stroke-width="1.73491" stroke-miterlimit="10" stroke-linecap="round"/>
<path d="M1.36743 330.175L139.786 330.21" stroke="#555E7D" stroke-width="1.73491" stroke-miterlimit="10" stroke-linecap="round"/>
<path d="M215.537 330.175H359.633" stroke="#555E7D" stroke-width="1.73491" stroke-miterlimit="10" stroke-linecap="round"/>
<path d="M255.961 254.199C239.289 211.595 251.73 182.779 283.283 163.053C292.747 187.123 301.619 224.057 299.891 247.252C286.731 246.286 272.344 252.365 265.673 263.529C262.047 260.851 258.783 257.715 255.961 254.199Z" fill="#EFB38E"/>
<path d="M153.087 330.612H276.505C276.301 299.92 274.143 265.539 266.194 253.035C250.608 228.535 226.553 228.535 226.553 228.535L162.862 252.591C158.412 263.72 152.622 296.683 153.066 327.411C153.059 328.497 153.073 329.555 153.087 330.612Z" fill="#7D85B9"/>
<path d="M217.85 329.554C217.991 303.82 217.991 277.916 218.068 252.154" stroke="#40324C" stroke-width="0.669984" stroke-linecap="round" stroke-linejoin="round"/>
<path d="M239.451 308.277L218.513 313.623L193.575 308.277" stroke="#40324C" stroke-width="0.669984" stroke-linecap="round" stroke-linejoin="round"/>
<path d="M218.068 302.931L208.717 292.684L208.273 244.586" stroke="#40324C" stroke-width="0.669984" stroke-linecap="round" stroke-linejoin="round"/>
<path d="M197.137 316.296L218.513 313.623" stroke="#40324C" stroke-width="0.669984" stroke-linecap="round" stroke-linejoin="round"/>
<path d="M184.217 255.306C184.217 255.306 184.217 288.269 155.718 288.269M273.748 288.234C273.748 288.234 244.79 285.117 246.575 252.154" stroke="#40324C" stroke-width="0.669984" stroke-linecap="round" stroke-linejoin="round"/>
<path d="M96.2865 179.027C92.9013 153.835 91.0606 129.102 90.983 128.066L130.97 125.111C132.586 147.044 135.449 172.129 138.481 190.134C142.403 183.152 145.816 175.324 146.944 169.033L186.438 175.895C183.617 192.003 169.195 224.67 149.589 239.071C137.72 232.372 123.58 233.979 109.877 233.719C105.843 227.167 103.924 219.663 102.873 215.537C100.525 206.524 98.3246 194.246 96.2865 179.027Z" fill="#EFB38E"/>
<path d="M149.54 239.086C143.559 243.479 137.106 246.194 130.343 246.194C120.357 246.194 113.974 240.468 109.827 233.733C123.53 233.98 137.67 232.372 149.54 239.086Z" fill="#EFB38E"/>
<path d="M197.87 102.331C197.377 101.584 196.65 101.005 196.213 100.215C195.317 98.6004 195.881 96.5764 196.721 94.9261C196.869 94.6299 197.087 94.2984 197.426 94.2914C197.599 94.3039 197.765 94.365 197.905 94.4677C198.418 94.8006 198.877 95.2096 199.267 95.6807C197.856 96.6328 197.856 98.7133 198.491 100.272C199.126 101.83 200.19 103.206 200.607 104.842C200.788 105.607 200.809 106.402 200.668 107.176C200.526 107.95 200.226 108.686 199.786 109.338C199.346 109.99 198.776 110.544 198.111 110.965C197.446 111.385 196.701 111.663 195.924 111.781C195.462 111.881 194.98 111.832 194.548 111.64C194.335 111.54 194.162 111.37 194.055 111.159C193.949 110.949 193.917 110.708 193.963 110.477C194.07 110.21 194.261 109.985 194.506 109.835C195.677 109.038 197.405 109.031 198.188 107.846C198.458 107.379 198.612 106.855 198.639 106.316C198.842 104.939 198.571 103.534 197.87 102.331ZM238.372 99.4467C238.936 100.227 239.357 101.101 239.614 102.028C239.84 102.604 239.934 103.223 239.889 103.84C239.705 105.068 238.584 105.893 237.921 106.936C237.601 107.443 237.387 108.009 237.29 108.6C237.193 109.191 237.216 109.796 237.357 110.378C237.822 112.268 239.529 113.947 239.106 115.851C238.872 116.66 238.394 117.376 237.738 117.903C237.393 118.263 236.978 118.547 236.518 118.738C236.058 118.928 235.563 119.021 235.065 119.01C234.078 118.897 233.196 117.825 233.591 116.895C233.915 116.133 234.874 115.879 235.432 115.258C236.327 114.257 235.904 112.677 235.319 111.464C234.733 110.251 234.021 108.89 234.501 107.628C235.206 105.773 238.133 105.223 238.288 103.248C238.387 101.929 237.145 100.963 236.461 99.8346C235.989 99.0162 235.79 98.069 235.891 97.1297C235.992 96.1904 236.39 95.3076 237.025 94.6087C236.692 95.6162 236.692 96.7044 237.025 97.7118C237.407 98.3395 237.859 98.9216 238.372 99.4467ZM259.466 204.881C259.466 204.881 278.233 199.006 283.783 191.481C289.334 183.956 255.714 191.319 255.714 191.319L259.466 204.881Z" fill="#313440"/>
<path d="M234.169 124.913C245.919 126.38 264.199 131.606 271.378 136.994C278.557 142.382 282.147 157.228 289.327 165.874C296.506 174.52 299.905 178.441 299.905 178.441C299.905 178.441 285.377 199.817 262.365 198.844C239.353 197.871 178.222 196.884 178.222 196.884L173.285 183.667L171.621 203.16C171.621 203.16 137.72 197.652 136.549 181.954C136.549 181.954 153.369 134.603 165.612 131.176C177.855 127.748 199.556 123.418 199.556 123.418L234.169 124.913Z" fill="white"/>
<path d="M227.808 109.412C227.808 109.412 227.97 122.466 229.113 123.122C230.757 123.83 232.446 124.429 234.169 124.913C234.169 124.913 232.209 135.852 215.727 134.871C199.245 133.891 199.57 123.425 199.57 123.425C199.57 123.425 204.633 122.607 205.445 121.465C206.256 120.322 205.282 105.307 205.282 105.307L227.808 109.412Z" fill="#EFB38E"/>
<path d="M232.794 88.4378C232.794 88.4378 238.196 82.9228 242.731 84.559C247.266 86.1952 247.879 95.9699 242.999 97.874C238.119 99.7782 232.265 95.9558 232.265 95.9558L232.794 88.4378Z" fill="#DCA482"/>
<path d="M241.595 95.7019C241.557 95.7018 241.52 95.6903 241.489 95.6689C241.458 95.6476 241.433 95.6173 241.419 95.582C241.409 95.5579 241.403 95.5321 241.403 95.5059C241.403 95.4797 241.408 95.4536 241.417 95.4294C241.427 95.4051 241.442 95.383 241.46 95.3644C241.479 95.3458 241.501 95.3311 241.525 95.3211C242.365 94.9346 243.035 94.2552 243.41 93.4101C243.786 92.565 243.84 91.6121 243.563 90.7299C243.21 89.3194 242.682 88.5154 241.913 88.0852C240.933 87.5492 239.487 87.648 237.075 88.4308C237.024 88.4442 236.971 88.4378 236.925 88.4129C236.879 88.388 236.844 88.3464 236.828 88.2968C236.812 88.2472 236.817 88.1935 236.841 88.1473C236.865 88.1011 236.906 88.0661 236.955 88.05C239.515 87.2248 241.003 87.1331 242.103 87.7397C242.978 88.2192 243.563 89.1502 243.951 90.6312C244.245 91.6045 244.179 92.6513 243.765 93.5799C243.35 94.5084 242.615 95.2567 241.694 95.6878C241.663 95.7019 241.629 95.7068 241.595 95.7019ZM227.928 114.377L227.815 107.162L214.613 107.684L209.464 103.678L205.282 101.562C210.967 117.72 224.218 115.83 227.928 114.377Z" fill="#313440"/>
<path d="M237.279 67.6331C238.436 71.4062 238.154 76.9282 237.279 84.6648C236.073 95.3986 235.446 109.546 220.424 112.042C213.668 113.164 208.35 110.392 204.542 107C200.288 103.083 197.432 97.8816 196.41 92.1898L193.265 76.0678C190.966 64.6428 198.597 55.9401 210.092 54.0359L210.896 53.916C233.4 50.9893 237.279 67.6331 237.279 67.6331Z" fill="#EFB38E"/>
<path d="M218.851 93.4874C218.82 93.4868 218.789 93.478 218.762 93.4619C218.735 93.4459 218.712 93.4231 218.696 93.3957C218.672 93.3533 218.666 93.3034 218.677 93.2561C218.689 93.2089 218.719 93.168 218.76 93.1418C219.252 92.791 219.659 92.3323 219.947 91.8006C220.235 91.2689 220.399 90.6784 220.424 90.074C220.459 89.2912 220.1 88.8046 219.564 88.057C219.081 87.4234 218.652 86.7511 218.28 86.0471C218.258 86.0021 218.254 85.9503 218.27 85.9027C218.286 85.8552 218.32 85.8158 218.365 85.7932C218.41 85.7728 218.461 85.7702 218.508 85.7859C218.555 85.8016 218.595 85.8344 218.619 85.8778C218.977 86.5774 219.395 87.2451 219.867 87.8736C220.449 88.4799 220.781 89.2831 220.798 90.1234C220.774 90.7897 220.596 91.4413 220.276 92.0265C219.957 92.6117 219.505 93.1143 218.957 93.4945C218.922 93.5018 218.885 93.4994 218.851 93.4874ZM210.402 84.8834C210.459 83.614 210.092 82.5702 209.577 82.549C209.063 82.5279 208.597 83.5293 208.541 84.7917C208.484 86.0541 208.851 87.1049 209.366 87.1261C209.881 87.1472 210.339 86.1458 210.402 84.8834ZM227.893 85.0245C227.949 83.7621 227.582 82.7183 227.067 82.6971C226.553 82.676 226.094 83.6774 226.031 84.9398C225.967 86.2022 226.341 87.253 226.856 87.2742C227.371 87.2953 227.829 86.2939 227.893 85.0245Z" fill="#313440"/>
<path d="M216.792 97.6342C216.002 97.1829 215.254 96.6398 214.5 96.1462C212.384 94.7357 209.902 93.9176 207.666 95.589C207.18 95.9257 206.799 96.3926 206.566 96.936C205.776 99.0518 207.722 101.048 209.154 102.317C210.853 103.842 213.007 104.764 215.283 104.941C217.643 105.121 219.991 104.461 221.912 103.079C222.266 102.839 222.573 102.536 222.815 102.183C223.067 101.707 223.124 101.152 222.974 100.634C222.824 100.117 222.479 99.6785 222.011 99.4115C220.911 98.7062 219.528 98.7062 218.301 98.3042C217.776 98.1349 217.27 97.9103 216.792 97.6342Z" fill="white"/>
<path d="M206.347 81.5828C206.229 81.5841 206.115 81.5442 206.023 81.47C205.973 81.4274 205.931 81.3752 205.902 81.3164C205.872 81.2577 205.854 81.1935 205.849 81.1278C205.845 81.0621 205.853 80.9961 205.875 80.9337C205.896 80.8714 205.93 80.8139 205.974 80.7648C206.694 79.9094 207.701 79.3455 208.806 79.1781C209.912 79.0107 211.041 79.2513 211.982 79.855C212.041 79.8887 212.093 79.9344 212.133 79.9892C212.173 80.044 212.202 80.1067 212.216 80.1732C212.231 80.2396 212.232 80.3084 212.218 80.3751C212.204 80.4418 212.177 80.5048 212.137 80.5602C212.102 80.6178 212.056 80.6676 212.001 80.7067C211.946 80.7459 211.884 80.7735 211.818 80.788C211.752 80.8025 211.684 80.8035 211.618 80.7911C211.551 80.7786 211.488 80.7528 211.432 80.7154C211.326 80.6519 208.71 79.0863 206.686 81.4206C206.643 81.4687 206.591 81.5079 206.533 81.5357C206.475 81.5635 206.412 81.5796 206.347 81.5828ZM224.359 80.4051C224.243 80.3821 224.139 80.3198 224.063 80.2288C224.022 80.177 223.992 80.1176 223.974 80.0541C223.956 79.9905 223.951 79.9241 223.959 79.8585C223.967 79.793 223.987 79.7297 224.02 79.6722C224.052 79.6147 224.096 79.5641 224.148 79.5235C225.021 78.8261 226.118 78.4689 227.234 78.5182C228.351 78.5674 229.411 79.0198 230.22 79.7915C230.313 79.885 230.366 80.0119 230.366 80.1441C230.366 80.2764 230.313 80.4032 230.22 80.4968C230.126 80.5903 230 80.6428 229.867 80.6428C229.735 80.6428 229.608 80.5903 229.515 80.4968C229.416 80.4121 227.159 78.381 224.719 80.2781C224.671 80.3224 224.614 80.3565 224.552 80.3783C224.49 80.4001 224.425 80.4092 224.359 80.4051ZM202.2 254.982C202.2 254.982 261.089 262.662 270.75 264.742C269.925 261.759 268.959 258.783 267.802 255.631C267.802 255.631 263.268 250.13 259.135 245.355C258.447 245.124 257.738 244.959 257.019 244.861C255.715 244.861 241.68 244.537 241.68 244.537L202.2 254.982ZM258.486 174.203C258.391 174.203 258.299 174.165 258.232 174.097C258.164 174.03 258.126 173.939 258.126 173.843C258.126 172.849 260.56 163.335 260.835 162.249C260.859 162.159 260.918 162.082 260.998 162.035C261.079 161.988 261.174 161.973 261.265 161.995C261.31 162.006 261.353 162.025 261.391 162.053C261.429 162.081 261.461 162.115 261.486 162.155C261.51 162.195 261.526 162.24 261.533 162.286C261.54 162.333 261.537 162.38 261.526 162.425C260.447 166.657 258.846 173.159 258.846 173.843C258.846 173.939 258.808 174.03 258.74 174.097C258.673 174.165 258.582 174.203 258.486 174.203Z" fill="#313440"/>
<path d="M259.466 169.337C259.395 169.336 259.326 169.315 259.267 169.276C259.208 169.236 259.162 169.18 259.135 169.114C259.108 169.049 259.101 168.977 259.115 168.907C259.128 168.837 259.162 168.773 259.213 168.723L262.146 165.789C262.214 165.722 262.305 165.684 262.4 165.684C262.495 165.684 262.587 165.722 262.654 165.789C262.687 165.822 262.713 165.861 262.731 165.904C262.749 165.947 262.758 165.993 262.758 166.04C262.758 166.086 262.749 166.132 262.731 166.175C262.713 166.218 262.687 166.257 262.654 166.29L259.72 169.266C259.648 169.321 259.557 169.346 259.466 169.337ZM172.58 174.478C172.485 174.478 172.393 174.44 172.326 174.373C172.258 174.305 172.22 174.214 172.22 174.118C172.22 171.615 167.495 167.327 167.446 167.284C167.404 167.255 167.369 167.217 167.343 167.173C167.318 167.129 167.301 167.081 167.296 167.03C167.29 166.979 167.295 166.928 167.311 166.88C167.327 166.831 167.353 166.787 167.387 166.749C167.421 166.711 167.463 166.681 167.51 166.661C167.556 166.64 167.607 166.63 167.658 166.631C167.709 166.631 167.759 166.643 167.805 166.664C167.851 166.686 167.892 166.717 167.926 166.755C168.13 166.939 172.94 171.297 172.94 174.118C172.94 174.214 172.902 174.305 172.834 174.373C172.767 174.44 172.676 174.478 172.58 174.478ZM167.368 200.029C167.319 200.067 167.261 200.091 167.199 200.099C158.271 201.602 145.746 190.007 145.217 189.521C145.175 189.491 145.14 189.453 145.115 189.408C145.089 189.364 145.074 189.315 145.069 189.264C145.064 189.213 145.069 189.162 145.086 189.114C145.102 189.065 145.129 189.021 145.164 188.983C145.198 188.946 145.241 188.917 145.288 188.897C145.335 188.877 145.386 188.868 145.437 188.869C145.488 188.871 145.538 188.883 145.584 188.905C145.63 188.928 145.671 188.96 145.703 188.999C145.83 189.119 158.496 200.847 167.079 199.408C167.173 199.392 167.269 199.413 167.347 199.467C167.425 199.521 167.478 199.604 167.495 199.697C167.503 199.759 167.496 199.821 167.474 199.879C167.452 199.937 167.415 199.989 167.368 200.029ZM266.561 195.769C266.479 195.77 266.398 195.742 266.335 195.689C266.271 195.636 266.229 195.562 266.216 195.48C266.206 195.434 266.207 195.387 266.216 195.341C266.225 195.295 266.243 195.252 266.27 195.213C266.296 195.174 266.33 195.141 266.369 195.116C266.408 195.09 266.452 195.072 266.498 195.064C283.008 191.954 290.159 176.572 290.229 176.417C290.269 176.332 290.341 176.265 290.43 176.232C290.518 176.199 290.616 176.203 290.702 176.241C290.745 176.26 290.784 176.287 290.816 176.322C290.848 176.356 290.873 176.396 290.889 176.44C290.906 176.484 290.913 176.531 290.911 176.578C290.909 176.625 290.898 176.671 290.878 176.714C290.808 176.869 283.508 192.582 266.632 195.755L266.561 195.769ZM216.813 138.757C205.981 138.757 198.315 128.884 198.23 128.806C198.194 128.77 198.166 128.727 198.148 128.679C198.13 128.631 198.123 128.58 198.126 128.529C198.129 128.478 198.143 128.429 198.167 128.384C198.191 128.339 198.224 128.299 198.264 128.268C198.305 128.237 198.351 128.214 198.401 128.203C198.45 128.191 198.502 128.189 198.552 128.199C198.602 128.208 198.65 128.229 198.691 128.258C198.733 128.287 198.768 128.325 198.794 128.369C198.886 128.496 208.357 140.633 220.946 137.537C220.991 137.525 221.039 137.521 221.086 137.528C221.132 137.534 221.177 137.55 221.217 137.575C221.258 137.599 221.293 137.632 221.32 137.67C221.347 137.708 221.366 137.752 221.376 137.798C221.388 137.843 221.39 137.891 221.383 137.937C221.376 137.983 221.36 138.028 221.336 138.068C221.312 138.108 221.28 138.143 221.242 138.17C221.204 138.198 221.161 138.218 221.115 138.228C219.707 138.576 218.263 138.753 216.813 138.757ZM195.571 88.8681C196.678 84.827 217.97 72.8378 217.483 65.8559C217.483 65.8559 219.317 71.1241 221.644 73.2045C223.049 74.4585 224.665 75.4519 226.419 76.1384C226.419 76.1384 219.197 70.7573 219.317 66.1027C219.317 66.1027 223.725 71.7447 225.805 72.7109C227.886 73.677 236.052 81.8156 237.286 86.0471C237.286 86.0471 241.476 76.364 240.368 70.0027C239.261 63.6414 231.433 52.9005 220.297 51.1515C209.161 49.4025 193.822 57.3083 191.008 67.9575C188.194 78.6067 195.571 88.8681 195.571 88.8681Z" fill="#313440"/>
<path d="M197.969 88.2122C197.969 88.2122 193.103 82.2176 188.434 83.4235C183.765 84.6295 182.249 94.3125 186.932 96.661C191.615 99.0095 197.8 95.7442 197.8 95.7442L197.969 88.2122Z" fill="#EFB38E"/>
<path d="M188.512 94.6299H188.427C187.548 94.1162 186.884 93.3029 186.556 92.3391C186.229 91.3754 186.259 90.3258 186.643 89.3829C187.158 87.9724 187.828 87.0767 188.758 86.6747C189.908 86.174 191.389 86.4067 193.857 87.4646C193.882 87.4748 193.903 87.4896 193.922 87.5082C193.94 87.5269 193.955 87.5489 193.964 87.5732C193.974 87.5974 193.979 87.6233 193.979 87.6495C193.979 87.6756 193.973 87.7015 193.963 87.7255C193.953 87.7496 193.938 87.7715 193.92 87.7898C193.901 87.8082 193.879 87.8227 193.855 87.8325C193.83 87.8423 193.804 87.8473 193.778 87.8471C193.752 87.8469 193.726 87.8415 193.702 87.8313C191.375 86.8299 189.943 86.5971 188.921 87.0415C188.11 87.3941 187.51 88.1839 187.031 89.5239C186.673 90.3764 186.638 91.3299 186.933 92.2062C187.228 93.0824 187.831 93.8212 188.632 94.2843C188.655 94.2962 188.675 94.3127 188.692 94.3326C188.709 94.3526 188.722 94.3757 188.73 94.4006C188.738 94.4256 188.741 94.4518 188.738 94.4779C188.736 94.5039 188.728 94.5292 188.716 94.5523C188.692 94.5821 188.66 94.6049 188.624 94.6185C188.588 94.6321 188.55 94.6361 188.512 94.6299Z" fill="#313440"/>
<path d="M239.72 108.946C238.618 108.946 237.54 108.62 236.624 108.007C235.708 107.395 234.994 106.525 234.572 105.507C234.15 104.489 234.04 103.369 234.255 102.288C234.47 101.207 235.001 100.215 235.78 99.4354C236.559 98.6562 237.552 98.1256 238.633 97.9106C239.713 97.6956 240.834 97.806 241.852 98.2277C242.87 98.6493 243.74 99.3634 244.352 100.28C244.964 101.196 245.291 102.273 245.291 103.375C245.289 104.852 244.702 106.268 243.657 107.313C242.613 108.357 241.197 108.945 239.72 108.946ZM239.72 98.9884C238.852 98.987 238.003 99.2431 237.281 99.7242C236.558 100.205 235.995 100.89 235.662 101.691C235.329 102.493 235.241 103.375 235.409 104.226C235.578 105.078 235.995 105.86 236.608 106.474C237.221 107.088 238.003 107.507 238.854 107.677C239.705 107.847 240.588 107.76 241.39 107.428C242.191 107.097 242.877 106.534 243.359 105.813C243.842 105.091 244.099 104.243 244.099 103.375C244.097 102.213 243.635 101.1 242.815 100.278C241.994 99.4557 240.881 98.9921 239.72 98.9884ZM191.622 107.719C190.52 107.719 189.443 107.393 188.526 106.78C187.61 106.168 186.896 105.298 186.474 104.28C186.053 103.262 185.942 102.142 186.157 101.061C186.372 99.9802 186.903 98.9874 187.682 98.2083C188.461 97.4291 189.454 96.8984 190.535 96.6835C191.616 96.4685 192.736 96.5788 193.754 97.0005C194.772 97.4222 195.642 98.1363 196.254 99.0525C196.866 99.9688 197.193 101.046 197.193 102.148C197.191 103.625 196.604 105.041 195.559 106.085C194.515 107.13 193.099 107.717 191.622 107.719ZM191.622 97.7612C190.754 97.7612 189.906 98.0185 189.185 98.5005C188.463 98.9825 187.901 99.6676 187.569 100.469C187.237 101.271 187.15 102.153 187.319 103.004C187.489 103.855 187.906 104.636 188.52 105.25C189.133 105.863 189.915 106.281 190.766 106.45C191.617 106.619 192.499 106.533 193.3 106.201C194.102 105.869 194.787 105.306 195.269 104.585C195.751 103.864 196.008 103.015 196.008 102.148C196.008 100.984 195.546 99.8687 194.724 99.046C193.901 98.2234 192.785 97.7612 191.622 97.7612Z" fill="#FBAF32"/>
<path d="M226.242 56.7441C226.242 56.7441 234.705 54.8893 232.505 48.0131C230.304 41.137 225.149 40.601 221.066 42.1878C221.066 42.1878 229.783 29.4934 217.257 28.9574C204.732 28.4214 198.216 33.7248 202.285 39.2822L206.368 44.8325C206.368 44.8325 197.905 43.7746 196.566 49.8609C195.226 55.9472 203.921 58.3238 203.921 58.3238L226.242 56.7441Z" fill="#313440"/>
<path d="M199.577 57.0544C199.506 57.0499 199.438 57.024 199.382 56.9801C199.326 56.9361 199.284 56.8763 199.263 56.8083C199.241 56.7404 199.241 56.6676 199.262 56.5995C199.283 56.5314 199.324 56.4711 199.379 56.4267C208.95 50.3546 215.269 52.4633 216.369 52.9005C218.971 51.6875 222.06 52.5902 228.682 54.5014L229.529 54.7412C229.619 54.769 229.696 54.8308 229.742 54.9137C229.788 54.9965 229.8 55.0939 229.776 55.1855C229.749 55.2771 229.688 55.3546 229.604 55.4009C229.521 55.4471 229.423 55.4585 229.331 55.4324L228.485 55.1855C221.947 53.2672 218.922 52.3998 216.545 53.6058C216.496 53.6317 216.442 53.6453 216.386 53.6453C216.331 53.6453 216.277 53.6317 216.228 53.6058C216.164 53.6058 209.732 50.686 199.76 57.0121C199.705 57.0458 199.641 57.0606 199.577 57.0544Z" fill="white"/>
<path d="M231.066 54.1488C230.962 54.1507 230.86 54.1239 230.77 54.0712C230.703 54.0319 230.644 53.9797 230.597 53.9176C230.55 53.8556 230.516 53.7849 230.496 53.7096C230.476 53.6342 230.472 53.5558 230.482 53.4787C230.493 53.4016 230.519 53.3273 230.558 53.2602C231.478 51.7797 232.036 50.1031 232.185 48.3665C232.335 46.63 232.072 44.8827 231.419 43.2669C230.622 41.4896 229.303 40.2131 228.012 39.9451C224.923 39.3034 224.042 39.7336 224.035 39.7406C223.928 39.8121 223.799 39.8448 223.671 39.8333C223.543 39.8218 223.422 39.7667 223.33 39.6772C223.229 39.5811 223.166 39.4524 223.152 39.3141C223.138 39.1759 223.173 39.0371 223.252 38.9225C223.252 38.8802 225.685 34.9943 224.225 32.533C223.238 30.8686 220.699 30.1422 216.573 30.4173C216.417 30.42 216.266 30.3644 216.148 30.2614C216.031 30.1584 215.956 30.0153 215.939 29.8601C215.931 29.7034 215.985 29.5499 216.089 29.4325C216.193 29.3152 216.339 29.2433 216.496 29.2325C221.073 28.9362 224.014 29.8601 225.248 31.9406C226.482 34.0211 225.586 36.8773 224.867 38.4218C226.015 38.4123 227.161 38.5354 228.28 38.7885C229.98 39.1412 231.574 40.6363 232.512 42.7943C233.243 44.5831 233.54 46.5193 233.379 48.4449C233.219 50.3705 232.605 52.2307 231.588 53.8738C231.532 53.9607 231.455 54.0317 231.363 54.0799C231.272 54.1281 231.169 54.1518 231.066 54.1488Z" fill="#313440"/>
<path d="M246.49 159.781H246.412C246.257 159.76 246.117 159.678 246.022 159.554C245.927 159.43 245.885 159.273 245.905 159.118C247.449 147.128 248.528 127.805 244.826 127.057C244.671 127.025 244.535 126.933 244.447 126.8C244.36 126.668 244.329 126.507 244.36 126.352C244.399 126.2 244.492 126.069 244.623 125.983C244.753 125.897 244.911 125.862 245.065 125.886C250.94 127.078 247.781 153.906 247.089 159.266C247.069 159.41 246.997 159.541 246.886 159.636C246.776 159.731 246.635 159.782 246.49 159.781ZM181.868 161.508C181.715 161.509 181.568 161.45 181.456 161.346C181.345 161.241 181.278 161.097 181.269 160.944C180.867 153.01 179.858 127.015 183.794 125.682C183.867 125.654 183.945 125.642 184.024 125.646C184.102 125.649 184.179 125.669 184.25 125.703C184.32 125.737 184.383 125.786 184.434 125.845C184.486 125.905 184.524 125.974 184.548 126.049C184.574 126.122 184.585 126.2 184.58 126.278C184.575 126.356 184.555 126.432 184.521 126.502C184.487 126.572 184.44 126.635 184.381 126.687C184.323 126.738 184.255 126.778 184.181 126.803C182.066 127.509 181.628 144.702 182.461 160.888C182.467 161.045 182.411 161.199 182.306 161.316C182.2 161.433 182.054 161.505 181.896 161.515L181.868 161.508Z" fill="#FBAF32"/>
<path d="M172.481 196.228C172.481 196.228 165.626 183.174 170.196 174.689C174.766 166.205 181.946 159.019 181.946 159.019C181.946 159.019 208.745 183.498 215.24 183.174C221.736 182.849 246.575 157.39 246.575 157.39C246.575 157.39 260.277 170.444 262.894 179.252C265.51 188.061 259.629 198.999 259.629 198.999C259.629 198.999 263.381 219.071 265.341 228.211C267.302 237.351 276.272 259.241 276.272 259.241C276.272 259.241 276.928 261.526 266.808 258.917C256.688 256.308 254.078 252.718 238.415 252.718C222.751 252.718 193.695 265.116 157.142 254.023C157.142 254.001 173.462 202.102 172.481 196.228Z" fill="#FBAF32"/>
<path d="M186.107 252.711C183.111 252.727 180.119 252.513 177.157 252.069C177.106 252.067 177.057 252.054 177.011 252.032C176.965 252.009 176.925 251.977 176.893 251.938C176.861 251.898 176.837 251.853 176.824 251.804C176.811 251.754 176.808 251.703 176.816 251.653C176.824 251.603 176.843 251.555 176.871 251.512C176.899 251.47 176.935 251.434 176.978 251.406C177.021 251.379 177.069 251.361 177.119 251.354C177.17 251.346 177.221 251.35 177.27 251.364C195.818 254.255 219.944 246.321 220.184 246.237C220.274 246.208 220.372 246.215 220.456 246.257C220.541 246.299 220.605 246.373 220.636 246.462C220.651 246.507 220.657 246.554 220.654 246.601C220.651 246.648 220.639 246.694 220.618 246.736C220.597 246.778 220.568 246.815 220.532 246.846C220.496 246.876 220.455 246.899 220.41 246.914C220.205 246.984 202.793 252.711 186.107 252.711ZM216.157 190.967C208.902 191.05 201.676 190.023 194.732 187.92C194.643 187.891 194.569 187.828 194.525 187.745C194.482 187.662 194.472 187.565 194.499 187.476C194.513 187.43 194.535 187.388 194.566 187.352C194.596 187.315 194.633 187.285 194.675 187.263C194.717 187.242 194.764 187.229 194.811 187.225C194.858 187.222 194.906 187.228 194.951 187.243C216.108 193.985 240.037 187.306 240.277 187.243C240.37 187.218 240.47 187.231 240.554 187.279C240.638 187.327 240.699 187.407 240.725 187.5C240.75 187.594 240.737 187.694 240.689 187.778C240.64 187.862 240.561 187.923 240.467 187.948C232.519 189.951 224.354 190.965 216.157 190.967ZM228.95 195.939H228.88C222.476 194.662 205.966 195.607 205.797 195.614C205.716 195.598 205.642 195.554 205.59 195.489C205.537 195.425 205.508 195.345 205.508 195.262C205.508 195.178 205.537 195.098 205.59 195.034C205.642 194.969 205.716 194.925 205.797 194.909C206.502 194.867 222.568 193.95 229.07 195.24C229.117 195.249 229.162 195.267 229.201 195.293C229.241 195.319 229.275 195.352 229.301 195.392C229.328 195.431 229.346 195.476 229.355 195.523C229.363 195.569 229.363 195.617 229.352 195.664C229.332 195.751 229.28 195.829 229.205 195.879C229.131 195.93 229.04 195.952 228.95 195.939Z" fill="#313440"/>
<path d="M124.066 142.544C124.066 142.544 137.346 131.818 129.863 116.704C126.415 109.736 116.851 101.189 116.851 101.189C116.851 101.189 85.3481 107.698 85.2846 114.588C85.2212 121.479 94.3471 145.669 94.3471 145.669L124.066 142.544Z" fill="#EFB38E"/>
<path d="M129.475 131.712C130.245 131.239 130.861 130.553 131.248 129.736C131.635 128.92 131.776 128.009 131.655 127.114C130.11 115.703 128.911 101.64 129.652 98.8332C129.823 98.2366 129.874 97.6117 129.8 96.9954C129.727 96.379 129.531 95.7835 129.224 95.2438C128.918 94.704 128.506 94.231 128.014 93.8524C127.523 93.4738 126.96 93.1972 126.36 93.039C125.76 92.8807 125.134 92.8439 124.519 92.9307C123.905 93.0175 123.313 93.2262 122.781 93.5446C122.248 93.8629 121.784 94.2844 121.416 94.7845C121.048 95.2845 120.784 95.853 120.639 96.4565C119.087 102.338 121.605 122.367 122.409 128.362C122.515 129.129 122.81 129.858 123.267 130.483C123.725 131.108 124.331 131.609 125.031 131.941C125.73 132.273 126.502 132.426 127.275 132.386C128.048 132.346 128.8 132.114 129.461 131.712H129.475Z" fill="#EFB38E"/>
<path d="M117.204 116.761C117.64 116.729 118.069 116.639 118.481 116.493C119.058 116.286 119.59 115.967 120.044 115.555C120.498 115.143 120.867 114.645 121.129 114.09C121.391 113.536 121.541 112.935 121.571 112.322C121.6 111.709 121.509 111.097 121.302 110.519C121.238 110.343 114.891 92.7469 112.62 84.0653L110.265 75.0664C110.109 74.4741 109.839 73.9182 109.469 73.4303C109.099 72.9425 108.637 72.5324 108.108 72.2233C107.58 71.9141 106.996 71.7122 106.389 71.6288C105.782 71.5455 105.165 71.5825 104.573 71.7376C103.981 71.8927 103.425 72.163 102.937 72.533C102.449 72.9029 102.039 73.3654 101.73 73.8938C101.421 74.4223 101.219 75.0065 101.136 75.6131C101.052 76.2196 101.089 76.8367 101.244 77.4289L103.6 86.4279C105.977 95.5185 112.267 112.952 112.528 113.686C112.872 114.634 113.513 115.446 114.355 116C115.198 116.554 116.197 116.821 117.204 116.761Z" fill="#EFB38E"/>
<path d="M112.289 138.362H112.345C112.437 138.318 112.509 138.239 112.544 138.143C112.58 138.047 112.577 137.941 112.535 137.847C106.188 123.855 118.177 116.845 118.692 116.549C118.781 116.497 118.846 116.413 118.872 116.314C118.898 116.214 118.884 116.109 118.833 116.02C118.782 115.932 118.697 115.867 118.599 115.839C118.5 115.811 118.394 115.823 118.304 115.872C118.177 115.95 105.208 123.524 111.83 138.172C111.872 138.252 111.941 138.315 112.025 138.35C112.109 138.385 112.202 138.389 112.289 138.362ZM91.244 116.253H91.3568C91.5261 116.175 108.339 108.784 114.63 106.704C114.679 106.688 114.724 106.662 114.763 106.629C114.802 106.595 114.834 106.554 114.857 106.508C114.879 106.463 114.893 106.413 114.897 106.361C114.9 106.31 114.893 106.259 114.877 106.21C114.845 106.113 114.775 106.033 114.684 105.987C114.593 105.94 114.487 105.932 114.39 105.963C108.043 108.079 91.1876 115.463 91.0183 115.54C90.9253 115.582 90.8524 115.659 90.8154 115.754C90.7785 115.849 90.7804 115.955 90.8209 116.048C90.8593 116.124 90.9215 116.185 90.9979 116.222C91.0744 116.259 91.1608 116.27 91.244 116.253Z" fill="#313440"/>
<path d="M138.474 190.134L142.607 210.319" stroke="#313440" stroke-width="0.669984" stroke-linecap="round" stroke-linejoin="round"/>
<path d="M299.891 247.252C299.186 257.126 296.492 264.538 291.132 267.373C281.625 272.401 253.712 270.942 252.816 239.417C259.488 228.246 286.731 246.286 299.891 247.252Z" fill="#EFB38E"/>
<path d="M101.35 97.5637C100.478 97.8826 99.7008 98.4182 99.0925 99.1203C98.4842 99.8223 98.0647 100.668 97.8733 101.577C97.1562 101.092 96.3309 100.791 95.4701 100.7C94.6092 100.609 93.7392 100.731 92.9366 101.055C92.0072 101.388 91.1854 101.966 90.5583 102.728C89.9312 103.491 89.5223 104.409 89.3751 105.385C89.3504 105.645 89.3504 105.907 89.3751 106.168C88.7246 105.663 87.9525 105.338 87.1365 105.227C86.3205 105.115 85.4896 105.221 84.7275 105.533C83.8956 105.835 83.1601 106.355 82.598 107.039C82.036 107.722 81.6681 108.544 81.5327 109.419C81.466 110 81.5311 110.588 81.7232 111.14L86.0534 123.277C86.8291 125.442 89.4244 126.444 91.8575 125.513C92.6464 125.224 93.3487 124.739 93.8979 124.104C94.447 123.468 94.825 122.703 94.9959 121.881C95.6836 122.735 96.6327 123.341 97.6976 123.605C98.7626 123.869 99.8846 123.776 100.892 123.34C101.772 123.03 102.558 122.499 103.175 121.8C103.792 121.1 104.22 120.254 104.418 119.342C105.137 119.824 105.962 120.122 106.823 120.211C107.684 120.299 108.553 120.175 109.355 119.85C110.303 119.513 111.137 118.915 111.761 118.125C112.385 117.336 112.773 116.386 112.881 115.385C111.64 109.32 109.813 105.089 106.992 97.4791C105.129 97.0859 103.201 97.1148 101.35 97.5637Z" fill="#DCA482"/>
<path d="M112.698 114.786C112.724 114.816 112.76 114.837 112.799 114.846C112.838 114.855 112.879 114.851 112.916 114.835C112.94 114.828 112.963 114.816 112.982 114.8C113.002 114.784 113.018 114.764 113.03 114.742C113.042 114.72 113.049 114.695 113.051 114.67C113.053 114.645 113.051 114.62 113.043 114.595L107.401 98.8826C107.391 98.8601 107.377 98.8398 107.359 98.823C107.341 98.8061 107.32 98.793 107.297 98.7845C107.274 98.7759 107.25 98.7721 107.225 98.7732C107.201 98.7743 107.177 98.7803 107.154 98.7909C107.105 98.8057 107.064 98.8389 107.039 98.8837C107.014 98.9284 107.007 98.9811 107.02 99.0307L112.698 114.737C112.694 114.753 112.694 114.77 112.698 114.786ZM104.171 119.462C104.199 119.49 104.234 119.51 104.273 119.519C104.312 119.528 104.352 119.525 104.39 119.511C104.438 119.498 104.48 119.466 104.505 119.422C104.53 119.379 104.537 119.327 104.524 119.278L101.477 109.482C101.469 109.459 101.457 109.437 101.44 109.419C101.424 109.401 101.403 109.386 101.381 109.376C101.358 109.366 101.334 109.361 101.309 109.361C101.284 109.361 101.26 109.367 101.237 109.377C101.213 109.382 101.189 109.393 101.169 109.408C101.148 109.423 101.131 109.442 101.118 109.463C101.105 109.485 101.096 109.509 101.092 109.534C101.089 109.559 101.09 109.585 101.096 109.609L104.171 119.405C104.167 119.424 104.167 119.443 104.171 119.462ZM93.3174 118.171C93.3489 118.203 93.3899 118.224 93.4344 118.232C93.4788 118.239 93.5244 118.232 93.5646 118.211C93.6047 118.191 93.6372 118.158 93.6575 118.118C93.6777 118.078 93.6846 118.032 93.6771 117.988L90.3554 106.838C90.3477 106.814 90.3351 106.793 90.3185 106.774C90.3019 106.756 90.2816 106.741 90.259 106.731C90.2364 106.721 90.212 106.716 90.1873 106.716C90.1625 106.717 90.1381 106.722 90.1156 106.732C90.0667 106.745 90.0248 106.777 89.9986 106.82C89.9723 106.863 89.9637 106.915 89.9745 106.965L93.2892 118.122C93.297 118.139 93.3065 118.156 93.3174 118.171ZM94.8125 122.015C94.8372 122.043 94.8698 122.064 94.9062 122.074C94.9426 122.084 94.9812 122.083 95.0171 122.071C95.0663 122.058 95.1088 122.026 95.1362 121.983C95.1636 121.94 95.174 121.889 95.1652 121.838L94.7843 120.244C94.778 120.221 94.7668 120.198 94.7513 120.179C94.7359 120.16 94.7165 120.144 94.6946 120.133C94.6727 120.122 94.6486 120.115 94.624 120.114C94.5993 120.112 94.5747 120.116 94.5516 120.125C94.5018 120.138 94.4586 120.169 94.4301 120.212C94.4015 120.255 94.3895 120.306 94.3964 120.357L94.7773 121.951C94.7847 121.974 94.7967 121.996 94.8125 122.015ZM104.608 114.758C104.601 114.776 104.601 114.796 104.608 114.814L105.68 118.432C105.688 118.46 105.703 118.486 105.724 118.506C105.745 118.526 105.772 118.539 105.8 118.545C107.306 118.936 108.904 118.742 110.272 118.002C110.318 117.979 110.354 117.939 110.372 117.891C110.391 117.842 110.39 117.789 110.37 117.741C110.357 117.718 110.339 117.699 110.317 117.684C110.296 117.668 110.272 117.657 110.246 117.651C110.22 117.645 110.194 117.645 110.168 117.649C110.142 117.654 110.117 117.663 110.095 117.677C108.855 118.332 107.421 118.52 106.054 118.206L105.025 114.758C106.682 112.353 109.736 112.296 110.391 112.31L111.329 115.294C111.348 115.342 111.386 115.381 111.433 115.402C111.481 115.423 111.535 115.425 111.583 115.406C111.634 115.392 111.677 115.358 111.704 115.312C111.73 115.266 111.737 115.211 111.724 115.16L110.751 112.057C110.74 112.022 110.718 111.993 110.689 111.971C110.66 111.95 110.625 111.938 110.589 111.937C110.547 111.937 106.611 111.669 104.63 114.659C104.612 114.689 104.605 114.723 104.608 114.758ZM95.4614 117.903C95.4579 117.922 95.4579 117.941 95.4614 117.959L96.5333 121.577C96.5426 121.605 96.5584 121.629 96.5793 121.649C96.6002 121.668 96.6256 121.683 96.6532 121.69C98.1609 122.082 99.7612 121.888 101.132 121.147C101.159 121.139 101.183 121.124 101.204 121.105C101.225 121.085 101.241 121.062 101.251 121.035C101.262 121.009 101.266 120.981 101.264 120.952C101.262 120.924 101.254 120.897 101.24 120.872C101.226 120.847 101.207 120.826 101.183 120.81C101.16 120.794 101.134 120.783 101.106 120.778C101.078 120.773 101.049 120.775 101.022 120.783C100.995 120.79 100.969 120.804 100.948 120.823C99.7072 121.474 98.2751 121.664 96.9071 121.359L95.8845 117.903C97.5348 115.505 100.589 115.442 101.244 115.456L102.182 118.439C102.201 118.488 102.239 118.527 102.286 118.548C102.334 118.569 102.388 118.57 102.436 118.552C102.487 118.536 102.529 118.502 102.557 118.456C102.584 118.411 102.594 118.357 102.584 118.305L101.604 115.202C101.592 115.168 101.57 115.139 101.541 115.118C101.512 115.096 101.478 115.084 101.442 115.082C101.4 115.082 97.4643 114.814 95.4825 117.804C95.4683 117.835 95.4611 117.869 95.4614 117.903ZM86.2508 120.266C86.2508 120.266 86.2508 120.266 86.2508 120.315L87.2734 123.743C87.2808 123.768 87.2943 123.792 87.3127 123.812C87.3311 123.831 87.3539 123.846 87.3792 123.855C88.8054 124.215 90.3147 124.029 91.6107 123.333C91.6326 123.323 91.6521 123.308 91.6683 123.29C91.6844 123.272 91.6967 123.251 91.7046 123.228C91.7125 123.205 91.7157 123.18 91.7141 123.156C91.7125 123.132 91.7061 123.108 91.6953 123.087C91.6824 123.065 91.6653 123.047 91.6449 123.032C91.6246 123.018 91.6015 123.007 91.5771 123.002C91.5526 122.997 91.5274 122.997 91.5028 123.001C91.4783 123.006 91.455 123.016 91.4344 123.03C90.2618 123.651 88.9049 123.829 87.612 123.531L86.6387 120.266C88.2044 117.988 91.0959 117.931 91.7165 117.945L92.6122 120.766C92.6207 120.789 92.6338 120.81 92.6506 120.828C92.6673 120.846 92.6875 120.86 92.7098 120.87C92.7321 120.88 92.7562 120.885 92.7806 120.885C92.805 120.886 92.8293 120.881 92.8519 120.872C92.8986 120.856 92.9379 120.824 92.9625 120.781C92.9871 120.738 92.9954 120.688 92.9859 120.639L92.055 117.699C92.0441 117.667 92.0242 117.64 91.9979 117.62C91.9716 117.6 91.9399 117.588 91.9069 117.586C91.8646 117.586 88.1409 117.332 86.2649 120.16C86.2503 120.193 86.2454 120.23 86.2508 120.266Z" fill="#313440"/>
<path d="M334.053 222.011H247.766C240.623 222.011 234.832 227.802 234.832 234.946V257.669C234.832 264.812 240.623 270.603 247.766 270.603H334.053C341.197 270.603 346.987 264.812 346.987 257.669V234.946C346.987 227.802 341.197 222.011 334.053 222.011Z" fill="#F0592A"/>
<path d="M276.583 238.281L275.765 241.236H273.071L276.597 229.734H280.01L283.579 241.236H280.758L279.869 238.281H276.583ZM279.502 236.335L278.797 233.895C278.593 233.19 278.388 232.357 278.219 231.68C278.05 232.386 277.88 233.232 277.69 233.895L276.985 236.335H279.502ZM286.414 232.886L287.542 236.765C287.737 237.433 287.895 238.111 288.015 238.796H288.071C288.205 238.091 288.339 237.477 288.53 236.765L289.602 232.886H292.331L289.228 241.236H286.633L283.6 232.886H286.414ZM295.293 237.887C295.378 238.966 296.435 239.473 297.641 239.473C298.423 239.482 299.201 239.368 299.948 239.135L300.286 240.891C299.322 241.253 298.297 241.428 297.268 241.406C294.447 241.406 292.818 239.763 292.818 237.174C292.818 235.059 294.129 232.724 297.049 232.724C299.75 232.724 300.773 234.84 300.773 236.885C300.774 237.228 300.745 237.57 300.688 237.908L295.293 237.887ZM298.347 236.116C298.372 235.907 298.354 235.694 298.292 235.492C298.231 235.291 298.127 235.104 297.989 234.944C297.851 234.785 297.681 234.656 297.49 234.566C297.299 234.477 297.091 234.428 296.88 234.424C296.447 234.449 296.04 234.638 295.741 234.952C295.442 235.267 295.275 235.683 295.272 236.116H298.347ZM302.282 235.637C302.282 234.41 302.247 233.606 302.211 232.886H304.461L304.546 234.424H304.616C304.767 233.939 305.064 233.513 305.467 233.205C305.87 232.897 306.359 232.721 306.866 232.703C307.05 232.695 307.234 232.707 307.416 232.738V235.178C307.184 235.132 306.948 235.108 306.711 235.108C306.306 235.073 305.902 235.187 305.575 235.428C305.248 235.67 305.02 236.022 304.934 236.42C304.898 236.613 304.881 236.809 304.884 237.005V241.236H302.289L302.282 235.637ZM313.319 241.236L313.164 240.397H313.115C312.818 240.736 312.449 241.004 312.035 241.181C311.622 241.358 311.173 241.439 310.724 241.42C310.376 241.438 310.029 241.385 309.703 241.265C309.377 241.144 309.078 240.959 308.826 240.719C308.574 240.48 308.373 240.191 308.237 239.871C308.1 239.552 308.029 239.208 308.03 238.86C308.03 236.695 309.976 235.651 312.931 235.672V235.559C312.931 235.115 312.691 234.48 311.408 234.48C310.599 234.487 309.806 234.706 309.109 235.115L308.629 233.443C309.637 232.947 310.751 232.705 311.873 232.738C314.652 232.738 315.541 234.374 315.541 236.335V239.241C315.528 239.92 315.568 240.599 315.66 241.272L313.319 241.236ZM313.016 237.294C311.648 237.294 310.59 237.597 310.59 238.606C310.581 238.741 310.602 238.876 310.65 239.002C310.699 239.129 310.775 239.243 310.872 239.337C310.969 239.431 311.086 239.502 311.214 239.547C311.342 239.591 311.478 239.607 311.612 239.593C311.908 239.596 312.198 239.506 312.44 239.335C312.681 239.164 312.863 238.921 312.959 238.641C312.996 238.496 313.015 238.347 313.016 238.197V237.294ZM325.555 232.886C325.52 233.415 325.485 234.121 325.485 235.362V240.023C325.485 241.624 325.16 242.936 324.222 243.775C323.248 244.507 322.046 244.87 320.83 244.798C319.791 244.827 318.76 244.604 317.826 244.149L318.34 242.189C319.081 242.599 319.913 242.817 320.759 242.823C321.054 242.85 321.351 242.811 321.629 242.709C321.907 242.607 322.158 242.445 322.366 242.233C322.573 242.022 322.731 241.767 322.827 241.487C322.924 241.208 322.957 240.91 322.924 240.616V240.073C322.666 240.425 322.325 240.708 321.931 240.899C321.538 241.089 321.104 241.181 320.668 241.166C318.601 241.166 317.141 239.495 317.141 237.09C317.141 234.41 318.883 232.703 320.929 232.703C321.381 232.675 321.833 232.769 322.237 232.976C322.64 233.184 322.98 233.496 323.221 233.881H323.256L323.341 232.886H325.555ZM322.896 236.264C322.897 236.103 322.878 235.942 322.84 235.785C322.777 235.459 322.601 235.166 322.343 234.957C322.085 234.748 321.761 234.636 321.429 234.642C320.491 234.642 319.723 235.496 319.723 237.012C319.723 238.26 320.336 239.234 321.429 239.234C321.741 239.233 322.044 239.128 322.29 238.937C322.537 238.745 322.713 238.478 322.79 238.176C322.861 237.947 322.892 237.709 322.882 237.47L322.896 236.264ZM329.561 237.887C329.653 238.966 330.71 239.473 331.916 239.473C332.698 239.482 333.476 239.368 334.223 239.135L334.561 240.891C333.597 241.252 332.572 241.427 331.543 241.406C328.722 241.406 327.092 239.763 327.092 237.174C327.092 235.059 328.404 232.724 331.324 232.724C334.025 232.724 335.048 234.84 335.048 236.885C335.045 237.228 335.017 237.569 334.963 237.908L329.561 237.887ZM332.622 236.116C332.647 235.906 332.629 235.693 332.567 235.491C332.505 235.288 332.401 235.101 332.262 234.942C332.123 234.782 331.952 234.653 331.76 234.564C331.568 234.475 331.359 234.427 331.148 234.424C330.716 234.451 330.311 234.64 330.013 234.954C329.716 235.269 329.55 235.684 329.547 236.116H332.622ZM282.352 261.385C281.413 261.749 280.41 261.917 279.404 261.879C275.426 261.879 273.374 259.404 273.374 256.131C273.374 252.203 276.195 250.017 279.658 250.017C280.624 249.986 281.586 250.161 282.479 250.532L281.95 252.598C281.257 252.31 280.514 252.163 279.763 252.168C277.697 252.168 276.096 253.416 276.096 255.976C276.096 258.275 277.457 259.728 279.778 259.728C280.518 259.727 281.252 259.601 281.95 259.354L282.352 261.385ZM291.894 257.422C291.931 258.012 291.844 258.604 291.636 259.158C291.428 259.713 291.106 260.217 290.689 260.637C290.273 261.057 289.772 261.385 289.22 261.598C288.668 261.811 288.077 261.904 287.486 261.872C286.912 261.906 286.338 261.818 285.8 261.614C285.263 261.41 284.774 261.095 284.367 260.69C283.96 260.285 283.642 259.798 283.436 259.261C283.23 258.725 283.139 258.151 283.17 257.577C283.132 256.983 283.222 256.389 283.433 255.833C283.644 255.277 283.972 254.772 284.394 254.354C284.816 253.935 285.323 253.611 285.881 253.404C286.438 253.198 287.034 253.113 287.627 253.155C288.195 253.125 288.764 253.214 289.295 253.418C289.827 253.621 290.309 253.935 290.712 254.337C291.114 254.739 291.427 255.222 291.631 255.754C291.835 256.285 291.924 256.854 291.894 257.422ZM285.85 257.506C285.85 258.917 286.449 260.017 287.556 260.017C288.664 260.017 289.214 259.009 289.214 257.506C289.214 256.258 288.734 254.996 287.556 254.996C286.379 254.996 285.85 256.301 285.85 257.528V257.506ZM293.473 259.439C294.161 259.817 294.926 260.032 295.709 260.067C296.499 260.067 296.823 259.799 296.823 259.361C296.823 258.924 296.562 258.734 295.589 258.409C293.868 257.824 293.205 256.886 293.22 255.899C293.22 254.347 294.552 253.169 296.619 253.169C297.43 253.154 298.234 253.318 298.974 253.649L298.509 255.44C297.952 255.143 297.334 254.979 296.703 254.961C296.069 254.961 295.709 255.214 295.709 255.666C295.709 256.117 296.033 256.258 297.063 256.618C298.65 257.168 299.313 257.965 299.327 259.199C299.327 260.751 298.1 261.893 295.709 261.893C294.778 261.913 293.856 261.715 293.015 261.315L293.473 259.439ZM303.798 250.976V253.367H305.66V255.306H303.798V258.325C303.798 259.333 304.038 259.791 304.821 259.791C305.079 259.792 305.336 259.769 305.59 259.721V261.689C305.041 261.854 304.469 261.928 303.897 261.907C303.542 261.924 303.187 261.87 302.853 261.749C302.519 261.628 302.212 261.442 301.95 261.202C301.408 260.497 301.156 259.611 301.245 258.727V255.306H300.131V253.395H301.245V251.582L303.798 250.976ZM255.263 231.49C256.547 231.49 257.59 232.266 257.59 233.218V255.941C257.59 256.893 256.547 257.669 255.263 257.669C253.98 257.669 252.936 256.893 252.936 255.941V233.218C252.936 232.266 253.973 231.49 255.263 231.49Z" fill="white"/>
<path d="M265.348 246.737C265.805 246.735 266.257 246.839 266.667 247.041C267.725 247.577 267.993 248.649 267.266 249.439L257.21 260.37C256.957 260.616 256.658 260.809 256.33 260.938C256.002 261.066 255.651 261.127 255.298 261.117C254.945 261.128 254.594 261.068 254.264 260.941C253.935 260.814 253.634 260.622 253.38 260.377L243.683 250.024C242.978 249.241 243.21 248.162 244.268 247.619C244.789 247.352 245.379 247.25 245.959 247.328C246.539 247.407 247.081 247.661 247.513 248.056L255.27 256.35L263.451 247.485C263.703 247.242 264 247.05 264.325 246.922C264.651 246.794 264.998 246.731 265.348 246.737Z" fill="white"/>
<path d="M267.788 212.166L268.705 226.708C268.874 229.304 271.385 231.3 274.347 231.18C275.444 231.18 276.512 230.826 277.391 230.17C278.27 229.514 278.914 228.592 279.227 227.541C279.626 228.452 280.26 229.24 281.064 229.825C281.869 230.41 282.814 230.77 283.804 230.869C284.793 230.967 285.791 230.8 286.695 230.385C287.599 229.97 288.376 229.322 288.946 228.507C289.491 229.272 290.222 229.887 291.069 230.293C291.916 230.7 292.852 230.886 293.791 230.834C294.908 230.842 295.998 230.482 296.89 229.809C297.783 229.136 298.428 228.187 298.727 227.11C299.217 227.806 299.877 228.366 300.643 228.736C301.409 229.106 302.257 229.275 303.107 229.226C305.738 229.12 307.755 227.146 307.606 224.818L306.788 211.785C306.748 211.194 306.572 210.62 306.274 210.107C305.8 209.346 305.128 208.727 304.331 208.316C303.534 207.905 302.641 207.717 301.746 207.773C300.912 207.787 300.096 208.022 299.381 208.453C298.667 208.884 298.079 209.496 297.677 210.227C297.591 209.983 297.485 209.747 297.359 209.522C296.829 208.674 296.081 207.984 295.192 207.526C294.303 207.068 293.308 206.859 292.31 206.919C291.432 206.936 290.572 207.169 289.806 207.597C289.04 208.025 288.391 208.635 287.916 209.374C287.372 208.605 286.643 207.988 285.795 207.578C284.948 207.169 284.011 206.981 283.071 207.032C281.975 207.034 280.908 207.389 280.029 208.045C279.15 208.7 278.506 209.621 278.191 210.671C278.102 210.397 277.986 210.133 277.845 209.881C277.317 209.032 276.569 208.341 275.68 207.883C274.79 207.425 273.794 207.216 272.796 207.279C269.855 207.349 267.605 209.571 267.788 212.166Z" fill="#DCA482"/>
<path d="M279.39 227.59C279.377 227.63 279.352 227.665 279.317 227.689C279.283 227.714 279.241 227.726 279.199 227.724C279.148 227.73 279.096 227.716 279.055 227.684C279.014 227.652 278.988 227.606 278.981 227.555L277.979 210.629C277.979 210.578 277.999 210.53 278.035 210.494C278.071 210.458 278.119 210.438 278.17 210.438C278.222 210.434 278.273 210.45 278.314 210.483C278.355 210.516 278.381 210.563 278.388 210.615L279.397 227.505C279.397 227.505 279.39 227.576 279.39 227.59ZM289.164 228.542C289.15 228.584 289.124 228.621 289.087 228.647C289.051 228.673 289.008 228.688 288.963 228.688C288.919 228.688 288.875 228.673 288.839 228.647C288.803 228.621 288.776 228.584 288.762 228.542L287.676 218.203C287.676 218.152 287.696 218.103 287.732 218.066C287.767 218.029 287.816 218.007 287.867 218.006C287.919 217.999 287.971 218.014 288.013 218.045C288.055 218.077 288.084 218.123 288.092 218.175L289.171 228.507C289.17 228.519 289.168 228.531 289.164 228.542ZM298.777 222.992C298.765 223.03 298.742 223.063 298.71 223.087C298.679 223.111 298.64 223.125 298.601 223.126C298.549 223.132 298.498 223.119 298.456 223.089C298.414 223.059 298.385 223.014 298.375 222.964L297 211.256C296.998 211.231 297.001 211.206 297.009 211.182C297.018 211.158 297.031 211.136 297.048 211.118C297.065 211.099 297.086 211.084 297.109 211.074C297.133 211.064 297.158 211.059 297.183 211.059C297.234 211.051 297.287 211.063 297.329 211.094C297.371 211.124 297.4 211.17 297.409 211.221L298.784 222.928C298.785 222.95 298.783 222.971 298.777 222.992ZM298.925 227.153C298.911 227.188 298.889 227.219 298.859 227.243C298.829 227.266 298.793 227.282 298.756 227.287C298.704 227.295 298.652 227.284 298.609 227.255C298.565 227.226 298.535 227.182 298.523 227.132L298.241 225.495C298.237 225.471 298.238 225.445 298.245 225.421C298.251 225.397 298.263 225.374 298.279 225.355C298.295 225.335 298.315 225.32 298.338 225.309C298.36 225.298 298.385 225.292 298.41 225.291C298.461 225.282 298.514 225.294 298.557 225.322C298.6 225.351 298.631 225.395 298.643 225.446L298.925 227.082C298.932 227.105 298.932 227.13 298.925 227.153ZM276.646 223.521V223.577L277.415 227.336C277.422 227.363 277.422 227.392 277.414 227.419C277.407 227.446 277.393 227.471 277.373 227.491C276.214 228.537 274.701 229.102 273.141 229.071C273.087 229.071 273.036 229.051 272.996 229.014C272.957 228.977 272.933 228.927 272.93 228.873C272.931 228.848 272.938 228.822 272.95 228.799C272.962 228.776 272.978 228.755 272.997 228.738C273.017 228.721 273.04 228.708 273.064 228.7C273.089 228.691 273.115 228.688 273.141 228.69C274.558 228.705 275.932 228.204 277.006 227.28L276.301 223.69C273.67 222.279 270.92 223.648 270.341 223.958L270.927 227.089C270.931 227.115 270.929 227.141 270.922 227.166C270.915 227.192 270.903 227.215 270.886 227.235C270.87 227.255 270.849 227.271 270.825 227.283C270.802 227.294 270.776 227.3 270.75 227.301C270.698 227.311 270.644 227.301 270.599 227.272C270.554 227.243 270.522 227.198 270.511 227.146L269.897 223.902C269.89 223.866 269.894 223.829 269.909 223.796C269.924 223.763 269.95 223.736 269.982 223.718C270.017 223.718 273.402 221.638 276.604 223.422C276.629 223.449 276.644 223.484 276.646 223.521ZM286.908 224.325C286.911 224.343 286.911 224.362 286.908 224.381L287.352 228.182C287.356 228.21 287.352 228.239 287.341 228.265C287.33 228.291 287.312 228.314 287.288 228.33C286.043 229.302 284.474 229.761 282.902 229.614C282.85 229.61 282.802 229.587 282.766 229.549C282.731 229.511 282.711 229.461 282.711 229.409C282.722 229.357 282.751 229.311 282.795 229.279C282.838 229.248 282.891 229.234 282.944 229.24C284.359 229.356 285.769 228.958 286.915 228.119L286.491 224.501C283.995 222.921 281.125 224.092 280.525 224.367L280.842 227.519C280.843 227.546 280.839 227.572 280.83 227.597C280.82 227.622 280.806 227.645 280.787 227.664C280.769 227.683 280.747 227.698 280.722 227.708C280.698 227.719 280.672 227.724 280.645 227.724C280.592 227.73 280.538 227.715 280.496 227.682C280.454 227.649 280.426 227.601 280.419 227.548L280.088 224.275C280.084 224.239 280.092 224.203 280.109 224.172C280.127 224.14 280.154 224.115 280.187 224.099C280.187 224.099 283.783 222.258 286.823 224.247C286.857 224.266 286.886 224.293 286.908 224.325ZM296.703 223.57C296.703 223.57 296.703 223.57 296.703 223.619L297.148 227.421C297.151 227.45 297.147 227.479 297.136 227.506C297.125 227.533 297.107 227.557 297.084 227.576C295.837 228.542 294.269 229.001 292.698 228.859C292.646 228.856 292.597 228.833 292.562 228.795C292.527 228.757 292.507 228.707 292.507 228.655C292.511 228.628 292.519 228.602 292.533 228.579C292.547 228.556 292.565 228.536 292.587 228.52C292.609 228.504 292.634 228.493 292.66 228.487C292.686 228.481 292.713 228.481 292.74 228.486C294.155 228.599 295.564 228.201 296.711 227.364L296.287 223.739C293.791 222.167 290.92 223.33 290.314 223.605L290.631 226.765C290.633 226.791 290.63 226.817 290.621 226.841C290.612 226.865 290.598 226.888 290.58 226.906C290.562 226.925 290.541 226.94 290.517 226.949C290.493 226.959 290.467 226.963 290.441 226.962C290.388 226.969 290.334 226.955 290.291 226.923C290.248 226.892 290.218 226.845 290.208 226.793L289.884 223.514C289.879 223.478 289.886 223.441 289.904 223.409C289.922 223.377 289.949 223.352 289.982 223.337C290.018 223.337 293.579 221.497 296.619 223.492C296.654 223.509 296.684 223.536 296.703 223.57ZM306.196 222.11C306.196 222.11 306.196 222.145 306.196 222.16L306.619 225.763C306.623 225.79 306.619 225.818 306.607 225.843C306.596 225.868 306.578 225.889 306.556 225.904C305.376 226.811 303.897 227.237 302.416 227.096C302.389 227.102 302.362 227.101 302.336 227.094C302.309 227.088 302.285 227.075 302.264 227.058C302.243 227.041 302.226 227.019 302.214 226.995C302.203 226.97 302.197 226.944 302.197 226.916C302.197 226.889 302.203 226.863 302.214 226.838C302.226 226.814 302.243 226.792 302.264 226.775C302.285 226.757 302.309 226.745 302.336 226.739C302.362 226.732 302.389 226.731 302.416 226.737C303.757 226.844 305.093 226.469 306.182 225.679L305.78 222.244C303.41 220.756 300.695 221.856 300.138 222.117L300.441 225.107C300.442 225.132 300.438 225.157 300.429 225.18C300.421 225.203 300.407 225.224 300.39 225.242C300.373 225.26 300.352 225.274 300.33 225.283C300.307 225.293 300.283 225.298 300.258 225.298C300.208 225.304 300.157 225.291 300.116 225.26C300.075 225.23 300.048 225.186 300.039 225.136L299.729 222.033C299.725 221.998 299.732 221.964 299.748 221.934C299.765 221.903 299.79 221.879 299.821 221.863C299.856 221.863 303.227 220.121 306.104 222.004C306.145 222.03 306.176 222.067 306.196 222.11Z" fill="#313440"/>
<path opacity="0.38" d="M7.64411 102.634C7.64411 102.634 50.3891 88.2686 72.0049 127.939C93.6207 167.609 77.9007 234.064 99.9397 241.103C121.979 248.141 161.874 235.461 203.413 252.944C244.952 270.427 282.352 310.273 291.802 330.02H7.47485L7.64411 102.634Z" fill="#31B4BD"/>
<path d="M291.844 330.02H7.47489C7.29152 330.02 7.12226 330.062 6.99532 329.935C6.93355 329.885 6.88377 329.822 6.84961 329.75C6.81545 329.678 6.79777 329.599 6.79785 329.519L6.96711 102.381C6.96703 102.242 7.01153 102.106 7.09404 101.995C7.17656 101.883 7.29275 101.801 7.42552 101.76C13.2587 100.039 19.3137 99.1886 25.3952 99.2351C39.9021 99.2351 59.8747 104.172 72.5973 127.508C83.1196 146.818 84.8334 172.101 86.3426 194.401C87.88 217.209 89.2129 236.906 100.172 240.404C105.229 242.019 111.456 242.71 121.012 242.71C124.793 242.71 128.77 242.605 132.952 242.499C137.558 242.379 142.311 242.259 147.276 242.259C162.707 242.259 183.06 243.373 203.696 252.076C227.455 262.091 247.491 278.17 260.115 289.863C274.925 303.573 287.246 318.623 292.373 329.174C292.458 329.286 292.507 329.308 292.507 329.463C292.521 329.837 292.218 330.02 291.844 330.02ZM8.14487 330.02H290.744C280.06 309.568 242.308 270.37 203.181 253.853C182.764 245.249 162.573 243.867 147.276 243.867C142.339 243.867 137.579 243.867 132.988 243.966C128.756 244.079 124.807 244.107 120.998 244.107C111.301 244.107 104.94 243.402 99.7493 241.709C87.9153 237.929 86.6176 218.753 84.9391 194.493C83.444 172.327 81.7444 147.199 71.3631 128.143C58.9508 105.364 39.486 100.582 25.3458 100.582C19.5374 100.643 13.7742 101.612 8.26476 103.453L8.14487 330.02Z" fill="#313440"/>
<path d="M320.879 330.02H7.81332C7.24913 330.02 6.25473 329.801 6.25473 329.244V80.5673L3.39143 85.504C3.33522 85.6137 3.2561 85.7101 3.15942 85.7865C3.06274 85.863 2.95075 85.9178 2.83105 85.9472C2.71134 85.9767 2.58671 85.98 2.46559 85.9571C2.34447 85.9342 2.2297 85.8855 2.12904 85.8143C2.01958 85.7383 1.92638 85.6413 1.8549 85.5288C1.78342 85.4164 1.7351 85.2908 1.71277 85.1594C1.69044 85.0281 1.69455 84.8936 1.72485 84.7638C1.75516 84.6341 1.81105 84.5117 1.88925 84.4038L6.91766 76.5403C7.06757 76.3528 7.26839 76.2124 7.49605 76.1361C7.72371 76.0598 7.96855 76.0508 8.20121 76.1101C8.42774 76.166 8.63226 76.2886 8.7882 76.4622C8.94415 76.6357 9.04432 76.8522 9.07571 77.0834V329.315H320.879C321.436 329.315 321.888 329.103 321.888 329.667C321.888 330.232 321.436 330.02 320.879 330.02Z" fill="#313440"/>
<path d="M45.9742 115.265H23.0255V327.932H45.9742V115.265Z" fill="#33B5BD"/>
<path d="M76.5961 172.122H53.6473V327.925H76.5961V172.122Z" fill="#33B5BD"/>
<path d="M107.669 253.31H84.7205V327.925H107.669V253.31Z" fill="#33B5BD"/>
<path d="M138.016 253.31H115.067V327.925H138.016V253.31Z" fill="#33B5BD"/>
<path d="M169.689 253.31H146.74V327.925H169.689V253.31Z" fill="#33B5BD"/>
<path d="M200.028 264.122H177.08V327.925H200.028V264.122Z" fill="#33B5BD"/>
<path d="M230.065 276.908H207.116V327.925H230.065V276.908Z" fill="#33B5BD"/>
<path d="M260.637 296.027H237.688V327.925H260.637V296.027Z" fill="#33B5BD"/>
<path d="M86.4978 305.52H5.05592C3.97312 305.52 3.09534 306.398 3.09534 307.48V315.661C3.09534 316.744 3.97312 317.622 5.05592 317.622H86.4978C87.5806 317.622 88.4583 316.744 88.4583 315.661V307.48C88.4583 306.398 87.5806 305.52 86.4978 305.52Z" fill="#FBAF35"/>
<g style="mix-blend-mode:multiply">
<path d="M8.70907 305.83H7.23511V317.763H8.70907V305.83Z" fill="#FDCC86"/>
</g>
<g style="mix-blend-mode:multiply">
<path d="M13.5329 305.83H12.059V317.763H13.5329V305.83Z" fill="#FDCC86"/>
</g>
<g style="mix-blend-mode:multiply">
<path d="M19.0127 305.83H17.5387V317.763H19.0127V305.83Z" fill="#FDCC86"/>
</g>
<g style="mix-blend-mode:multiply">
<path d="M23.8366 305.83H22.3627V317.763H23.8366V305.83Z" fill="#FDCC86"/>
</g>
<g style="mix-blend-mode:multiply">
<path d="M52.6176 305.83H51.1437V317.763H52.6176V305.83Z" fill="#FDCC86"/>
</g>
<g style="mix-blend-mode:multiply">
<path d="M43.379 305.83H41.905V317.763H43.379V305.83Z" fill="#FDCC86"/>
</g>
<g style="mix-blend-mode:multiply">
<path d="M32.7509 305.83H31.277V317.763H32.7509V305.83Z" fill="#FDCC86"/>
</g>
<g style="mix-blend-mode:multiply">
<path d="M57.4416 305.83H55.9677V317.763H57.4416V305.83Z" fill="#FDCC86"/>
</g>
<g style="mix-blend-mode:multiply">
<path d="M62.6745 305.83H61.2006V317.763H62.6745V305.83Z" fill="#FDCC86"/>
</g>
<g style="mix-blend-mode:multiply">
<path d="M67.4984 305.83H66.0244V317.763H67.4984V305.83Z" fill="#FDCC86"/>
</g>
<g style="mix-blend-mode:multiply">
<path d="M72.7313 305.83H71.2573V317.763H72.7313V305.83Z" fill="#FDCC86"/>
</g>
<g style="mix-blend-mode:multiply">
<path d="M77.5551 305.83H76.0812V317.763H77.5551V305.83Z" fill="#FDCC86"/>
</g>
<g style="mix-blend-mode:multiply">
<path d="M82.9503 305.83H81.4763V317.763H82.9503V305.83Z" fill="#FDCC86"/>
</g>
<g style="mix-blend-mode:multiply">
<path d="M87.7743 305.83H86.3003V317.763H87.7743V305.83Z" fill="#FDCC86"/>
</g>
<path d="M90.9972 281.485H9.55531C8.47251 281.485 7.59473 282.363 7.59473 283.445V291.626C7.59473 292.709 8.47251 293.587 9.55531 293.587H90.9972C92.08 293.587 92.9577 292.709 92.9577 291.626V283.445C92.9577 282.363 92.08 281.485 90.9972 281.485Z" fill="#FBAF35"/>
<g style="mix-blend-mode:multiply">
<path d="M13.2085 281.795H11.7345V293.728H13.2085V281.795Z" fill="#FDCC86"/>
</g>
<g style="mix-blend-mode:multiply">
<path d="M18.0324 281.795H16.5585V293.728H18.0324V281.795Z" fill="#FDCC86"/>
</g>
<g style="mix-blend-mode:multiply">
<path d="M23.5051 281.795H22.0311V293.728H23.5051V281.795Z" fill="#FDCC86"/>
</g>
<g style="mix-blend-mode:multiply">
<path d="M28.3289 281.795H26.855V293.728H28.3289V281.795Z" fill="#FDCC86"/>
</g>
<g style="mix-blend-mode:multiply">
<path d="M57.1172 281.795H55.6432V293.728H57.1172V281.795Z" fill="#FDCC86"/>
</g>
<g style="mix-blend-mode:multiply">
<path d="M47.8714 281.795H46.3975V293.728H47.8714V281.795Z" fill="#FDCC86"/>
</g>
<g style="mix-blend-mode:multiply">
<path d="M37.2433 281.795H35.7693V293.728H37.2433V281.795Z" fill="#FDCC86"/>
</g>
<g style="mix-blend-mode:multiply">
<path d="M61.941 281.795H60.467V293.728H61.941V281.795Z" fill="#FDCC86"/>
</g>
<g style="mix-blend-mode:multiply">
<path d="M67.1739 281.795H65.7V293.728H67.1739V281.795Z" fill="#FDCC86"/>
</g>
<g style="mix-blend-mode:multiply">
<path d="M71.9979 281.795H70.5239V293.728H71.9979V281.795Z" fill="#FDCC86"/>
</g>
<g style="mix-blend-mode:multiply">
<path d="M77.2308 281.795H75.7568V293.728H77.2308V281.795Z" fill="#FDCC86"/>
</g>
<g style="mix-blend-mode:multiply">
<path d="M82.0547 281.795H80.5807V293.728H82.0547V281.795Z" fill="#FDCC86"/>
</g>
<g style="mix-blend-mode:multiply">
<path d="M87.4498 281.795H85.9758V293.728H87.4498V281.795Z" fill="#FDCC86"/>
</g>
<g style="mix-blend-mode:multiply">
<path d="M92.2737 281.795H90.7997V293.728H92.2737V281.795Z" fill="#FDCC86"/>
</g>
<path d="M85.5456 257.507H4.10377C3.02097 257.507 2.14319 258.384 2.14319 259.467V267.648C2.14319 268.731 3.02097 269.609 4.10377 269.609H85.5456C86.6284 269.609 87.5062 268.731 87.5062 267.648V259.467C87.5062 258.384 86.6284 257.507 85.5456 257.507Z" fill="#FBAF35"/>
<g style="mix-blend-mode:multiply">
<path d="M7.75692 257.817H6.28296V269.75H7.75692V257.817Z" fill="#FDCC86"/>
</g>
<g style="mix-blend-mode:multiply">
<path d="M12.5809 257.817H11.1069V269.75H12.5809V257.817Z" fill="#FDCC86"/>
</g>
<g style="mix-blend-mode:multiply">
<path d="M18.0536 257.817H16.5796V269.75H18.0536V257.817Z" fill="#FDCC86"/>
</g>
<g style="mix-blend-mode:multiply">
<path d="M22.8774 257.817H21.4034V269.75H22.8774V257.817Z" fill="#FDCC86"/>
</g>
<g style="mix-blend-mode:multiply">
<path d="M51.6656 257.817H50.1917V269.75H51.6656V257.817Z" fill="#FDCC86"/>
</g>
<g style="mix-blend-mode:multiply">
<path d="M42.4198 257.817H40.9458V269.75H42.4198V257.817Z" fill="#FDCC86"/>
</g>
<g style="mix-blend-mode:multiply">
<path d="M31.7917 257.817H30.3177V269.75H31.7917V257.817Z" fill="#FDCC86"/>
</g>
<g style="mix-blend-mode:multiply">
<path d="M56.4895 257.817H55.0155V269.75H56.4895V257.817Z" fill="#FDCC86"/>
</g>
<g style="mix-blend-mode:multiply">
<path d="M61.7224 257.817H60.2484V269.75H61.7224V257.817Z" fill="#FDCC86"/>
</g>
<g style="mix-blend-mode:multiply">
<path d="M66.5462 257.817H65.0723V269.75H66.5462V257.817Z" fill="#FDCC86"/>
</g>
<g style="mix-blend-mode:multiply">
<path d="M71.7793 257.817H70.3053V269.75H71.7793V257.817Z" fill="#FDCC86"/>
</g>
<g style="mix-blend-mode:multiply">
<path d="M76.6031 257.817H75.1292V269.75H76.6031V257.817Z" fill="#FDCC86"/>
</g>
<g style="mix-blend-mode:multiply">
<path d="M81.9983 257.817H80.5243V269.75H81.9983V257.817Z" fill="#FDCC86"/>
</g>
<g style="mix-blend-mode:multiply">
<path d="M86.8221 257.817H85.3481V269.75H86.8221V257.817Z" fill="#FDCC86"/>
</g>
<path d="M84.5089 293.531H3.99795C2.65808 293.531 1.5719 294.617 1.5719 295.957V303.206C1.5719 304.546 2.65808 305.633 3.99795 305.633H84.5089C85.8487 305.633 86.9349 304.546 86.9349 303.206V295.957C86.9349 294.617 85.8487 293.531 84.5089 293.531Z" fill="#FBAF35"/>
<g style="mix-blend-mode:multiply">
<path d="M7.17868 293.841H5.70471V305.774H7.17868V293.841Z" fill="#FDCC86"/>
</g>
<g style="mix-blend-mode:multiply">
<path d="M12.0025 293.841H10.5286V305.774H12.0025V293.841Z" fill="#FDCC86"/>
</g>
<g style="mix-blend-mode:multiply">
<path d="M17.4823 293.841H16.0083V305.774H17.4823V293.841Z" fill="#FDCC86"/>
</g>
<g style="mix-blend-mode:multiply">
<path d="M22.3062 293.841H20.8323V305.774H22.3062V293.841Z" fill="#FDCC86"/>
</g>
<g style="mix-blend-mode:multiply">
<path d="M51.0872 293.841H49.6133V305.774H51.0872V293.841Z" fill="#FDCC86"/>
</g>
<g style="mix-blend-mode:multiply">
<path d="M41.8486 293.841H40.3746V305.774H41.8486V293.841Z" fill="#FDCC86"/>
</g>
<g style="mix-blend-mode:multiply">
<path d="M31.2205 293.841H29.7466V305.774H31.2205V293.841Z" fill="#FDCC86"/>
</g>
<g style="mix-blend-mode:multiply">
<path d="M55.9112 293.841H54.4373V305.774H55.9112V293.841Z" fill="#FDCC86"/>
</g>
<g style="mix-blend-mode:multiply">
<path d="M61.1512 293.841H59.6772V305.774H61.1512V293.841Z" fill="#FDCC86"/>
</g>
<g style="mix-blend-mode:multiply">
<path d="M65.9751 293.841H64.5011V305.774H65.9751V293.841Z" fill="#FDCC86"/>
</g>
<g style="mix-blend-mode:multiply">
<path d="M71.208 293.841H69.734V305.774H71.208V293.841Z" fill="#FDCC86"/>
</g>
<g style="mix-blend-mode:multiply">
<path d="M76.0318 293.841H74.5579V305.774H76.0318V293.841Z" fill="#FDCC86"/>
</g>
<g style="mix-blend-mode:multiply">
<path d="M81.427 293.841H79.953V305.774H81.427V293.841Z" fill="#FDCC86"/>
</g>
<g style="mix-blend-mode:multiply">
<path d="M86.2508 293.841H84.7769V305.774H86.2508V293.841Z" fill="#FDCC86"/>
</g>
<path d="M85.461 317.453H4.9501C3.61023 317.453 2.52405 318.539 2.52405 319.879V327.128C2.52405 328.468 3.61023 329.555 4.9501 329.555H85.461C86.8009 329.555 87.8871 328.468 87.8871 327.128V319.879C87.8871 318.539 86.8009 317.453 85.461 317.453Z" fill="#FBAF35"/>
<g style="mix-blend-mode:multiply">
<path d="M8.13778 317.763H6.66382V329.696H8.13778V317.763Z" fill="#FDCC86"/>
</g>
<g style="mix-blend-mode:multiply">
<path d="M12.9616 317.763H11.4877V329.696H12.9616V317.763Z" fill="#FDCC86"/>
</g>
<g style="mix-blend-mode:multiply">
<path d="M18.4415 317.763H16.9675V329.696H18.4415V317.763Z" fill="#FDCC86"/>
</g>
<g style="mix-blend-mode:multiply">
<path d="M23.2653 317.763H21.7914V329.696H23.2653V317.763Z" fill="#FDCC86"/>
</g>
<g style="mix-blend-mode:multiply">
<path d="M52.0465 317.763H50.5725V329.696H52.0465V317.763Z" fill="#FDCC86"/>
</g>
<g style="mix-blend-mode:multiply">
<path d="M42.8077 317.763H41.3337V329.696H42.8077V317.763Z" fill="#FDCC86"/>
</g>
<g style="mix-blend-mode:multiply">
<path d="M32.1726 317.763H30.6986V329.696H32.1726V317.763Z" fill="#FDCC86"/>
</g>
<g style="mix-blend-mode:multiply">
<path d="M56.8703 317.763H55.3964V329.696H56.8703V317.763Z" fill="#FDCC86"/>
</g>
<g style="mix-blend-mode:multiply">
<path d="M62.1032 317.763H60.6293V329.696H62.1032V317.763Z" fill="#FDCC86"/>
</g>
<g style="mix-blend-mode:multiply">
<path d="M66.9271 317.763H65.4531V329.696H66.9271V317.763Z" fill="#FDCC86"/>
</g>
<g style="mix-blend-mode:multiply">
<path d="M72.16 317.763H70.686V329.696H72.16V317.763Z" fill="#FDCC86"/>
</g>
<g style="mix-blend-mode:multiply">
<path d="M76.984 317.763H75.51V329.696H76.984V317.763Z" fill="#FDCC86"/>
</g>
<g style="mix-blend-mode:multiply">
<path d="M82.3791 317.763H80.9052V329.696H82.3791V317.763Z" fill="#FDCC86"/>
</g>
<g style="mix-blend-mode:multiply">
<path d="M87.203 317.763H85.729V329.696H87.203V317.763Z" fill="#FDCC86"/>
</g>
<path d="M88.7615 269.665H8.25063C6.91076 269.665 5.82458 270.751 5.82458 272.091V279.341C5.82458 280.681 6.91076 281.767 8.25063 281.767H88.7615C90.1014 281.767 91.1876 280.681 91.1876 279.341V272.091C91.1876 270.751 90.1014 269.665 88.7615 269.665Z" fill="#FBAF35"/>
<g style="mix-blend-mode:multiply">
<path d="M11.4312 269.975H9.95728V281.908H11.4312V269.975Z" fill="#FDCC86"/>
</g>
<g style="mix-blend-mode:multiply">
<path d="M16.2552 269.975H14.7812V281.908H16.2552V269.975Z" fill="#FDCC86"/>
</g>
<g style="mix-blend-mode:multiply">
<path d="M21.735 269.975H20.261V281.908H21.735V269.975Z" fill="#FDCC86"/>
</g>
<g style="mix-blend-mode:multiply">
<path d="M26.5588 269.975H25.0848V281.908H26.5588V269.975Z" fill="#FDCC86"/>
</g>
<g style="mix-blend-mode:multiply">
<path d="M55.3399 269.975H53.866V281.908H55.3399V269.975Z" fill="#FDCC86"/>
</g>
<g style="mix-blend-mode:multiply">
<path d="M46.1012 269.975H44.6272V281.908H46.1012V269.975Z" fill="#FDCC86"/>
</g>
<g style="mix-blend-mode:multiply">
<path d="M35.4731 269.975H33.9991V281.908H35.4731V269.975Z" fill="#FDCC86"/>
</g>
<g style="mix-blend-mode:multiply">
<path d="M60.1638 269.975H58.6898V281.908H60.1638V269.975Z" fill="#FDCC86"/>
</g>
<g style="mix-blend-mode:multiply">
<path d="M65.3967 269.975H63.9227V281.908H65.3967V269.975Z" fill="#FDCC86"/>
</g>
<g style="mix-blend-mode:multiply">
<path d="M70.2207 269.975H68.7467V281.908H70.2207V269.975Z" fill="#FDCC86"/>
</g>
<g style="mix-blend-mode:multiply">
<path d="M75.4536 269.975H73.9796V281.908H75.4536V269.975Z" fill="#FDCC86"/>
</g>
<g style="mix-blend-mode:multiply">
<path d="M80.2845 269.975H78.8105V281.908H80.2845V269.975Z" fill="#FDCC86"/>
</g>
<g style="mix-blend-mode:multiply">
<path d="M85.6797 269.975H84.2057V281.908H85.6797V269.975Z" fill="#FDCC86"/>
</g>
<g style="mix-blend-mode:multiply">
<path d="M90.5035 269.975H89.0295V281.908H90.5035V269.975Z" fill="#FDCC86"/>
</g>
<path d="M118.163 316.861C132.181 300.837 130.555 276.484 114.531 262.466C98.5078 248.448 74.1543 250.074 60.1364 266.098C46.1186 282.122 47.7447 306.475 63.7684 320.493C79.7921 334.511 104.146 332.885 118.163 316.861Z" fill="#D5952C"/>
<path d="M98.4933 322.326C115.526 317.388 125.329 299.577 120.391 282.545C115.452 265.512 97.6411 255.709 80.6089 260.647C63.5766 265.586 53.7729 283.397 58.7115 300.429C63.6502 317.461 81.4611 327.265 98.4933 322.326Z" fill="#FBAF35"/>
<path d="M89.4315 310.245C87.1366 310.198 84.8607 309.818 82.6752 309.116C80.8903 308.545 79.2379 307.622 77.8161 306.401C76.5213 305.275 75.507 303.863 74.8541 302.276C74.1645 300.557 73.8241 298.718 73.8526 296.866L79.7696 297.078C79.8003 298.202 80.083 299.304 80.5969 300.304C81.1108 301.303 81.8428 302.175 82.7387 302.854C83.6535 303.541 84.6792 304.065 85.7713 304.405C86.9817 304.789 88.2397 305.003 89.5091 305.04C90.6917 305.095 91.8765 305.001 93.0353 304.758C94.0143 304.556 94.9532 304.194 95.814 303.686C96.5498 303.247 97.1786 302.65 97.6547 301.937C98.0968 301.237 98.3406 300.43 98.3599 299.603C98.4209 298.757 98.2215 297.913 97.7887 297.184C97.2744 296.444 96.5803 295.847 95.7717 295.449C94.624 294.863 93.4217 294.39 92.182 294.038C90.7244 293.596 88.9566 293.105 86.8785 292.564C85.1421 292.13 83.4476 291.542 81.8148 290.808C80.5204 290.239 79.329 289.46 78.2886 288.502C77.4017 287.672 76.7104 286.656 76.2646 285.526C75.8203 284.305 75.6283 283.007 75.7004 281.711C75.7416 280.227 76.1408 278.775 76.864 277.479C77.5881 276.19 78.5992 275.085 79.819 274.249C81.1775 273.321 82.6885 272.638 84.2832 272.232C86.1543 271.765 88.0836 271.575 90.0098 271.668C91.9993 271.716 93.9722 272.043 95.8704 272.641C97.4909 273.144 99.001 273.951 100.32 275.018C101.528 276.018 102.492 277.279 103.141 278.706C103.813 280.237 104.152 281.894 104.136 283.565L98.106 283.347C97.8145 279.233 95.0735 277.084 89.8829 276.901C88.7617 276.846 87.6381 276.936 86.54 277.169C85.6439 277.356 84.7841 277.687 83.994 278.149C83.3331 278.544 82.771 279.084 82.3508 279.729C81.9653 280.338 81.7487 281.039 81.7232 281.76C81.6983 282.34 81.8247 282.916 82.0899 283.431C82.4222 283.998 82.8807 284.481 83.4298 284.842C84.2075 285.362 85.0429 285.791 85.9194 286.118C87.177 286.594 88.4602 286.999 89.763 287.331C91.0888 287.689 92.3841 288.048 93.6489 288.41C94.8442 288.752 96.0212 289.154 97.1751 289.616C98.224 290.032 99.234 290.539 100.194 291.133C101.07 291.673 101.854 292.352 102.514 293.143C103.171 293.947 103.671 294.868 103.988 295.858C104.341 297.017 104.487 298.23 104.418 299.44C104.381 301.057 103.95 302.64 103.163 304.053C102.38 305.43 101.301 306.615 100.003 307.523C98.5737 308.503 96.9807 309.219 95.2991 309.638C93.383 310.124 91.4064 310.328 89.4315 310.245Z" fill="white"/>
<path d="M92.9837 266.641L87.6768 266.447L85.8861 315.514L91.1931 315.707L92.9837 266.641Z" fill="white"/>
<path d="M288.558 86.978H262.633V112.889H288.558V86.978Z" fill="#33B8C0"/>
<path d="M297.571 93.4592H354.266" stroke="#7D85B9" stroke-width="5.28229" stroke-miterlimit="10" stroke-linecap="round"/>
<path d="M297.571 106.408H331.959" stroke="#7D85B9" stroke-width="5.28229" stroke-miterlimit="10" stroke-linecap="round"/>
<path d="M288.579 43.6265H262.654V69.5373H288.579V43.6265Z" fill="#33B8C0"/>
<path d="M273.663 64.8897C273.252 64.8876 272.859 64.7227 272.57 64.4313L266.378 58.2533C266.088 57.9634 265.925 57.5702 265.925 57.1602C265.925 56.7502 266.088 56.357 266.378 56.067C266.668 55.7771 267.061 55.6143 267.471 55.6143C267.881 55.6143 268.274 55.7771 268.564 56.067L273.564 61.0672L284.065 48.8242C284.332 48.5127 284.711 48.32 285.12 48.2882C285.322 48.2725 285.526 48.2968 285.719 48.3597C285.912 48.4226 286.09 48.5229 286.245 48.6549C286.399 48.7869 286.526 48.9479 286.617 49.1289C286.709 49.3098 286.765 49.5071 286.781 49.7095C286.796 49.9118 286.772 50.1153 286.709 50.3083C286.646 50.5012 286.546 50.6799 286.414 50.8341L274.841 64.3396C274.702 64.5009 274.531 64.6317 274.34 64.724C274.148 64.8162 273.939 64.8678 273.727 64.8756L273.663 64.8897Z" fill="white"/>
<path d="M297.592 50.1077H354.266" stroke="#7D85B9" stroke-width="5.28229" stroke-miterlimit="10" stroke-linecap="round"/>
<path d="M297.592 63.056H331.959" stroke="#7D85B9" stroke-width="5.28229" stroke-miterlimit="10" stroke-linecap="round"/>
<path d="M273.663 108.932C273.253 108.932 272.86 108.77 272.57 108.481L266.378 102.31C266.234 102.167 266.12 101.996 266.043 101.809C265.965 101.621 265.925 101.42 265.925 101.217C265.925 101.014 265.965 100.813 266.043 100.625C266.12 100.438 266.234 100.267 266.378 100.124C266.521 99.9803 266.692 99.8664 266.879 99.7887C267.067 99.711 267.268 99.671 267.471 99.671C267.674 99.671 267.875 99.711 268.063 99.7887C268.25 99.8664 268.421 99.9803 268.564 100.124L273.564 105.124L284.065 92.8809C284.336 92.5877 284.71 92.4107 285.108 92.387C285.507 92.3633 285.899 92.4947 286.202 92.7536C286.506 93.0126 286.698 93.379 286.737 93.7761C286.776 94.1732 286.661 94.5702 286.414 94.8838L274.841 108.396C274.702 108.558 274.531 108.688 274.34 108.781C274.148 108.873 273.939 108.925 273.727 108.932H273.663Z" fill="white"/>
<path d="M150.4 64.8051L162.432 60.7428L150.252 56.8287C148.469 56.395 146.842 55.473 145.554 54.1662C144.266 52.8595 143.368 51.2196 142.96 49.4307L138.771 31.327L134.969 49.1839C134.58 51.0293 133.671 52.7246 132.348 54.0694C131.026 55.4142 129.346 56.3522 127.508 56.7723L116.16 60.9051L127.233 64.5794C129.126 64.9841 130.86 65.9344 132.22 67.313C133.58 68.6915 134.506 70.4381 134.885 72.3371L138.411 89.8695L142.72 72.1819C143.161 70.3469 144.119 68.6767 145.48 67.3693C146.841 66.0619 148.549 65.172 150.4 64.8051ZM162.037 97.2817L169.054 94.9191L162.001 92.6482C160.968 92.3916 160.025 91.8539 159.278 91.0946C158.531 90.3352 158.009 89.384 157.77 88.3462L155.351 77.8239L153.143 88.2051C152.915 89.2765 152.385 90.2603 151.617 91.0411C150.849 91.8219 149.874 92.3672 148.806 92.6129L142.226 95.0178L148.658 97.1336C149.757 97.367 150.764 97.9177 151.554 98.7174C152.344 99.5171 152.882 100.531 153.101 101.633L155.132 111.817L157.572 101.562C157.832 100.498 158.39 99.5297 159.18 98.7714C159.971 98.013 160.962 97.4962 162.037 97.2817ZM328.348 160.662L337.685 157.503L328.228 154.456C326.849 154.113 325.593 153.395 324.597 152.381C323.602 151.368 322.905 150.099 322.586 148.715L319.321 134.709L316.373 148.567C316.067 149.999 315.359 151.315 314.332 152.359C313.306 153.403 312.002 154.133 310.576 154.463L301.788 157.665L310.378 160.521C311.847 160.834 313.193 161.57 314.248 162.64C315.304 163.709 316.023 165.064 316.316 166.537L319.031 180.141L322.381 166.417C322.721 164.987 323.464 163.686 324.521 162.665C325.579 161.645 326.907 160.95 328.348 160.662ZM40.9388 73L47.9348 70.6375L40.8823 68.3666C39.8486 68.11 38.9061 67.5722 38.1593 66.8129C37.4124 66.0536 36.8903 65.1024 36.6509 64.0646L34.1825 53.5423L31.9751 63.9235C31.7482 64.9955 31.2192 65.9803 30.4507 66.7613C29.6821 67.5424 28.706 68.0872 27.6378 68.3313L21.0579 70.7362L27.4897 72.8519C28.5896 73.0858 29.597 73.6365 30.3878 74.436C31.1785 75.2355 31.718 76.249 31.9398 77.3514L33.9709 87.5352L36.4675 77.2809C36.7282 76.2158 37.2874 75.2473 38.0794 74.489C38.8714 73.7307 39.8634 73.2142 40.9388 73Z" fill="#FBAF32"/>
</g>
</g>
<defs>
<clipPath id="clip0_146_1309">
<rect width="360" height="360" fill="white" transform="translate(0.5)"/>
</clipPath>
<clipPath id="clip1_146_1309">
<rect width="360" height="360" fill="white" transform="translate(0.5)"/>
</clipPath>
</defs>
</svg>
